<svg width="36" height="36" viewBox="0 0 36 36" fill="none" xmlns="http://www.w3.org/2000/svg">
<path d="M15.1875 4.64453C9.49219 4.64453 4.85156 9.28094 4.85156 14.9762C4.85156 20.6716 9.49219 25.3122 15.1875 25.3122C20.8828 25.3122 25.5234 20.6765 25.5234 14.9762C25.5234 9.27602 20.8863 4.64453 15.1875 4.64453ZM15.1875 24.6091C9.8768 24.6091 5.55469 20.2884 5.55469 14.9762C5.55469 9.66414 9.87469 5.34344 15.1875 5.34344C20.5003 5.34344 24.8203 9.66766 24.8203 14.9762C24.8203 20.2848 20.4982 24.6091 15.1875 24.6091Z" fill="#033F47"/>
<path d="M32.9586 29.2697L25.9196 22.2308C27.5512 19.8359 28.3237 16.959 28.1112 14.0689C27.669 7.62052 22.4708 2.45396 16.0175 2.04966C13.9859 1.91781 11.9519 2.26659 10.0803 3.06771C8.20866 3.86883 6.55219 5.09974 5.24518 6.66063C3.93816 8.22153 3.01739 10.0685 2.55752 12.0517C2.09765 14.0349 2.11162 16.0986 2.59831 18.0754C3.08499 20.0523 4.0307 21.8866 5.35873 23.4296C6.68676 24.9727 8.35974 26.181 10.242 26.9567C12.1243 27.7324 14.1629 28.0536 16.1925 27.8943C18.2221 27.7349 20.1856 27.0995 21.9237 26.0396L29.0541 33.1693C29.5737 33.6745 30.2712 33.9548 30.9959 33.9497C31.7205 33.9447 32.4141 33.6545 32.9265 33.1421C33.4389 32.6297 33.729 31.9362 33.7341 31.2115C33.7392 30.4868 33.4588 29.7893 32.9537 29.2697H32.9586ZM32.4608 32.6722C32.0753 33.0568 31.553 33.2729 31.0085 33.2729C30.4639 33.2729 29.9416 33.0568 29.5562 32.6722L22.2282 25.3442C22.1715 25.2873 22.0971 25.2516 22.0173 25.2429C21.9374 25.2342 21.857 25.253 21.7894 25.2964C20.1586 26.3398 18.3037 26.9818 16.3769 27.1698C14.45 27.3578 12.506 27.0865 10.7042 26.378C8.90249 25.6695 7.29431 24.5441 6.01155 23.094C4.72879 21.6439 3.80798 19.9105 3.32461 18.0358C2.84124 16.161 2.80908 14.1985 3.23076 12.3089C3.65244 10.4194 4.51596 8.65665 5.75051 7.16532C6.98507 5.67398 8.5555 4.49647 10.3331 3.72935C12.1106 2.96222 14.0447 2.62731 15.9767 2.75208C22.0763 3.13318 26.9919 8.01919 27.4095 14.1167C27.6179 16.9468 26.8277 19.7605 25.1764 22.0683C25.1283 22.136 25.1057 22.2186 25.1127 22.3013C25.1196 22.3841 25.1557 22.4617 25.2144 22.5204L32.4608 29.7668C32.6516 29.9576 32.803 30.184 32.9063 30.4333C33.0095 30.6825 33.0627 30.9497 33.0627 31.2195C33.0627 31.4893 33.0095 31.7565 32.9063 32.0057C32.803 32.255 32.6516 32.4814 32.4608 32.6722Z" fill="#033F47"/>
</svg>
