<svg width="36" height="36" viewBox="0 0 36 36" fill="none" xmlns="http://www.w3.org/2000/svg">
<path d="M23.4824 1.43965C21.3014 1.42689 19.1631 2.04373 17.324 3.21613C15.485 4.38853 14.0233 6.0667 13.1143 8.04925C6.72795 8.67925 5.48595 12.9272 5.39955 13.3196L3.95955 17.3984L1.61955 20.3972C1.53014 20.5112 1.47189 20.6464 1.45054 20.7897C1.42918 20.9329 1.44544 21.0793 1.49773 21.2143C1.55001 21.3494 1.63652 21.4686 1.74876 21.5601C1.86101 21.6516 1.99512 21.7124 2.13795 21.7364L3.93795 22.0352V27.9644C3.93786 28.0234 3.95226 28.0815 3.97988 28.1336C4.0075 28.1857 4.04749 28.2302 4.09635 28.2632C4.16115 28.3064 5.61195 29.246 8.09595 28.472V34.1996C8.09595 34.2951 8.13388 34.3867 8.20139 34.4542C8.2689 34.5217 8.36047 34.5596 8.45595 34.5596H17.8988C17.9942 34.5596 18.0858 34.5217 18.1533 34.4542C18.2208 34.3867 18.2588 34.2951 18.2588 34.1996L18.4028 28.5548C19.8789 27.0182 21.0699 25.2312 21.92 23.2772C22.4379 23.3464 22.9598 23.3812 23.4824 23.3816C29.7104 23.3816 34.7792 18.4604 34.7792 12.4088C34.7792 6.35725 29.7104 1.43965 23.4824 1.43965ZM17.7871 28.166C17.7245 28.231 17.6885 28.3171 17.6863 28.4072L17.5496 33.8396H8.80515V27.9644C8.80465 27.9061 8.78997 27.8487 8.76238 27.7973C8.73479 27.7459 8.6951 27.7019 8.64675 27.6692C8.59883 27.6364 8.54369 27.6157 8.48601 27.6088C8.42834 27.6019 8.36985 27.609 8.31555 27.6296C6.34635 28.3856 5.07555 27.9536 4.64715 27.752V21.7292C4.6484 21.6435 4.61898 21.5601 4.5642 21.4941C4.50942 21.4281 4.43287 21.3838 4.34835 21.3692L2.25675 21.0092C2.23699 21.0056 2.21844 20.9971 2.20274 20.9845C2.18705 20.9719 2.17468 20.9557 2.16675 20.9372C2.15959 20.9181 2.15749 20.8975 2.16064 20.8773C2.1638 20.8571 2.1721 20.8381 2.18475 20.822L4.57155 17.78C4.59556 17.7481 4.61495 17.713 4.62915 17.6756L6.06915 13.5176V13.478C6.10875 13.298 7.02315 9.49645 12.7975 8.79805C12.3792 9.95222 12.1648 11.1704 12.1639 12.398C12.1699 13.858 12.4705 15.3018 13.0476 16.6429C13.6247 17.984 14.4666 19.1948 15.5227 20.2028L13.4095 23.4428C13.3747 23.4972 13.3551 23.5599 13.3528 23.6245C13.3505 23.689 13.3656 23.7529 13.3965 23.8096C13.4274 23.8663 13.473 23.9137 13.5285 23.9467C13.584 23.9797 13.6474 23.9971 13.7119 23.9972C13.7466 24.0023 13.7817 24.0023 13.8163 23.9972L18.896 22.4456C19.6292 22.7656 20.3943 23.0069 21.1784 23.1656C20.3483 25.0175 19.2006 26.7098 17.7871 28.166ZM23.4824 22.6796C21.9652 22.6815 20.4648 22.3625 19.0795 21.7436C18.9983 21.7133 18.9088 21.7133 18.8276 21.7436L14.5688 23.0396L16.3075 20.372C16.3535 20.3004 16.3725 20.2148 16.3613 20.1304C16.3501 20.0461 16.3094 19.9684 16.2464 19.9112C15.1983 18.9661 14.3592 17.8124 13.7827 16.5243C13.2061 15.2361 12.9049 13.8417 12.8984 12.4304C12.8984 6.76045 17.6396 2.15965 23.4824 2.15965C29.3252 2.15965 34.0592 6.76045 34.0592 12.4196C34.0592 18.0788 29.3144 22.6796 23.4824 22.6796Z" fill="#033F47"/>
<path d="M28.1482 6.04419C27.0403 5.23347 25.6562 4.89495 24.2993 5.10278C22.9423 5.31062 21.723 6.04786 20.9086 7.15299C20.8078 7.29339 20.707 7.44099 20.617 7.59219C19.8106 8.93499 19.7062 10.3606 19.6162 11.6134C19.5514 12.5278 19.4938 13.327 19.177 13.9138C18.9221 13.8553 18.6551 13.8843 18.4188 13.9963C18.1825 14.1082 17.9909 14.2965 17.8748 14.5308C17.7587 14.765 17.725 15.0316 17.779 15.2874C17.833 15.5431 17.9717 15.7733 18.1726 15.9406C17.9682 16.3561 17.9168 16.8304 18.0274 17.2801C18.138 17.7298 18.4035 18.1261 18.7774 18.3994L19.1878 18.6982C19.5244 18.9468 19.9321 19.0806 20.3506 19.0798C20.4519 19.0803 20.5531 19.0719 20.653 19.0546C21.0508 18.995 21.4204 18.814 21.7114 18.5362C21.893 18.653 22.1038 18.7166 22.3198 18.7198C22.5279 18.7211 22.7325 18.6665 22.9123 18.5617C23.0921 18.4569 23.2405 18.3058 23.342 18.1242C23.4435 17.9425 23.4944 17.7369 23.4893 17.5289C23.4843 17.3208 23.4235 17.1179 23.3134 16.9414C23.7814 16.4734 24.5266 16.1782 25.3726 15.8614C26.5426 15.4006 27.871 14.875 28.9078 13.7014C29.0264 13.5718 29.1382 13.436 29.2426 13.2946C30.0582 12.1877 30.4011 10.8024 30.1958 9.4429C29.9906 8.0834 29.2541 6.86097 28.1482 6.04419ZM20.545 18.3598C20.382 18.3848 20.2158 18.3773 20.0557 18.3378C19.8957 18.2982 19.7451 18.2274 19.6126 18.1294L19.2022 17.827C19.0705 17.7274 18.9601 17.6025 18.8772 17.4598C18.7944 17.317 18.7409 17.1591 18.7198 16.9954C18.688 16.7898 18.7078 16.5795 18.7774 16.3834L21.1246 18.1078C20.9567 18.2411 20.7569 18.328 20.545 18.3598ZM22.705 17.8342C22.6345 17.9298 22.5291 17.9936 22.4118 18.0118C22.2944 18.03 22.1747 18.0011 22.0786 17.9314L21.679 17.6398L18.8566 15.5662L18.655 15.4186C18.5595 15.3479 18.496 15.2422 18.4784 15.1248C18.4609 15.0073 18.4907 14.8877 18.5614 14.7922C18.632 14.6967 18.7377 14.6332 18.8552 14.6157C18.9726 14.5981 19.0923 14.6279 19.1878 14.6986L22.6006 17.2186C22.6908 17.288 22.7512 17.3893 22.7693 17.5017C22.7873 17.6141 22.7617 17.7292 22.6978 17.8234L22.705 17.8342ZM23.2342 12.2398L23.4898 12.427L23.7598 12.5998L21.5998 15.5554L21.0886 15.1954L23.2342 12.2398ZM23.083 11.2318L22.471 10.7854C22.351 10.6957 22.2602 10.5726 22.2097 10.4316C22.1592 10.2906 22.1513 10.1379 22.187 9.99242C22.2227 9.84697 22.3004 9.71523 22.4104 9.61362C22.5204 9.512 22.6579 9.44501 22.8058 9.42099C22.8453 9.41743 22.885 9.41743 22.9246 9.42099C23.085 9.42318 23.2408 9.47471 23.371 9.56859C23.5325 9.68852 23.6401 9.86738 23.6705 10.0663C23.7008 10.2651 23.6514 10.468 23.533 10.6306L23.083 11.2318ZM28.6774 12.877C28.5838 13.0042 28.4866 13.1242 28.3858 13.237C27.4606 14.281 26.2258 14.7706 25.1206 15.2026C24.2314 15.5626 23.3818 15.8902 22.8058 16.477L22.1542 16.0018L24.3142 13.0426L24.9226 13.4926C25.1581 13.6661 25.4399 13.7658 25.7321 13.7792C26.0244 13.7926 26.3141 13.719 26.5646 13.5678C26.815 13.4166 27.015 13.1946 27.1393 12.9297C27.2636 12.6648 27.3066 12.3691 27.2628 12.0798C27.2191 11.7905 27.0905 11.5207 26.8934 11.3045C26.6963 11.0882 26.4396 10.9353 26.1556 10.8649C25.8716 10.7946 25.5731 10.81 25.2979 10.9093C25.0227 11.0086 24.7831 11.1872 24.6094 11.4226L24.1594 12.0382L23.9038 11.851L23.6482 11.6602L24.1198 11.0266C24.2344 10.8701 24.3171 10.6926 24.3631 10.5041C24.4092 10.3157 24.4176 10.12 24.388 9.9283C24.3585 9.73659 24.2914 9.55258 24.1907 9.38678C24.09 9.22097 23.9576 9.07663 23.8012 8.96199C23.6447 8.84734 23.4671 8.76464 23.2787 8.71861C23.0902 8.67258 22.8946 8.66411 22.7029 8.69369C22.5112 8.72328 22.3271 8.79034 22.1613 8.89104C21.9955 8.99173 21.8512 9.1241 21.7366 9.28059C21.6214 9.43696 21.5382 9.61453 21.4918 9.80311C21.4454 9.99169 21.4366 10.1876 21.4661 10.3795C21.4955 10.5715 21.5625 10.7558 21.6633 10.9218C21.7641 11.0878 21.8966 11.2323 22.0534 11.347L22.6618 11.7934L20.4838 14.7598L19.7998 14.2594C20.1886 13.5394 20.2534 12.6214 20.3218 11.6674C20.4046 10.4902 20.5018 9.14739 21.2218 7.96299C21.301 7.82979 21.3874 7.70019 21.4738 7.58139C22.1736 6.62661 23.2241 5.98895 24.3941 5.80869C25.5641 5.62843 26.7578 5.92033 27.7126 6.62019C28.6673 7.32004 29.305 8.37051 29.4852 9.54052C29.6655 10.7105 29.3736 11.9042 28.6738 12.859L28.6774 12.877ZM24.7534 12.4594L25.1998 11.8294C25.2887 11.7091 25.4111 11.6178 25.5517 11.5668C25.6923 11.5159 25.8449 11.5075 25.9902 11.5429C26.1355 11.5783 26.2671 11.6558 26.3686 11.7656C26.4701 11.8755 26.5369 12.0129 26.5606 12.1606C26.5813 12.3082 26.5581 12.4587 26.4939 12.5933C26.4296 12.7278 26.3272 12.8405 26.1994 12.9173C26.0716 12.9941 25.924 13.0315 25.7751 13.025C25.6261 13.0185 25.4824 12.9682 25.3618 12.8806L24.7534 12.4594Z" fill="#033F47"/>
</svg>
