<svg width="36" height="36" viewBox="0 0 36 36" fill="none" xmlns="http://www.w3.org/2000/svg">
<path d="M23.3986 17.4318C22.8922 17.9382 22.2054 18.2227 21.4892 18.2227C20.7731 18.2227 20.0863 17.9382 19.5799 17.4318C19.0735 16.9254 18.789 16.2386 18.789 15.5225C18.789 14.8063 19.0735 14.1195 19.5799 13.6131C20.0863 13.1068 20.7731 12.8223 21.4892 12.8223C22.2054 12.8223 22.8922 13.1068 23.3986 13.6131C23.905 14.1195 24.1895 14.8063 24.1895 15.5225C24.1895 16.2386 23.905 16.9254 23.3986 17.4318ZM21.4889 13.5006C21.2231 13.5003 20.9598 13.5524 20.7141 13.654C20.4684 13.7556 20.2453 13.9046 20.0573 14.0927C19.7251 14.4241 19.518 14.8604 19.4715 15.3274C19.425 15.7944 19.5418 16.263 19.8022 16.6535C20.0625 17.0439 20.4502 17.3319 20.8992 17.4685C21.3482 17.6051 21.8306 17.5817 22.2643 17.4023C22.6979 17.223 23.056 16.8988 23.2773 16.485C23.4987 16.0712 23.5697 15.5935 23.4782 15.1332C23.3868 14.6729 23.1385 14.2586 22.7757 13.9609C22.413 13.6632 21.9582 13.5005 21.4889 13.5006Z" fill="#033F47"/>
<path d="M4.49929 21.2452L11.4869 14.2575C11.549 14.1956 11.6327 14.1603 11.7204 14.1591L15.6227 14.0951L21.8102 7.9076C24.0335 5.68713 28.3437 4.62963 30.3623 6.649C32.381 8.66838 31.3235 12.9771 29.1016 15.2004L22.9141 21.3879L22.8502 25.2903C22.8489 25.3779 22.8136 25.4616 22.7517 25.5237L15.7641 32.5113C15.7141 32.5608 15.6501 32.5935 15.5807 32.6048C15.5114 32.6162 15.4402 32.6057 15.3772 32.5748C15.3141 32.5439 15.2622 32.494 15.2287 32.4323C15.1952 32.3705 15.1818 32.2998 15.1903 32.2301L15.776 27.9122C14.99 27.6236 14.2377 27.2504 13.5323 26.7992L10.6334 29.6981C10.5801 29.7529 10.5099 29.788 10.4342 29.7977C10.3585 29.8074 10.2817 29.7911 10.2164 29.7515C10.1511 29.7119 10.1012 29.6514 10.0747 29.5797C10.0483 29.5081 10.0469 29.4296 10.0709 29.3571L11.2078 25.8049L7.66335 26.9363C7.5908 26.9605 7.51217 26.9593 7.44035 26.933C7.36853 26.9067 7.30779 26.8567 7.26807 26.7914C7.22836 26.726 7.21203 26.6491 7.22176 26.5732C7.23149 26.4973 7.26671 26.427 7.32164 26.3738L10.1841 23.5121C9.72725 22.8022 9.36312 22.0369 9.10054 21.2346L4.78687 21.8189C4.77197 21.8211 4.75693 21.8223 4.74187 21.8224C4.675 21.8226 4.60958 21.8029 4.55393 21.7658C4.49828 21.7288 4.45489 21.676 4.42928 21.6142C4.40366 21.5524 4.39698 21.4844 4.41007 21.4189C4.42316 21.3533 4.45544 21.2931 4.50281 21.2459L4.49929 21.2452ZM29.8821 7.12643C28.3852 5.62947 25.2021 6.19549 23.0976 7.70299C23.7171 9.83697 24.9602 11.5315 26.7989 12.7437C27.5717 13.2562 28.4165 13.6508 29.3055 13.9144C30.8152 11.8128 31.3826 8.62408 29.8821 7.12643ZM22.1794 25.1398L22.23 22.0721L16.4693 27.8321L15.9961 31.3231L22.1794 25.1398ZM11.6255 24.9612C11.6841 24.9431 11.7466 24.9414 11.8061 24.9562C11.8657 24.971 11.92 25.0017 11.9634 25.0451C12.0068 25.0885 12.0376 25.1429 12.0523 25.2024C12.0671 25.262 12.0654 25.3244 12.0473 25.3831L11.1389 28.2286L13.2483 26.1192L17.846 21.5208L18.1912 18.8152L15.4849 19.1597L8.7771 25.8682L11.6255 24.9612ZM10.6713 23.0241L15.0926 18.6021C15.1456 18.5493 15.2145 18.5155 15.2887 18.5058L18.5421 18.091C18.5932 18.0844 18.6452 18.0897 18.694 18.1063C18.7428 18.123 18.7871 18.1506 18.8236 18.1871C18.86 18.2235 18.8876 18.2679 18.9043 18.3166C18.921 18.3654 18.9262 18.4174 18.9197 18.4685L18.5048 21.7226C18.4955 21.7969 18.4616 21.866 18.4085 21.9188L14.0245 26.3028C14.6665 26.7006 15.3483 27.0305 16.0587 27.2871L22.3362 21.0096L22.3516 20.9942L28.6242 14.7216C28.7011 14.6452 28.7763 14.5653 28.8499 14.4818C28.0027 14.2027 27.196 13.8128 26.4509 13.3224C24.5849 12.1074 23.1997 10.281 22.533 8.1565C22.4487 8.2315 22.3671 8.30814 22.2884 8.38643L9.71999 20.9534C9.95061 21.6802 10.2701 22.3757 10.6713 23.0241ZM9.17929 20.5413L14.9393 14.7813L11.8716 14.832L5.68828 21.0146L9.17929 20.5413Z" fill="#033F47"/>
<path d="M19.1677 8.49685H19.1634L17.1546 8.47084L15.9952 10.1112C15.9637 10.1549 15.9223 10.1904 15.8743 10.2148C15.8264 10.2393 15.7733 10.252 15.7195 10.2519C15.7019 10.2518 15.6842 10.2504 15.6668 10.2476C15.6045 10.2377 15.5463 10.2106 15.4986 10.1693C15.4509 10.1281 15.4156 10.0744 15.3968 10.0142L14.8005 8.09607L12.8824 7.49982C12.8224 7.48092 12.7688 7.44563 12.7277 7.39793C12.6866 7.35024 12.6597 7.29202 12.6499 7.22984C12.6401 7.16765 12.6479 7.10397 12.6723 7.04596C12.6967 6.98795 12.7369 6.9379 12.7882 6.90146L14.4279 5.74412L14.4019 3.73529C14.4012 3.6723 14.4182 3.61038 14.4508 3.55651C14.4834 3.50263 14.5305 3.45895 14.5866 3.43037C14.6428 3.40179 14.7058 3.38945 14.7685 3.39475C14.8313 3.40006 14.8913 3.42278 14.9419 3.46037L16.5513 4.66201L18.454 4.01654C18.5136 3.99653 18.5777 3.99356 18.6389 4.00795C18.7002 4.02235 18.7562 4.05355 18.8007 4.09804C18.8452 4.14253 18.8764 4.19855 18.8908 4.25979C18.9052 4.32104 18.9022 4.38509 18.8822 4.44474L18.2374 6.3474L19.4384 7.95685C19.476 8.00704 19.4989 8.06673 19.5045 8.12922C19.5101 8.19171 19.4982 8.25452 19.4701 8.3106C19.442 8.36669 19.3988 8.41383 19.3453 8.44673C19.2919 8.47963 19.2304 8.49698 19.1677 8.49685ZM17.5898 6.60967C17.557 6.56578 17.5353 6.51454 17.5267 6.46038C17.5181 6.40622 17.5229 6.35078 17.5406 6.29888L18.023 4.87717L16.6005 5.35951C16.5486 5.37687 16.4932 5.38145 16.4391 5.37289C16.385 5.36432 16.3338 5.34285 16.2898 5.31029L15.086 4.4117L15.1057 5.91357C15.1068 5.96834 15.0946 6.02257 15.0701 6.07158C15.0456 6.12058 15.0096 6.16288 14.9651 6.19482L13.7388 7.06248L15.1732 7.50826C15.2255 7.5245 15.273 7.55321 15.3117 7.59192C15.3504 7.63063 15.3791 7.67817 15.3954 7.73045L15.8412 9.16412L16.706 7.93576C16.7374 7.89204 16.7788 7.85646 16.8268 7.832C16.8747 7.80754 16.9278 7.7949 16.9816 7.79513H16.9859L18.4877 7.81412L17.5898 6.60967Z" fill="#033F47"/>
<path d="M26.1383 26.7641L27.4145 25.8613L27.3948 24.2989C27.394 24.236 27.4108 24.174 27.4433 24.1201C27.4759 24.0662 27.5229 24.0225 27.579 23.9938C27.6351 23.9652 27.6981 23.9529 27.7608 23.9582C27.8236 23.9636 27.8836 23.9864 27.9341 24.024L29.187 24.9613L30.6636 24.4593C30.7233 24.4393 30.7873 24.4363 30.8486 24.4507C30.9098 24.4651 30.9658 24.4963 31.0103 24.5408C31.0548 24.5852 31.086 24.6413 31.1004 24.7025C31.1148 24.7638 31.1118 24.8278 31.0918 24.8875L30.5898 26.364L31.5278 27.6177C31.5652 27.6679 31.5879 27.7275 31.5934 27.7899C31.5989 27.8523 31.587 27.9149 31.5589 27.9709C31.5308 28.0269 31.4877 28.0739 31.4344 28.1068C31.3811 28.1396 31.3197 28.157 31.257 28.157H31.2528L29.6905 28.1373L28.7877 29.4128C28.7564 29.4566 28.715 29.4922 28.667 29.5167C28.619 29.5412 28.5659 29.5538 28.512 29.5534C28.4945 29.5544 28.4769 29.5544 28.4593 29.5534C28.3971 29.5434 28.3389 29.5162 28.2912 29.475C28.2435 29.4338 28.2082 29.3801 28.1893 29.32L27.726 27.8272L26.2332 27.3632C26.1731 27.3445 26.1194 27.3094 26.0782 27.2618C26.037 27.2142 26.01 27.156 26.0001 27.0938C25.9902 27.0317 25.9979 26.968 26.0224 26.91C26.0468 26.8519 26.0869 26.8019 26.1383 26.7655V26.7641ZM28.0958 27.2338C28.1481 27.25 28.1956 27.2787 28.2343 27.3175C28.273 27.3562 28.3017 27.4037 28.318 27.456L28.6316 28.4643L29.2412 27.6022C29.2726 27.5586 29.314 27.523 29.362 27.4985C29.4099 27.4741 29.463 27.4614 29.5168 27.4616H29.521L30.5757 27.475L29.9429 26.6312C29.91 26.5875 29.8884 26.5363 29.8798 26.4823C29.8712 26.4282 29.876 26.3729 29.8937 26.3211L30.234 25.3164L29.2342 25.6553C29.1822 25.6728 29.1268 25.6775 29.0727 25.6689C29.0186 25.6603 28.9673 25.6388 28.9234 25.6061L28.0796 24.9732L28.093 26.0279C28.094 26.0827 28.0817 26.1368 28.0572 26.1858C28.0327 26.2348 27.9967 26.2771 27.9524 26.3092L27.0903 26.9188L28.0958 27.2338Z" fill="#033F47"/>
</svg>
