<svg width="24" height="24" viewBox="0 0 24 24" fill="none" xmlns="http://www.w3.org/2000/svg">
<path d="M7.5 0.75C7.5 0.3375 7.1625 0 6.75 0C6.3375 0 6 0.3375 6 0.75V3H4.5C2.84531 3 1.5 4.34531 1.5 6V7.5V9V21C1.5 22.6547 2.84531 24 4.5 24H19.5C21.1547 24 22.5 22.6547 22.5 21V9V7.5V6C22.5 4.34531 21.1547 3 19.5 3H18V0.75C18 0.3375 17.6625 0 17.25 0C16.8375 0 16.5 0.3375 16.5 0.75V3H7.5V0.75ZM3 9H21V21C21 21.8297 20.3297 22.5 19.5 22.5H4.5C3.67031 22.5 3 21.8297 3 21V9ZM4.5 4.5H19.5C20.3297 4.5 21 5.17031 21 6V7.5H3V6C3 5.17031 3.67031 4.5 4.5 4.5ZM15.75 16.5C16.1625 16.5 16.5 16.1625 16.5 15.75C16.5 15.3375 16.1625 15 15.75 15H8.25C7.8375 15 7.5 15.3375 7.5 15.75C7.5 16.1625 7.8375 16.5 8.25 16.5H15.75Z" fill="#080F10"/>
</svg>
