<svg width="30" height="24" viewBox="0 0 30 24" fill="none" xmlns="http://www.w3.org/2000/svg">
<g clip-path="url(#clip0_1136_10024)">
<path d="M1.5 8.25C1.5 4.74375 4.95469 1.5 9.75 1.5C14.5453 1.5 18 4.74375 18 8.25C18 11.7563 14.5453 15 9.75 15C9.03281 15 8.31563 14.9109 7.57969 14.7656C7.41562 14.7328 7.24687 14.7562 7.10156 14.8312C6.81563 14.9766 6.53906 15.1125 6.25781 15.2391C4.92656 15.8438 3.43594 16.3219 1.96875 16.4578C2.66719 15.5672 3.225 14.5969 3.73125 13.65C3.88594 13.3641 3.83906 13.0125 3.61406 12.7781C2.34375 11.4469 1.5 9.98906 1.5 8.25ZM9.75 0C4.36406 0 0 3.69844 0 8.25C0 10.3219 0.928125 12.0047 2.15625 13.4062C1.60781 14.3906 1.03125 15.3094 0.304688 16.1016L0.3 16.1063C-0.0046875 16.4344 -0.084375 16.9078 0.09375 17.3156C0.271875 17.7328 0.675 18 1.125 18C3.14062 18 5.17969 17.3766 6.87656 16.6078C7.10625 16.5047 7.32656 16.3969 7.54688 16.2891C8.26406 16.4203 8.99531 16.5047 9.75 16.5047C15.1359 16.5047 19.5 12.8063 19.5 8.25469C19.5 3.70313 15.1359 0 9.75 0ZM20.9719 7.52344C25.3875 7.82812 28.5 10.9219 28.5 14.25C28.5 15.9891 27.6563 17.4469 26.3859 18.7781C26.1609 19.0125 26.1141 19.3641 26.2688 19.65C26.7797 20.5969 27.3328 21.5625 28.0312 22.4578C26.5641 22.3172 25.0688 21.8391 23.7422 21.2391C23.4609 21.1125 23.1844 20.9766 22.8984 20.8312C22.7484 20.7563 22.5797 20.7328 22.4203 20.7656C21.6891 20.9109 20.9719 21 20.25 21C17.0531 21 14.4562 19.5609 13.0734 17.5641C12.5578 17.7047 12.0281 17.8078 11.4891 17.8828C13.0781 20.6156 16.4016 22.5 20.25 22.5C21.0047 22.5 21.7359 22.4156 22.4531 22.2844C22.6688 22.3922 22.8937 22.5 23.1234 22.6031C24.8203 23.3766 26.8594 24 28.875 24C29.325 24 29.7281 23.7328 29.9062 23.3203C30.0844 22.9125 30 22.4344 29.7 22.1109L29.6953 22.1063C28.9688 21.3094 28.3922 20.3953 27.8438 19.4109C29.0719 18.0094 30 16.3266 30 14.2547C30 9.82969 25.8844 6.21563 20.7094 6.01406C20.8406 6.50156 20.9297 7.00781 20.9719 7.52813V7.52344Z" fill="#080F10"/>
</g>
<defs>
<clipPath id="clip0_1136_10024">
<rect width="30" height="24" fill="white"/>
</clipPath>
</defs>
</svg>
