<svg width="18" height="24" viewBox="0 0 18 24" fill="none" xmlns="http://www.w3.org/2000/svg">
<g clip-path="url(#clip0_1136_10042)">
<path d="M16.5 9C16.5 4.85625 13.1438 1.5 9 1.5C4.85625 1.5 1.5 4.85625 1.5 9C1.5 9.73125 1.75312 10.7344 2.27812 11.9719C2.78906 13.1859 3.50625 14.5031 4.32187 15.8203C5.92031 18.4125 7.80938 20.8922 9.00469 22.3828C10.1953 20.8922 12.0891 18.4125 13.6875 15.8203C14.4984 14.5031 15.2203 13.1812 15.7313 11.9719C16.2469 10.7344 16.5 9.73125 16.5 9ZM18 9C18 13.0969 12.5156 20.3906 10.1109 23.4C9.53438 24.1172 8.46562 24.1172 7.88906 23.4C5.48438 20.3906 0 13.0969 0 9C0 4.03125 4.03125 0 9 0C13.9688 0 18 4.03125 18 9ZM6.75 9C6.75 9.59674 6.98705 10.169 7.40901 10.591C7.83097 11.0129 8.40326 11.25 9 11.25C9.59674 11.25 10.169 11.0129 10.591 10.591C11.0129 10.169 11.25 9.59674 11.25 9C11.25 8.40326 11.0129 7.83097 10.591 7.40901C10.169 6.98705 9.59674 6.75 9 6.75C8.40326 6.75 7.83097 6.98705 7.40901 7.40901C6.98705 7.83097 6.75 8.40326 6.75 9ZM9 12.75C8.00544 12.75 7.05161 12.3549 6.34835 11.6517C5.64509 10.9484 5.25 9.99456 5.25 9C5.25 8.00544 5.64509 7.05161 6.34835 6.34835C7.05161 5.64509 8.00544 5.25 9 5.25C9.99456 5.25 10.9484 5.64509 11.6517 6.34835C12.3549 7.05161 12.75 8.00544 12.75 9C12.75 9.99456 12.3549 10.9484 11.6517 11.6517C10.9484 12.3549 9.99456 12.75 9 12.75Z" fill="#080F10"/>
</g>
<defs>
<clipPath id="clip0_1136_10042">
<rect width="18" height="24" fill="white"/>
</clipPath>
</defs>
</svg>
