<svg width="24" height="24" viewBox="0 0 24 24" fill="none" xmlns="http://www.w3.org/2000/svg">
<g clip-path="url(#clip0_1136_10044)">
<path d="M13.125 8.03636e-05C19.1297 8.03636e-05 24 4.87039 24 10.8751C24 11.4985 23.4984 12.0001 22.875 12.0001C22.2516 12.0001 21.75 11.4985 21.75 10.8751C21.75 6.11258 17.8875 2.25008 13.125 2.25008C12.5016 2.25008 12 1.74852 12 1.12508C12 0.501643 12.5016 8.03636e-05 13.125 8.03636e-05ZM13.5 9.00008C13.8978 9.00008 14.2794 9.15812 14.5607 9.43942C14.842 9.72073 15 10.1023 15 10.5001C15 10.8979 14.842 11.2794 14.5607 11.5607C14.2794 11.842 13.8978 12.0001 13.5 12.0001C13.1022 12.0001 12.7206 11.842 12.4393 11.5607C12.158 11.2794 12 10.8979 12 10.5001C12 10.1023 12.158 9.72073 12.4393 9.43942C12.7206 9.15812 13.1022 9.00008 13.5 9.00008ZM12 5.62508C12 5.00164 12.5016 4.50008 13.125 4.50008C16.6453 4.50008 19.5 7.35477 19.5 10.8751C19.5 11.4985 18.9984 12.0001 18.375 12.0001C17.7516 12.0001 17.25 11.4985 17.25 10.8751C17.25 8.59696 15.4031 6.75008 13.125 6.75008C12.5016 6.75008 12 6.24852 12 5.62508ZM5.50781 0.0657054C6.41719 -0.182732 7.36875 0.28133 7.72969 1.15321L9.60469 5.6532C9.92344 6.41727 9.70312 7.30321 9.06094 7.82352L6.75 9.71727C8.31094 13.0173 10.9828 15.6891 14.2828 17.2501L16.1719 14.9391C16.6969 14.297 17.5781 14.0766 18.3422 14.3954L22.8422 16.2704C23.7141 16.6313 24.1781 17.5829 23.9297 18.4923L22.8047 22.6173C22.5844 23.4329 21.8438 24.0001 21 24.0001C9.40313 24.0001 0 14.597 0 3.00008C0 2.15633 0.567188 1.41571 1.38281 1.19071L5.50781 0.0657054Z" fill="#080F10"/>
</g>
<defs>
<clipPath id="clip0_1136_10044">
<rect width="24" height="24" fill="white"/>
</clipPath>
</defs>
</svg>
