<svg width="24" height="24" viewBox="0 0 24 24" fill="none" xmlns="http://www.w3.org/2000/svg">
<g clip-path="url(#clip0_1136_10038)">
<path d="M17.6156 12.9004C16.8469 12.5723 15.9563 12.7879 15.4266 13.4348L13.8703 15.3379C11.7141 14.0864 9.91406 12.2864 8.6625 10.1301L10.5609 8.57857C11.2078 8.04889 11.4281 7.15826 11.0953 6.38951L8.84531 1.13951C8.49375 0.314512 7.60781 -0.144863 6.73125 0.0426368L1.48125 1.16764C0.61875 1.35045 0 2.11451 0 3.00045C0 14.0958 8.60156 23.1801 19.5 23.9489C19.7109 23.9629 19.9266 23.977 20.1422 23.9864C20.1422 23.9864 20.1422 23.9864 20.1469 23.9864C20.4328 23.9958 20.7141 24.0051 21.0047 24.0051C21.8906 24.0051 22.6547 23.3864 22.8375 22.5239L23.9625 17.2739C24.15 16.3973 23.6906 15.5114 22.8656 15.1598L17.6156 12.9098V12.9004ZM20.9859 22.5004C10.2234 22.4911 1.5 13.7676 1.5 3.00045C1.5 2.82232 1.62187 2.67232 1.79531 2.63482L7.04531 1.50982C7.21875 1.47232 7.39688 1.56607 7.46719 1.73014L9.71719 6.98014C9.78281 7.13482 9.74063 7.31295 9.60938 7.41607L7.70625 8.97232C7.13906 9.43639 6.98906 10.2473 7.35938 10.8848C8.74219 13.2708 10.7297 15.2583 13.1109 16.6364C13.7484 17.0067 14.5594 16.8567 15.0234 16.2895L16.5797 14.3864C16.6875 14.2551 16.8656 14.2129 17.0156 14.2786L22.2656 16.5286C22.4297 16.5989 22.5234 16.777 22.4859 16.9504L21.3609 22.2004C21.3234 22.3739 21.1687 22.4958 20.9953 22.4958C20.9906 22.4958 20.9859 22.4958 20.9813 22.4958L20.9859 22.5004Z" fill="#080F10"/>
</g>
<defs>
<clipPath id="clip0_1136_10038">
<rect width="24" height="24" fill="white"/>
</clipPath>
</defs>
</svg>
