<svg width="21" height="24" viewBox="0 0 21 24" fill="none" xmlns="http://www.w3.org/2000/svg">
<g clip-path="url(#clip0_1136_10022)">
<path d="M15 6C15 5.40905 14.8836 4.82389 14.6575 4.27792C14.4313 3.73196 14.0998 3.23588 13.682 2.81802C13.2641 2.40016 12.768 2.06869 12.2221 1.84254C11.6761 1.6164 11.0909 1.5 10.5 1.5C9.90905 1.5 9.32389 1.6164 8.77792 1.84254C8.23196 2.06869 7.73588 2.40016 7.31802 2.81802C6.90016 3.23588 6.56869 3.73196 6.34254 4.27792C6.1164 4.82389 6 5.40905 6 6C6 6.59095 6.1164 7.17611 6.34254 7.72208C6.56869 8.26804 6.90016 8.76412 7.31802 9.18198C7.73588 9.59984 8.23196 9.93131 8.77792 10.1575C9.32389 10.3836 9.90905 10.5 10.5 10.5C11.0909 10.5 11.6761 10.3836 12.2221 10.1575C12.768 9.93131 13.2641 9.59984 13.682 9.18198C14.0998 8.76412 14.4313 8.26804 14.6575 7.72208C14.8836 7.17611 15 6.59095 15 6ZM4.5 6C4.5 4.4087 5.13214 2.88258 6.25736 1.75736C7.38258 0.632141 8.9087 0 10.5 0C12.0913 0 13.6174 0.632141 14.7426 1.75736C15.8679 2.88258 16.5 4.4087 16.5 6C16.5 7.5913 15.8679 9.11742 14.7426 10.2426C13.6174 11.3679 12.0913 12 10.5 12C8.9087 12 7.38258 11.3679 6.25736 10.2426C5.13214 9.11742 4.5 7.5913 4.5 6ZM1.5 22.5H19.5C19.4438 18.7641 16.3969 15.75 12.6422 15.75H8.35781C4.60781 15.75 1.56094 18.7641 1.5 22.5ZM0 22.6078C0 17.9906 3.74063 14.25 8.35781 14.25H12.6422C17.2594 14.25 21 17.9906 21 22.6078C21 23.3766 20.3766 24 19.6078 24H1.39219C0.623438 24 0 23.3766 0 22.6078Z" fill="#080F10"/>
</g>
<defs>
<clipPath id="clip0_1136_10022">
<rect width="21" height="24" fill="white"/>
</clipPath>
</defs>
</svg>
