<svg width="60" height="60" viewBox="0 0 60 60" fill="none" xmlns="http://www.w3.org/2000/svg">
<path d="M45.0211 48.0599L35.0789 45.4689V39.647C36.3392 39.0793 37.4669 38.2542 38.3895 37.2248C39.75 35.7189 40.6348 33.8826 41.202 32.0322H44.4832C45.1038 32.0322 45.699 31.7861 46.1384 31.3478C46.5778 30.9095 46.8254 30.3149 46.827 29.6943V24.6552C46.8251 24.0379 46.5798 23.4462 46.1442 23.0087C45.7087 22.5711 45.1181 22.3231 44.5008 22.3185C44.4504 20.8959 44.1293 17.2091 42.2496 13.7931C43.3231 14.1468 44.481 14.1513 45.5571 13.8059C46.6333 13.4605 47.5723 12.7831 48.2394 11.8707C48.9066 10.9584 49.2674 9.85815 49.2703 8.72794C49.2731 7.59773 48.9178 6.49567 48.2553 5.57999C47.5928 4.66431 46.6572 3.9821 45.5828 3.63129C44.5084 3.28048 43.3505 3.27913 42.2753 3.62741C41.2 3.97569 40.2628 4.65571 39.5982 5.56983C38.9335 6.48395 38.5756 7.58517 38.5758 8.71539C38.5764 9.00512 38.6003 9.29433 38.6473 9.58023C36.3586 7.87046 33.4805 7.0021 30.0656 6.99625H30.0188C25.8598 7.00445 22.4977 8.28531 20.025 10.8154C16.1742 14.7494 15.6492 20.4623 15.5836 22.3185C14.9663 22.3231 14.3757 22.5711 13.9401 23.0087C13.5046 23.4462 13.2593 24.0379 13.2574 24.6552V29.6943C13.259 30.3122 13.5045 30.9046 13.9406 31.3424C14.3766 31.7803 14.968 32.0282 15.5859 32.0322H18.8285C19.4062 33.8814 20.2992 35.7177 21.6645 37.2236C22.5749 38.2343 23.6823 39.0482 24.9188 39.6154V45.4689L14.9766 48.0599C13.7568 48.3786 12.6772 49.0927 11.9064 50.0903C11.1356 51.0879 10.7173 52.3129 10.7168 53.5736V56.0416C10.7168 56.197 10.7785 56.346 10.8884 56.4559C10.9983 56.5658 11.1473 56.6275 11.3027 56.6275C11.4581 56.6275 11.6072 56.5658 11.7171 56.4559C11.8269 56.346 11.8887 56.197 11.8887 56.0416V53.5736C11.8887 52.572 12.221 51.5988 12.8334 50.8063C13.4459 50.0138 14.3039 49.4469 15.273 49.1943L25.3277 46.5728L29.5465 50.808C29.601 50.8623 29.6657 50.9054 29.7369 50.9348C29.8081 50.9642 29.8843 50.9792 29.9613 50.9791H30.034C30.111 50.9792 30.1873 50.9642 30.2584 50.9348C30.3296 50.9054 30.3943 50.8623 30.4488 50.808L34.6676 46.5728L44.7223 49.1943C45.6914 49.4469 46.5495 50.0138 47.1619 50.8063C47.7743 51.5988 48.1066 52.572 48.1066 53.5736V56.0416C48.1066 56.197 48.1684 56.346 48.2783 56.4559C48.3881 56.5658 48.5372 56.6275 48.6926 56.6275C48.848 56.6275 48.997 56.5658 49.1069 56.4559C49.2168 56.346 49.2785 56.197 49.2785 56.0416V53.5736C49.2783 52.3132 48.8604 51.0883 48.0901 50.0907C47.3198 49.0931 46.2405 48.3789 45.0211 48.0599ZM29.3789 25.0267C29.237 24.0628 28.7536 23.1819 28.0167 22.5446C27.2797 21.9072 26.3384 21.5559 25.3641 21.5544H22.8703C25.9277 20.0779 30.0504 17.8923 33.082 15.5486C33.9023 16.7205 36.0117 19.5974 38.2043 21.5568H38.1316H34.7473C33.7728 21.5582 32.8313 21.9095 32.0942 22.5468C31.3571 23.1842 30.8734 24.065 30.7312 25.0291L29.3789 25.0267ZM19.8234 23.6919C20.0944 23.3883 20.4264 23.1453 20.7978 22.9789C21.1692 22.8124 21.5715 22.7264 21.9785 22.7263H25.3641C26.1296 22.7263 26.8637 23.0304 27.405 23.5717C27.9463 24.113 28.2504 24.8471 28.2504 25.6127C28.2504 26.3782 27.9463 27.1123 27.405 27.6536C26.8637 28.1949 26.1296 28.499 25.3641 28.499H21.9785C21.4221 28.4987 20.8777 28.3376 20.4107 28.0351C19.9437 27.7326 19.5742 27.3016 19.3465 26.7939C19.1188 26.2862 19.0426 25.7236 19.1273 25.1737C19.2119 24.6237 19.4536 24.11 19.8234 23.6943V23.6919ZM34.7473 22.7263H38.1316C38.8583 22.7259 39.5582 22.9998 40.0916 23.4932C40.625 23.9866 40.9525 24.6632 41.0086 25.3877C41.0086 25.5869 40.998 25.7943 40.9887 26.0111C40.893 26.7008 40.5511 27.3327 40.026 27.7899C39.5008 28.2472 38.828 28.4991 38.1316 28.499H34.7473C33.9818 28.499 33.2476 28.1949 32.7063 27.6536C32.165 27.1123 31.8609 26.3782 31.8609 25.6127C31.8609 24.8471 32.165 24.113 32.7063 23.5717C33.2476 23.0304 33.9818 22.7263 34.7473 22.7263ZM45.6457 24.6599V29.699C45.6442 30.0088 45.52 30.3053 45.3004 30.5238C45.0808 30.7423 44.7836 30.865 44.4738 30.865H41.5266C41.9067 29.2421 42.125 27.5856 42.1781 25.9197C42.1875 25.8025 42.191 25.6853 42.1887 25.5681C42.2098 24.6951 42.1887 23.9791 42.1594 23.5009H44.4832C44.7908 23.5025 45.0854 23.6248 45.3035 23.8417C45.5217 24.0585 45.6458 24.3524 45.6492 24.6599H45.6457ZM43.9184 4.54468C44.7441 4.54491 45.5513 4.78999 46.2378 5.24893C46.9242 5.70787 47.4592 6.36006 47.7751 7.12303C48.0909 7.88601 48.1734 8.7255 48.0122 9.53537C47.851 10.3452 47.4532 11.0891 46.8692 11.6729C46.2852 12.2568 45.5412 12.6543 44.7313 12.8153C43.9214 12.9763 43.0819 12.8936 42.3191 12.5775C41.5562 12.2615 40.9041 11.7263 40.4454 11.0397C39.9866 10.3531 39.7418 9.54584 39.7418 8.72007C39.743 7.61287 40.1835 6.55139 40.9665 5.76858C41.7495 4.98578 42.8112 4.54561 43.9184 4.54468ZM20.8594 11.6334C23.107 9.33999 26.1938 8.17632 30.034 8.17164C33.8742 8.16695 36.9598 9.34351 39.2086 11.6345C42.7078 15.2052 43.2375 20.5724 43.3102 22.3232H41.6016C39.1008 21.7666 35.0578 16.4064 33.7031 14.3744C33.6578 14.3064 33.5987 14.2486 33.5296 14.2048C33.4606 14.161 33.3832 14.1322 33.3023 14.1201C33.2217 14.1078 33.1394 14.1126 33.0607 14.1339C32.982 14.1553 32.9087 14.1929 32.8453 14.2443C28.0137 18.1701 19.4039 21.8767 18.3539 22.322H16.7578C16.8328 20.5724 17.3613 15.2052 20.8594 11.6334ZM15.5859 30.8603C15.2774 30.8585 14.982 30.735 14.7639 30.5167C14.5458 30.2984 14.4226 30.0029 14.4211 29.6943V24.6552C14.4229 24.3469 14.5463 24.0517 14.7643 23.8336C14.9824 23.6155 15.2776 23.4922 15.5859 23.4904H17.8371C17.7715 24.7666 17.734 27.7337 18.5016 30.8556L15.5859 30.8603ZM22.5375 36.4455C21.2262 35.0005 20.3906 33.1853 19.8621 31.3584C19.8544 31.3101 19.841 31.2629 19.8223 31.2177C19.588 30.3735 19.406 29.5156 19.2773 28.649C20.0207 29.3121 20.9824 29.678 21.9785 29.6767H25.3641C26.3384 29.6755 27.2799 29.3242 28.0169 28.6869C28.7539 28.0495 29.2373 27.1685 29.3789 26.2044H30.7312C30.8732 27.1686 31.3568 28.0496 32.0939 28.687C32.8311 29.3243 33.7728 29.6756 34.7473 29.6767H38.1316C39.0812 29.6789 40.0013 29.347 40.7309 28.7392C40.6041 29.5873 40.4252 30.4268 40.1953 31.2529C38.5008 34.6033 33.2637 34.4275 33.2133 34.4252C33.0579 34.4185 32.9062 34.4738 32.7916 34.579C32.677 34.6841 32.6088 34.8305 32.6021 34.9859C32.5955 35.1413 32.6508 35.293 32.7559 35.4076C32.8611 35.5222 33.0075 35.5903 33.1629 35.597H33.4312C34.2891 35.597 36.9691 35.4798 39.0949 34.1134C38.6733 34.9564 38.143 35.7404 37.5176 36.4455C36.6581 37.4006 35.5991 38.1551 34.4156 38.6556C34.3166 38.668 34.2225 38.7059 34.1426 38.7658C32.8316 39.2565 31.4407 39.4985 30.041 39.4794C26.8898 39.4759 24.3668 38.4541 22.5375 36.4455ZM30 49.5998L26.093 45.6787V40.0701C28.6407 40.8327 31.355 40.8405 33.907 40.0923V45.6787L30 49.5998Z" fill="#033F47"/>
</svg>
