<svg width="60" height="60" viewBox="0 0 60 60" fill="none" xmlns="http://www.w3.org/2000/svg">
<path d="M57.0004 8.19639H34.4044V6.80439C34.4044 5.63638 33.9404 4.5162 33.1145 3.69029C32.2886 2.86438 31.1684 2.40039 30.0004 2.40039C28.8324 2.40039 27.7122 2.86438 26.8863 3.69029C26.0604 4.5162 25.5964 5.63638 25.5964 6.80439V8.19639H3.00039C2.84126 8.19639 2.68865 8.2596 2.57613 8.37213C2.4636 8.48465 2.40039 8.63726 2.40039 8.79639V11.7964C2.40039 11.9555 2.4636 12.1081 2.57613 12.2207C2.68865 12.3332 2.84126 12.3964 3.00039 12.3964H5.40039V44.1964H3.00039C2.84126 44.1964 2.68865 44.2596 2.57613 44.3721C2.4636 44.4846 2.40039 44.6373 2.40039 44.7964V47.7964C2.40039 47.9555 2.4636 48.1081 2.57613 48.2206C2.68865 48.3332 2.84126 48.3964 3.00039 48.3964H14.2384L11.4304 56.7964C11.4006 56.8866 11.3927 56.9826 11.4073 57.0765C11.4219 57.1704 11.4586 57.2595 11.5144 57.3364C11.5683 57.4161 11.6406 57.4818 11.7252 57.5277C11.8097 57.5737 11.9041 57.5986 12.0004 57.6004H18.0004C18.1262 57.6007 18.2489 57.5615 18.3512 57.4883C18.4535 57.4151 18.5301 57.3116 18.5704 57.1924L21.5104 48.3964H38.5684L41.5084 57.1924C41.5486 57.3116 41.6253 57.4151 41.7276 57.4883C41.8299 57.5615 41.9526 57.6007 42.0784 57.6004H48.0784C48.1736 57.5999 48.2673 57.5769 48.3518 57.533C48.4363 57.4892 48.5092 57.4259 48.5644 57.3484C48.6202 57.2715 48.6568 57.1824 48.6714 57.0885C48.686 56.9946 48.6781 56.8986 48.6484 56.8084L45.8404 48.4084H57.0004C57.1595 48.4084 57.3121 48.3452 57.4247 48.2327C57.5372 48.1201 57.6004 47.9675 57.6004 47.8084V44.8084C57.6004 44.6493 57.5372 44.4966 57.4247 44.3841C57.3121 44.2716 57.1595 44.2084 57.0004 44.2084H54.6004V12.4084H57.0004C57.1595 12.4084 57.3121 12.3452 57.4247 12.2327C57.5372 12.1201 57.6004 11.9675 57.6004 11.8084V8.80839C57.602 8.72859 57.5876 8.64928 57.5582 8.57509C57.5288 8.50091 57.4848 8.43334 57.429 8.37635C57.3731 8.31936 57.3064 8.27408 57.2328 8.24318C57.1592 8.21228 57.0802 8.19637 57.0004 8.19639ZM26.7964 6.80439C26.7964 5.95464 27.134 5.13969 27.7348 4.53882C28.3357 3.93795 29.1506 3.60039 30.0004 3.60039C30.8501 3.60039 31.6651 3.93795 32.266 4.53882C32.8668 5.13969 33.2044 5.95464 33.2044 6.80439V8.19639H26.7964V6.80439ZM17.5684 56.4004H12.8344L15.4984 48.3964H20.2444L17.5684 56.4004ZM47.2444 56.4004H42.5104L39.8344 48.3964H44.5804L47.2444 56.4004ZM56.4004 45.3964V47.1964H3.60039V45.3964H56.4004ZM6.60039 44.1964V12.3964H53.4004V44.1964H6.60039ZM56.4004 11.1964H3.60039V9.39639H56.4004V11.1964Z" fill="#033F47"/>
<path d="M17.1424 34.1279H12.0004C11.8413 34.1279 11.6886 34.1911 11.5761 34.3037C11.4636 34.4162 11.4004 34.5688 11.4004 34.7279V40.5119C11.4004 40.6711 11.4636 40.8237 11.5761 40.9362C11.6886 41.0487 11.8413 41.1119 12.0004 41.1119H17.1424C17.3015 41.1119 17.4541 41.0487 17.5667 40.9362C17.6792 40.8237 17.7424 40.6711 17.7424 40.5119V34.7279C17.7424 34.5688 17.6792 34.4162 17.5667 34.3037C17.4541 34.1911 17.3015 34.1279 17.1424 34.1279ZM16.5424 39.9119H12.6004V35.3279H16.5424V39.9119Z" fill="#033F47"/>
<path d="M27.4256 28.3379H22.2836C22.1245 28.3379 21.9719 28.4011 21.8593 28.5136C21.7468 28.6261 21.6836 28.7788 21.6836 28.9379V40.5119C21.6836 40.671 21.7468 40.8236 21.8593 40.9362C21.9719 41.0487 22.1245 41.1119 22.2836 41.1119H27.4256C27.5847 41.1119 27.7373 41.0487 27.8499 40.9362C27.9624 40.8236 28.0256 40.671 28.0256 40.5119V28.9379C28.0256 28.7788 27.9624 28.6261 27.8499 28.5136C27.7373 28.4011 27.5847 28.3379 27.4256 28.3379ZM26.8256 39.9119H22.8836V29.5379H26.8256V39.9119Z" fill="#033F47"/>
<path d="M37.7156 21.4922H32.5736C32.4145 21.4922 32.2619 21.5554 32.1494 21.6679C32.0368 21.7804 31.9736 21.9331 31.9736 22.0922V40.5122C31.9736 40.6713 32.0368 40.8239 32.1494 40.9364C32.2619 41.049 32.4145 41.1122 32.5736 41.1122H37.7156C37.8748 41.1122 38.0274 41.049 38.1399 40.9364C38.2524 40.8239 38.3156 40.6713 38.3156 40.5122V22.0922C38.3156 21.9331 38.2524 21.7804 38.1399 21.6679C38.0274 21.5554 37.8748 21.4922 37.7156 21.4922ZM37.1156 39.9122H33.1736V22.6922H37.1156V39.9122Z" fill="#033F47"/>
<path d="M47.9998 15.2275H42.8578C42.6987 15.2275 42.5461 15.2908 42.4335 15.4033C42.321 15.5158 42.2578 15.6684 42.2578 15.8275V40.5115C42.2578 40.6707 42.321 40.8233 42.4335 40.9358C42.5461 41.0483 42.6987 41.1115 42.8578 41.1115H47.9998C48.1589 41.1115 48.3116 41.0483 48.4241 40.9358C48.5366 40.8233 48.5998 40.6707 48.5998 40.5115V15.8275C48.5998 15.6684 48.5366 15.5158 48.4241 15.4033C48.3116 15.2908 48.1589 15.2275 47.9998 15.2275ZM47.3998 39.9115H43.4578V16.4275H47.3998V39.9115Z" fill="#033F47"/>
</svg>
