<svg width="60" height="60" viewBox="0 0 60 60" fill="none" xmlns="http://www.w3.org/2000/svg">
<path d="M57.6758 30.8206C57.6335 30.7599 57.5796 30.7081 57.5173 30.6683C57.455 30.6284 57.3854 30.6013 57.3125 30.5884C57.2397 30.5756 57.165 30.5773 57.0928 30.5934C57.0206 30.6095 56.9523 30.6397 56.8918 30.6823L53.8355 32.8128L39.6558 12.6155L42.7109 10.4757C42.8163 10.3846 42.8843 10.2576 42.9016 10.1193C42.9189 9.98109 42.8844 9.8413 42.8048 9.72698C42.7251 9.61265 42.6059 9.53188 42.4702 9.50026C42.3345 9.46864 42.1919 9.48841 42.0699 9.55576L38.5543 12.0167C38.4936 12.0592 38.442 12.1132 38.4022 12.1756C38.3624 12.238 38.3353 12.3077 38.3225 12.3806C38.3097 12.4535 38.3113 12.5283 38.3273 12.6005C38.3434 12.6728 38.3735 12.7412 38.416 12.8018L40.564 15.8604C39.6008 16.6339 38.4547 17.405 38.048 17.4425C37.5383 17.4765 34.4222 16.4663 31.8195 15.5101C31.4972 15.3929 28.6261 14.4226 27.2761 15.3226C26.8379 15.6155 26.0879 16.4522 25.2758 17.446C23.3191 17.0428 21.4039 16.4594 19.5547 15.7034L21.5879 12.8077C21.6303 12.7471 21.6605 12.6787 21.6765 12.6064C21.6926 12.5341 21.6942 12.4594 21.6814 12.3865C21.6685 12.3136 21.6414 12.2439 21.6017 12.1815C21.5619 12.119 21.5102 12.065 21.4496 12.0226L17.934 9.56161C17.8114 9.48147 17.6624 9.45218 17.5186 9.47995C17.3748 9.50772 17.2475 9.59037 17.1636 9.71039C17.0796 9.83041 17.0457 9.97839 17.069 10.123C17.0923 10.2676 17.1709 10.3974 17.2883 10.4851L20.3422 12.6249L6.16364 32.8128L3.10739 30.6765C3.04684 30.634 2.97851 30.6039 2.90631 30.5878C2.83411 30.5717 2.75945 30.57 2.68659 30.5828C2.61374 30.5956 2.54412 30.6226 2.4817 30.6623C2.41928 30.702 2.3653 30.7536 2.32282 30.8142C2.28035 30.8747 2.25022 30.943 2.23415 31.0152C2.21808 31.0874 2.2164 31.1621 2.22918 31.235C2.24197 31.3078 2.26898 31.3774 2.30867 31.4398C2.34837 31.5023 2.39996 31.5563 2.46052 31.5987L5.97614 34.0597C6.07047 34.1261 6.18304 34.1617 6.29841 34.1616C6.38847 34.1621 6.47734 34.1411 6.55764 34.1003C6.63795 34.0596 6.70736 34.0002 6.76013 33.9272L8.20271 31.8753C8.94099 32.3018 10.4949 33.2733 11.7347 34.5343L10.3332 36.1222C9.8379 36.6855 9.58638 37.4223 9.63384 38.1708C9.6813 38.9194 10.0239 39.6185 10.5863 40.1147L10.8207 40.3257C11.3352 40.7803 11.9985 41.0305 12.6851 41.0288C12.7461 41.0288 12.8023 41.0288 12.8691 41.0229C12.9359 41.0171 12.9863 41.0101 13.0519 41.003C12.9072 41.4266 12.8478 41.8747 12.8773 42.3214C12.9166 42.9387 13.1244 43.5334 13.4783 44.0407C13.8321 44.5481 14.3183 44.9486 14.884 45.1988C15.4497 45.4489 16.0732 45.5391 16.6866 45.4595C17.3 45.3799 17.8798 45.1335 18.3629 44.7472C18.4577 45.3642 18.7663 45.9283 19.2347 46.3409L19.366 46.4581C19.8507 46.8876 20.4761 47.1244 21.1238 47.1237C21.1812 47.1237 21.241 47.1237 21.2972 47.1179C21.558 47.1018 21.815 47.0477 22.0601 46.9573C22.0601 47.3008 22.1333 47.6403 22.2747 47.9533C22.4162 48.2663 22.6227 48.5456 22.8804 48.7726L22.9976 48.8745C23.4424 49.2665 24.0161 49.4806 24.609 49.4757H24.7672C25.0857 49.4561 25.3973 49.3735 25.6837 49.2327C25.9702 49.0919 26.2258 48.8957 26.4359 48.6554L26.9996 48.0144L28.4504 49.6632C28.6501 49.9075 28.8961 50.1101 29.1742 50.2593C29.4523 50.4085 29.757 50.5014 30.0711 50.5327C30.1563 50.5421 30.242 50.5468 30.3277 50.5468C30.8806 50.5474 31.4167 50.357 31.8453 50.0077L32.0468 49.8448C32.5401 49.4443 32.8551 48.8652 32.9234 48.2335C33.2522 48.3699 33.6045 48.4408 33.9605 48.4421C34.605 48.4427 35.2285 48.2128 35.7183 47.794L35.9468 47.5995C36.4684 47.155 36.8012 46.5286 36.8773 45.8476C37.2622 46.0287 37.6824 46.1228 38.1078 46.1229C38.7663 46.1237 39.405 45.8973 39.916 45.4819L40.2734 45.1913C40.574 44.9475 40.822 44.6453 41.0022 44.3028C41.1825 43.9604 41.2914 43.5849 41.3222 43.1991C41.5135 43.2758 41.7122 43.3324 41.9152 43.3679C42.0782 43.3959 42.2432 43.41 42.4086 43.4101C43.0004 43.41 43.5774 43.2257 44.0597 42.8827L45.1074 42.1409C45.7281 41.6993 46.1486 41.0298 46.2768 40.2789C46.4051 39.528 46.2307 38.7569 45.7918 38.1343L45.3511 37.5214L52.1914 32.439L53.2332 33.9237C53.2859 33.9967 53.3554 34.056 53.4357 34.0968C53.516 34.1376 53.6048 34.1586 53.6949 34.1581C53.8103 34.1584 53.9229 34.1228 54.0172 34.0561L57.5328 31.5952C57.653 31.5103 57.7353 31.3818 57.762 31.237C57.7887 31.0923 57.7578 30.9428 57.6758 30.8206ZM12.8035 39.8991C12.5803 39.9146 12.3562 39.8855 12.1443 39.8135C11.9324 39.7414 11.737 39.6279 11.5695 39.4796L11.3351 39.2698C10.9964 38.9712 10.7901 38.5503 10.7616 38.0996C10.733 37.6489 10.8845 37.2053 11.1828 36.8663L14.8156 32.7366C14.9636 32.5678 15.1435 32.4299 15.3449 32.3309C15.5464 32.2319 15.7654 32.1737 15.9894 32.1597C16.2135 32.1456 16.4381 32.176 16.6503 32.2491C16.8625 32.3221 17.0582 32.4365 17.2261 32.5854L17.4605 32.7952C17.7992 33.0939 18.0055 33.5148 18.0341 33.9654C18.0626 34.4161 17.9111 34.8597 17.6129 35.1987L13.9801 39.3284C13.8316 39.4968 13.6511 39.634 13.4491 39.732C13.2471 39.83 13.0277 39.8868 12.8035 39.8991ZM14.7652 43.8003C14.3182 43.4038 14.0462 42.8467 14.0084 42.2504C13.9707 41.6542 14.1703 41.0672 14.5636 40.6175L18.9664 35.6183C19.162 35.3964 19.3996 35.2154 19.6655 35.0856C19.9314 34.9559 20.2203 34.8801 20.5156 34.8624H20.6633C21.0969 34.8621 21.5215 34.9871 21.8858 35.2223C22.2502 35.4575 22.5388 35.793 22.7171 36.1883C22.8953 36.5837 22.9556 37.0221 22.8906 37.4509C22.8256 37.8797 22.6381 38.2806 22.3508 38.6054L17.9457 43.594C17.5506 44.0421 16.9941 44.3153 16.398 44.354C15.8019 44.3926 15.2148 44.1936 14.7652 43.8003ZM21.2363 45.9917C21.0338 46.0055 20.8306 45.979 20.6385 45.9136C20.4464 45.8482 20.2692 45.7453 20.1172 45.6108L19.9871 45.4936C19.6799 45.2223 19.4928 44.8403 19.4669 44.4312C19.4409 44.0222 19.5783 43.6195 19.8488 43.3116L22.3097 40.5202C22.5817 40.2139 22.9639 40.0276 23.3727 40.0022C23.7816 39.9767 24.1839 40.1141 24.4918 40.3843L24.6218 40.5015C24.9293 40.7724 25.1165 41.1543 25.1425 41.5633C25.1684 41.9722 25.0309 42.3747 24.7601 42.6823L22.2992 45.4749C22.1645 45.6271 22.0011 45.7511 21.8182 45.8398C21.6354 45.9285 21.4368 45.9801 21.234 45.9917H21.2363ZM25.5886 47.9101C25.3598 48.1682 25.0383 48.3253 24.694 48.3473C24.3498 48.3692 24.0109 48.2542 23.7511 48.0272L23.634 47.9253C23.375 47.697 23.2173 47.3753 23.1953 47.0308C23.1733 46.6863 23.2889 46.3471 23.5168 46.0878L25.2136 44.1601C25.4421 43.9014 25.7638 43.7438 26.1082 43.7219C26.4526 43.6999 26.7917 43.8153 27.0511 44.0429L27.1683 44.1448C27.427 44.3733 27.5846 44.695 27.6065 45.0394C27.6285 45.3838 27.5131 45.7228 27.2855 45.9823L25.5886 47.9101ZM45.159 40.0878C45.1215 40.314 45.0396 40.5305 44.9179 40.7248C44.7962 40.9192 44.6372 41.0874 44.45 41.2198L43.4011 41.9628C43.022 42.2281 42.5536 42.3331 42.0975 42.2553C41.6414 42.1774 41.2344 41.9228 40.9648 41.5468L40.9554 41.5327L40.9121 41.4765C40.8447 41.3625 40.7695 41.2532 40.6871 41.1495C40.6623 41.1186 40.6339 41.0907 40.6027 41.0663L36.6183 35.7858C36.5746 35.7244 36.519 35.6724 36.4548 35.6329C36.3906 35.5934 36.3192 35.5671 36.2447 35.5557C36.1702 35.5443 36.0941 35.5479 36.0211 35.5664C35.948 35.5848 35.8793 35.6178 35.8192 35.6632C35.7591 35.7087 35.7087 35.7658 35.671 35.831C35.6333 35.8963 35.6091 35.9685 35.5998 36.0433C35.5905 36.1181 35.5963 36.194 35.6169 36.2665C35.6375 36.3391 35.6723 36.4067 35.7195 36.4655L39.9828 42.1104C40.1824 42.4695 40.2493 42.8874 40.1717 43.2909C40.0942 43.6943 39.8771 44.0576 39.5586 44.3171L39.2011 44.6065C38.8408 44.8987 38.3792 45.0359 37.9178 44.988C37.4564 44.9401 37.0329 44.711 36.7402 44.3511L33.0277 39.7808C32.9313 39.672 32.7967 39.6046 32.6519 39.5928C32.507 39.5809 32.3632 39.6254 32.2504 39.717C32.1376 39.8087 32.0645 39.9403 32.0465 40.0845C32.0284 40.2287 32.0668 40.3743 32.1535 40.4909L35.3058 44.3745C35.3263 44.4233 35.354 44.4687 35.3879 44.5093C35.6592 44.8305 35.7928 45.2459 35.7594 45.6651C35.7261 46.0843 35.5285 46.4733 35.2097 46.7476L34.9754 46.9421C34.6545 47.2145 34.2387 47.3486 33.8192 47.315C33.3996 47.2814 33.0105 47.0828 32.7371 46.7628L30.7918 44.48L30.6687 44.3288C30.6555 44.3132 30.641 44.2987 30.6254 44.2854L30.132 43.7065C30.0352 43.5929 29.8972 43.5225 29.7484 43.5106C29.5996 43.4987 29.4522 43.5464 29.3386 43.6433C29.225 43.7401 29.1546 43.8781 29.1427 44.0268C29.1308 44.1756 29.1785 44.323 29.2754 44.4366L29.9269 45.2019L31.523 47.1519C31.7377 47.4184 31.8384 47.759 31.803 48.0995C31.7677 48.4399 31.5992 48.7526 31.3343 48.9694L31.1328 49.1335C30.8659 49.3478 30.5253 49.448 30.1849 49.4125C29.8446 49.3769 29.532 49.2084 29.3152 48.9436L29.3 48.9261L27.7484 47.1624L28.1304 46.7276C28.5557 46.2443 28.7717 45.612 28.7311 44.9695C28.6904 44.327 28.3964 43.7269 27.9136 43.3011L27.7965 43.1991C27.3282 42.7865 26.7184 42.5711 26.0949 42.5979C26.2856 42.0907 26.3177 41.5374 26.1869 41.0115C26.0561 40.4856 25.7686 40.0119 25.3625 39.653L25.2324 39.5358C24.7638 39.1222 24.1639 38.8877 23.539 38.8737C23.954 38.1947 24.1165 37.3912 23.9979 36.6043C23.8794 35.8173 23.4875 35.0973 22.891 34.5706C22.5586 34.2764 22.1709 34.0512 21.7507 33.9081C21.3304 33.7651 20.8859 33.707 20.4429 33.7374C19.995 33.7641 19.5568 33.8796 19.1539 34.0772C19.1539 34.0163 19.1539 33.9601 19.1539 33.8933C19.1317 33.5225 19.0363 33.1598 18.8732 32.8261C18.71 32.4924 18.4824 32.1944 18.2035 31.9491L17.9691 31.7382C17.4051 31.2418 16.667 30.9898 15.9172 31.0375C15.1674 31.0851 14.4673 31.4287 13.9707 31.9925L12.4789 33.687C11.1968 32.3979 9.66638 31.4218 8.84607 30.9495L18.8926 16.6409C20.7005 17.4069 22.5747 18.0059 24.4918 18.4304C23.1336 20.1694 21.8234 22.0058 21.6793 22.2214C21.1636 22.9948 21.3453 25.0011 22.148 25.5893C22.1797 25.6116 22.2136 25.6374 22.2488 25.6643C22.7937 26.0733 24.241 27.1585 26.1605 25.5671C26.8941 24.9589 27.5855 24.2686 28.1961 23.6593C28.7117 23.146 29.3468 22.512 29.6023 22.3808C30.2058 22.4768 33.4144 23.63 35.0738 25.3772C35.9269 26.2749 38.0363 29.1167 40.0086 31.8436C40.0243 31.9149 40.0542 31.9822 40.0965 32.0417L44.8683 38.7894C45.0006 38.9757 45.0945 39.1864 45.1448 39.4092C45.1951 39.6321 45.2007 39.8627 45.1613 40.0878H45.159ZM44.7535 36.5628C43.2851 34.4745 37.5207 26.3194 35.8871 24.6003C34.0238 22.6386 30.3172 21.2476 29.559 21.2476C29.0422 21.2476 28.5242 21.7421 27.4027 22.8612C26.8097 23.4472 26.1383 24.1233 25.4445 24.6987C24.2082 25.7229 23.4676 25.1675 22.9273 24.762C22.8863 24.7315 22.8488 24.7022 22.8101 24.6776C22.557 24.4784 22.3707 23.2034 22.6097 22.8448C23.1031 22.1054 26.8929 16.9292 27.8937 16.2612C28.5265 15.8393 30.3476 16.1897 31.4304 16.5706C32.7652 17.0604 37.1949 18.6507 38.1441 18.5628C38.9738 18.4854 40.4222 17.412 41.2051 16.7839L51.5445 31.5132L44.7535 36.5628Z" fill="#033F47"/>
</svg>
