<svg width="60" height="60" viewBox="0 0 60 60" fill="none" xmlns="http://www.w3.org/2000/svg">
<path d="M54.6338 46.0134V33.6161C54.6373 33.54 54.6253 33.464 54.5985 33.3926C54.5718 33.3213 54.5309 33.2561 54.4783 33.201C54.4256 33.1459 54.3624 33.1021 54.2923 33.0721C54.2223 33.0422 54.1469 33.0267 54.0707 33.0267C53.9945 33.0267 53.9191 33.0422 53.8491 33.0721C53.779 33.1021 53.7158 33.1459 53.6631 33.201C53.6105 33.2561 53.5696 33.3213 53.5429 33.3926C53.5161 33.464 53.5041 33.54 53.5076 33.6161V46.038C53.5076 46.0591 53.5639 48.1708 52.0932 49.6368C51.1146 50.6118 49.6709 51.0852 47.7971 51.0524L47.2451 49.1587C51.4404 48.9513 51.7416 46.0977 51.7439 46.0673C51.7463 46.0368 51.7439 46.0391 51.7439 46.0251L51.8846 35.163C51.8975 34.9509 51.9432 33.5106 50.9318 32.3727C50.6332 32.0395 50.2756 31.7642 49.8771 31.5606C50.8431 31.048 51.6116 30.2291 52.0621 29.2326C52.5125 28.236 52.6194 27.1182 52.366 26.0543C52.1126 24.9905 51.5132 24.0408 50.6619 23.3544C49.8106 22.6679 48.7555 22.2835 47.6621 22.2613C46.5687 22.2392 45.4989 22.5806 44.6205 23.2321C43.7421 23.8835 43.1047 24.8081 42.8085 25.8608C42.5122 26.9136 42.5738 28.0348 42.9835 29.0488C43.3933 30.0628 44.128 30.912 45.0725 31.4634C44.7123 31.6324 44.3821 31.8593 44.0951 32.1348C43.453 32.7782 43.0552 33.6252 42.9701 34.5302L39.035 21.0079C39.0008 20.891 38.9297 20.7884 38.8323 20.7153C38.7349 20.6422 38.6165 20.6026 38.4947 20.6024H36.424C36.3192 19.4226 35.8921 18.2942 35.1894 17.3407C34.4867 16.3871 33.5355 15.645 32.4396 15.1954C33.3874 14.6573 34.1306 13.8207 34.5531 12.8161C34.9757 11.8114 35.0539 10.6952 34.7756 9.64143C34.4974 8.58766 33.8782 7.65558 33.0148 6.99053C32.1513 6.32548 31.092 5.96484 30.0021 5.96484C28.9123 5.96484 27.853 6.32548 26.9895 6.99053C26.1261 7.65558 25.5069 8.58766 25.2287 9.64143C24.9504 10.6952 25.0286 11.8114 25.4512 12.8161C25.8737 13.8207 26.6168 14.6573 27.5646 15.1954C26.4688 15.645 25.5176 16.3871 24.8149 17.3407C24.1122 18.2942 23.6851 19.4226 23.5803 20.6024H21.5049C21.3831 20.6026 21.2647 20.6422 21.1673 20.7153C21.0699 20.7884 20.9988 20.891 20.9646 21.0079L17.0201 34.5337C16.9756 34.0766 16.7775 32.9915 15.8951 32.1384C15.6081 31.8628 15.278 31.636 14.9178 31.4669C15.8612 30.9156 16.595 30.0669 17.0041 29.0537C17.4131 28.0405 17.4744 26.9201 17.1782 25.8684C16.882 24.8166 16.2451 23.8929 15.3674 23.2421C14.4896 22.5914 13.4208 22.2503 12.3283 22.2724C11.2359 22.2945 10.1817 22.6786 9.33101 23.3643C8.48035 24.0501 7.88136 24.9989 7.62796 26.0617C7.37456 27.1246 7.48109 28.2415 7.93084 29.2373C8.38059 30.2331 9.14813 31.0515 10.1131 31.5641C9.71442 31.7674 9.35683 32.0428 9.0584 32.3763C8.04707 33.5141 8.09277 34.9544 8.10566 35.1665L8.24629 46.0286V46.0708C8.24629 46.0708 8.54863 48.9559 12.7451 49.1622L12.1932 51.0559C10.3264 51.0899 8.88379 50.6177 7.90527 49.6497C6.44512 48.1931 6.49082 46.0614 6.49199 46.0415V33.6196C6.49547 33.5435 6.48347 33.4675 6.45674 33.3961C6.43001 33.3248 6.3891 33.2596 6.33647 33.2045C6.28384 33.1494 6.22059 33.1056 6.15054 33.0756C6.08049 33.0457 6.00509 33.0302 5.92891 33.0302C5.85272 33.0302 5.77733 33.0457 5.70728 33.0756C5.63723 33.1056 5.57398 33.1494 5.52135 33.2045C5.46872 33.2596 5.4278 33.3248 5.40107 33.3961C5.37434 33.4675 5.36235 33.5435 5.36582 33.6196V46.0134C5.36582 46.2266 5.33887 48.6712 7.11074 50.4372C8.2498 51.5727 9.85059 52.1575 11.8732 52.1833L11.5451 53.3095C11.5208 53.3934 11.5163 53.4818 11.532 53.5678C11.5477 53.6538 11.5831 53.735 11.6355 53.8049C11.6878 53.8749 11.7557 53.9318 11.8338 53.9711C11.9118 54.0103 11.998 54.031 12.0854 54.0313H47.9143C48.0016 54.031 48.0878 54.0103 48.1658 53.9711C48.2439 53.9318 48.3118 53.8749 48.3641 53.8049C48.4165 53.735 48.4519 53.6538 48.4676 53.5678C48.4833 53.4818 48.4788 53.3934 48.4545 53.3095L48.1264 52.1833C50.149 52.1575 51.751 51.5727 52.8889 50.4372C54.6607 48.6712 54.6396 46.2266 54.6338 46.0134ZM43.7588 27.2059C43.7586 26.4522 43.9819 25.7152 44.4005 25.0884C44.8191 24.4615 45.4142 23.9729 46.1105 23.6843C46.8069 23.3956 47.5732 23.32 48.3125 23.4669C49.0518 23.6138 49.731 23.9767 50.264 24.5096C50.7971 25.0425 51.1602 25.7216 51.3074 26.4609C51.4545 27.2001 51.3791 27.9665 51.0907 28.6629C50.8023 29.3593 50.3138 29.9546 49.6871 30.3734C49.0604 30.7922 48.3235 31.0157 47.5697 31.0157C46.5595 31.0148 45.5909 30.6131 44.8764 29.8989C44.162 29.1847 43.76 28.2162 43.7588 27.2059ZM44.8967 32.9388C45.4908 32.3727 46.3814 32.1056 47.5498 32.1466C48.69 32.1864 49.542 32.5122 50.0846 33.1157C50.8369 33.9536 50.7631 35.0891 50.7619 35.0973C50.7607 35.1056 50.7619 35.1231 50.7619 35.1372L50.6248 45.9829C50.5932 46.195 50.2287 47.988 46.924 48.0466L45.2061 42.1532C45.4287 41.962 45.617 41.7341 45.7627 41.4794C46.5643 40.0731 47.5416 38.388 47.551 38.3716C47.5905 38.3075 47.6169 38.2362 47.6284 38.1619C47.64 38.0875 47.6365 38.0116 47.6183 37.9386C47.6 37.8656 47.5673 37.797 47.5221 37.7368C47.477 37.6766 47.4202 37.6261 47.3551 37.5882C47.2901 37.5503 47.2181 37.5259 47.1435 37.5163C47.0689 37.5066 46.9931 37.5121 46.9205 37.5322C46.848 37.5523 46.7803 37.5868 46.7213 37.6336C46.6623 37.6803 46.6133 37.7384 46.5771 37.8044C46.5678 37.822 45.5881 39.5059 44.783 40.9227C44.1584 42.022 42.2482 41.9013 42.2307 41.8989H42.2002L36.7873 41.7876C36.6865 41.7735 36.09 41.6434 36.1076 40.6497C36.1135 40.3087 36.1979 40.0638 36.3572 39.9126C36.518 39.7804 36.721 39.7105 36.9291 39.7157H36.9514C37.0088 39.7157 38.3904 39.7708 40.9756 39.5458C44.0307 39.2798 44.0963 34.9403 44.0975 34.7552C44.0928 34.7446 44.1139 33.6864 44.8967 32.9388ZM26.19 10.9075C26.1896 10.1539 26.4126 9.41709 26.831 8.79027C27.2493 8.16345 27.8441 7.67478 28.5402 7.38607C29.2363 7.09736 30.0024 7.02158 30.7416 7.16831C31.4808 7.31505 32.1598 7.67771 32.6929 8.21042C33.2259 8.74313 33.589 9.42196 33.7362 10.161C33.8834 10.9001 33.8081 11.6663 33.5198 12.3626C33.2315 13.0588 32.7432 13.654 32.1166 14.0727C31.4901 14.4914 30.7534 14.7149 29.9998 14.7149C28.9897 14.714 28.0212 14.3123 27.3069 13.598C26.5927 12.8838 26.191 11.9153 26.19 10.9052V10.9075ZM29.9998 15.8423C31.3138 15.8437 32.5811 16.3304 33.5582 17.2089C34.5354 18.0874 35.1537 19.2959 35.2943 20.6024H24.7053C24.8459 19.2959 25.4642 18.0874 26.4414 17.2089C27.4185 16.3304 28.6858 15.8437 29.9998 15.8423ZM8.62012 27.2095C8.61989 26.4556 8.84323 25.7187 9.26189 25.0918C9.68055 24.4649 10.2757 23.9762 10.9721 23.6877C11.6685 23.3991 12.4349 23.3235 13.1742 23.4705C13.9136 23.6175 14.5928 23.9805 15.1258 24.5135C15.6588 25.0466 16.0218 25.7257 16.1688 26.4651C16.3158 27.2045 16.2403 27.9708 15.9517 28.6672C15.6631 29.3636 15.1745 29.9588 14.5476 30.3775C13.9207 30.7961 13.1837 31.0195 12.4299 31.0192C11.4191 31.0183 10.4501 30.6161 9.73576 29.9011C9.02139 29.1861 8.62012 28.2167 8.62012 27.2059V27.2095ZM9.3748 45.9852L9.23418 35.1372C9.23418 35.1255 9.23418 35.1114 9.23418 35.0997C9.23418 35.088 9.15918 33.9536 9.91152 33.1157C10.4529 32.5122 11.3061 32.1864 12.4463 32.1466C13.6182 32.1044 14.5053 32.3727 15.0994 32.9388C15.8822 33.6864 15.9033 34.7446 15.9033 34.7552C15.9033 34.9403 15.9701 39.2798 19.0252 39.5458C21.6104 39.7708 22.992 39.7181 23.0494 39.7157H23.0646C23.2751 39.7092 23.4807 39.7791 23.6436 39.9126C23.8029 40.0602 23.8873 40.3087 23.8932 40.6497C23.9096 41.5989 23.3834 41.7606 23.2111 41.7876L17.8006 41.8989H17.7713C17.7561 41.8989 16.535 41.9774 15.7264 41.4477L15.7076 41.436C15.5062 41.3059 15.3384 41.13 15.2178 40.9227C14.4127 39.5059 13.433 37.822 13.4236 37.8044C13.3875 37.7384 13.3384 37.6803 13.2795 37.6336C13.2205 37.5868 13.1527 37.5523 13.0802 37.5322C13.0077 37.5121 12.9319 37.5066 12.8573 37.5163C12.7826 37.5259 12.7107 37.5503 12.6456 37.5882C12.5806 37.6261 12.5238 37.6766 12.4786 37.7368C12.4334 37.797 12.4007 37.8656 12.3825 37.9386C12.3642 38.0116 12.3608 38.0875 12.3724 38.1619C12.3839 38.2362 12.4102 38.3075 12.4498 38.3716C12.4592 38.388 13.4365 40.0673 14.2381 41.4794C14.3834 41.7344 14.5717 41.9624 14.7947 42.1532L13.0791 48.0466C9.75098 47.9915 9.40645 46.1716 9.3748 45.9852ZM12.8318 52.8993L15.799 42.7263C16.453 42.9529 17.1444 43.0524 17.8357 43.0192L23.2615 42.9079H23.3002C23.9072 42.8528 25.0475 42.3044 25.0182 40.6263C25.0064 39.9583 24.7967 39.4345 24.3936 39.0688C24.0071 38.7348 23.5068 38.5627 22.9967 38.5884C22.8936 38.5884 21.5389 38.6317 19.1213 38.4208C18.2775 38.3481 17.7736 37.7095 17.4736 36.9852L21.9268 21.7263H38.0717L42.5248 36.9852C42.2236 37.7095 41.7209 38.3481 40.8771 38.4208C38.4596 38.6317 37.1037 38.5919 37.0018 38.5884C36.4916 38.5626 35.9912 38.7347 35.6049 39.0688C35.2018 39.4345 34.992 39.9583 34.9803 40.6263C34.951 42.3044 36.0912 42.8528 36.6982 42.9079H36.7369L42.1627 43.0192C42.8541 43.0524 43.5454 42.9529 44.1994 42.7263L47.1666 52.8993H12.8318Z" fill="#033F47"/>
</svg>
