<svg width="60" height="60" viewBox="0 0 60 60" fill="none" xmlns="http://www.w3.org/2000/svg">
<path d="M54.5188 42.0637C53.8566 37.5157 52.7105 34.7664 51.1039 33.8536C52.3649 33.1643 53.3616 32.076 53.9374 30.7593C54.5133 29.4426 54.6358 27.9721 54.2858 26.5782C53.9358 25.1844 53.1331 23.9462 52.0035 23.0577C50.8739 22.1693 49.4814 21.6809 48.0444 21.6692C46.6073 21.6574 45.207 22.123 44.0631 22.9929C42.9191 23.8628 42.0963 25.0878 41.7236 26.4757C41.3509 27.8636 41.4494 29.336 42.0037 30.6619C42.558 31.9878 43.5367 33.0923 44.7863 33.802C43.093 34.7219 42.0805 37.7043 41.4781 40.743L36.9277 29.0243C36.886 28.9173 36.8131 28.8255 36.7184 28.7607C36.6237 28.6959 36.5116 28.6611 36.3969 28.661H23.6023C23.4876 28.6611 23.3756 28.6959 23.2809 28.7607C23.1862 28.8255 23.1132 28.9173 23.0715 29.0243L18.5211 40.743C17.9187 37.7043 16.9062 34.7219 15.2129 33.802C16.4618 33.0923 17.4399 31.9882 17.9938 30.6628C18.5476 29.3374 18.6459 27.8656 18.2732 26.4784C17.9005 25.0911 17.078 23.8667 15.9345 22.9973C14.791 22.1278 13.3913 21.6625 11.9549 21.6742C10.5185 21.6859 9.12657 22.174 7.99744 23.062C6.86831 23.95 6.06584 25.1877 5.71585 26.5809C5.36587 27.974 5.48817 29.444 6.06358 30.7602C6.63899 32.0764 7.63496 33.1644 8.89531 33.8536C7.28867 34.7664 6.14258 37.5157 5.48047 42.0637C4.89453 46.0891 4.89453 50.1684 4.89453 50.2094C4.89484 50.3603 4.95498 50.5048 5.06176 50.6114C5.16853 50.7179 5.31322 50.7778 5.46406 50.7778C5.61491 50.7775 5.75947 50.7173 5.86602 50.6105C5.97258 50.5038 6.03242 50.3591 6.03242 50.2082C6.03242 50.1684 6.03242 46.1723 6.61016 42.2278C7.32148 37.3422 8.58711 34.6516 10.175 34.6516H14.0973C15.5598 34.6516 16.8723 37.4969 17.6445 42.2993H14.9492V40.0364C14.9426 39.8899 14.8797 39.7517 14.7738 39.6504C14.6678 39.5492 14.5268 39.4927 14.3803 39.4927C14.2337 39.4927 14.0928 39.5492 13.9868 39.6504C13.8808 39.7517 13.818 39.8899 13.8113 40.0364V42.8688C13.8113 43.0198 13.8713 43.1647 13.9781 43.2715C14.0849 43.3783 14.2298 43.4383 14.3809 43.4383H22.8699C23.1296 43.4319 23.388 43.4776 23.6298 43.5726C23.8716 43.6676 24.092 43.81 24.2779 43.9914C24.4638 44.1728 24.6116 44.3896 24.7125 44.629C24.8134 44.8684 24.8653 45.1256 24.8653 45.3854C24.8653 45.6452 24.8134 45.9023 24.7125 46.1417C24.6116 46.3811 24.4638 46.5979 24.2779 46.7794C24.092 46.9608 23.8716 47.1032 23.6298 47.1982C23.388 47.2932 23.1296 47.3388 22.8699 47.3325H16.4645C16.3929 47.3184 16.3192 47.3184 16.2477 47.3325H12.7016C11.5297 47.3325 9.91484 46.3516 9.91484 45.3848V40.0364C9.91484 39.8853 9.85484 39.7405 9.74803 39.6336C9.64122 39.5268 9.49636 39.4668 9.34531 39.4668C9.19426 39.4668 9.0494 39.5268 8.94259 39.6336C8.83579 39.7405 8.77578 39.8853 8.77578 40.0364V45.3848C8.77578 47.2399 11.1383 48.4715 12.7016 48.4715H15.5141L13.0074 54.9309C12.9739 55.0172 12.9619 55.1104 12.9725 55.2024C12.9831 55.2943 13.016 55.3824 13.0683 55.4588C13.1206 55.5352 13.1907 55.5977 13.2726 55.6409C13.3545 55.6841 13.4457 55.7067 13.5383 55.7067H46.4598C46.5524 55.7068 46.6436 55.6842 46.7255 55.641C46.8074 55.5978 46.8775 55.5353 46.9297 55.4588C46.9819 55.3823 47.0146 55.2943 47.025 55.2023C47.0355 55.1103 47.0232 55.0171 46.9895 54.9309L44.4805 48.4715H48.1367C48.9551 48.4706 49.7397 48.1451 50.3183 47.5664C50.897 46.9877 51.2225 46.2032 51.2234 45.3848V40.0364C51.2234 39.8853 51.1634 39.7405 51.0566 39.6336C50.9498 39.5268 50.805 39.4668 50.6539 39.4668C50.5029 39.4668 50.358 39.5268 50.2512 39.6336C50.1444 39.7405 50.0844 39.8853 50.0844 40.0364V45.3848C50.0838 45.9012 49.8784 46.3962 49.5132 46.7613C49.1481 47.1264 48.6531 47.3318 48.1367 47.3325H43.7539C43.6816 47.3178 43.6071 47.3178 43.5348 47.3325H37.1305C36.8708 47.3388 36.6124 47.2932 36.3706 47.1982C36.1288 47.1032 35.9084 46.9608 35.7225 46.7794C35.5366 46.5979 35.3888 46.3811 35.2879 46.1417C35.187 45.9023 35.135 45.6452 35.135 45.3854C35.135 45.1256 35.187 44.8684 35.2879 44.629C35.3888 44.3896 35.5366 44.1728 35.7225 43.9914C35.9084 43.81 36.1288 43.6676 36.3706 43.5726C36.6124 43.4776 36.8708 43.4319 37.1305 43.4383H45.6195C45.7706 43.4383 45.9154 43.3783 46.0223 43.2715C46.1291 43.1647 46.1891 43.0198 46.1891 42.8688V40.0364C46.1824 39.8899 46.1196 39.7517 46.0136 39.6504C45.9076 39.5492 45.7667 39.4927 45.6201 39.4927C45.4735 39.4927 45.3326 39.5492 45.2266 39.6504C45.1207 39.7517 45.0578 39.8899 45.0512 40.0364V42.3051H42.3559C43.1281 37.5004 44.4406 34.6575 45.9031 34.6575H49.8254C51.4121 34.6575 52.6777 37.3446 53.3891 42.2231C53.9645 46.1676 53.968 50.1743 53.968 50.2141C53.968 50.3649 54.0278 50.5096 54.1344 50.6164C54.2409 50.7232 54.3855 50.7833 54.5363 50.7836C54.6872 50.7836 54.8319 50.7238 54.9386 50.6172C55.0454 50.5107 55.1055 50.3661 55.1059 50.2153C55.1082 50.1684 55.1047 46.0891 54.5188 42.0637ZM6.65938 28.1629C6.66007 27.105 6.97441 26.0711 7.56266 25.1918C8.1509 24.3125 8.98664 23.6274 9.96421 23.223C10.9418 22.8187 12.0173 22.7132 13.0548 22.9201C14.0923 23.1269 15.0452 23.6366 15.793 24.3849C16.5408 25.1332 17.0499 26.0864 17.2561 27.1241C17.4622 28.1617 17.356 29.2371 16.951 30.2145C16.546 31.1918 15.8604 32.0271 14.9807 32.6147C14.101 33.2024 13.0669 33.5161 12.009 33.5161C10.59 33.5145 9.22972 32.9499 8.22671 31.9462C7.2237 30.9426 6.66 29.5819 6.65938 28.1629ZM34.0438 45.3895C34.0447 46.2079 34.3702 46.9924 34.9489 47.5711C35.5275 48.1498 36.3121 48.4753 37.1305 48.4762H43.2582L45.6266 54.57H14.3727L16.741 48.4762H22.8687C23.2791 48.4842 23.6869 48.4103 24.0683 48.2588C24.4498 48.1073 24.7971 47.8812 25.0902 47.5939C25.3832 47.3065 25.616 46.9636 25.7749 46.5852C25.9338 46.2068 26.0156 45.8005 26.0156 45.3901C26.0156 44.9797 25.9338 44.5734 25.7749 44.195C25.616 43.8166 25.3832 43.4736 25.0902 43.1863C24.7971 42.8989 24.4498 42.6729 24.0683 42.5214C23.6869 42.3699 23.2791 42.2959 22.8687 42.3039H19.1387L23.9926 29.8106H36.0066L40.8605 42.3051H37.1305C36.3133 42.306 35.5298 42.6306 34.9513 43.2077C34.3729 43.7849 34.0465 44.5677 34.0438 45.3848V45.3895ZM42.6406 28.1629C42.6413 27.105 42.9557 26.0711 43.5439 25.1918C44.1322 24.3125 44.9679 23.6274 45.9455 23.223C46.923 22.8187 47.9986 22.7132 49.036 22.9201C50.0735 23.1269 51.0264 23.6366 51.7742 24.3849C52.522 25.1332 53.0312 26.0864 53.2373 27.1241C53.4434 28.1617 53.3373 29.2371 52.9323 30.2145C52.5273 31.1918 51.8416 32.0271 50.962 32.6147C50.0823 33.2024 49.0481 33.5161 47.9902 33.5161C46.5713 33.5145 45.211 32.9499 44.208 31.9462C43.205 30.9426 42.6412 29.5819 42.6406 28.1629Z" fill="#033F47"/>
<path d="M29.9992 7.71816C30.1502 7.71785 30.2949 7.65775 30.4016 7.55101C30.5083 7.44427 30.5684 7.29959 30.5687 7.14863V4.86348C30.5687 4.71243 30.5087 4.56757 30.4019 4.46076C30.2951 4.35395 30.1503 4.29395 29.9992 4.29395C29.8482 4.29395 29.7033 4.35395 29.5965 4.46076C29.4897 4.56757 29.4297 4.71243 29.4297 4.86348V7.14863C29.43 7.29959 29.4901 7.44427 29.5968 7.55101C29.7036 7.65775 29.8483 7.71785 29.9992 7.71816Z" fill="#033F47"/>
<path d="M36.5882 10.5611C36.663 10.5611 36.7369 10.5462 36.8059 10.5175C36.8749 10.4887 36.9375 10.4466 36.9902 10.3936L38.6062 8.77755C38.7134 8.67079 38.7738 8.52581 38.7742 8.3745C38.7745 8.22319 38.7147 8.07794 38.608 7.97072C38.5012 7.86349 38.3562 7.80307 38.2049 7.80274C38.0536 7.80241 37.9083 7.8622 37.8011 7.96896L36.1851 9.58849C36.1059 9.66836 36.052 9.76987 36.0303 9.88027C36.0085 9.99066 36.0199 10.105 36.063 10.209C36.1061 10.3129 36.1789 10.4018 36.2724 10.4644C36.3658 10.5271 36.4757 10.5607 36.5882 10.5611Z" fill="#033F47"/>
<path d="M23.0092 10.394C23.117 10.4955 23.2602 10.5511 23.4082 10.5489C23.5563 10.5467 23.6977 10.4869 23.8024 10.3821C23.9072 10.2774 23.967 10.136 23.9692 9.98794C23.9714 9.83986 23.9159 9.69673 23.8143 9.58893L22.1983 7.96939C22.0905 7.86785 21.9474 7.8123 21.7993 7.81452C21.6512 7.81673 21.5098 7.87654 21.4051 7.98127C21.3004 8.08599 21.2406 8.22738 21.2383 8.37546C21.2361 8.52354 21.2917 8.66667 21.3932 8.77447L23.0092 10.394Z" fill="#033F47"/>
<path d="M19.7936 15.8582H22.0788C22.1556 15.8617 22.2324 15.8496 22.3045 15.8225C22.3766 15.7955 22.4424 15.7542 22.4981 15.701C22.5537 15.6478 22.598 15.5839 22.6283 15.5132C22.6585 15.4424 22.6741 15.3662 22.6741 15.2893C22.6741 15.2123 22.6585 15.1361 22.6283 15.0654C22.598 14.9946 22.5537 14.9307 22.4981 14.8775C22.4424 14.8243 22.3766 14.783 22.3045 14.756C22.2324 14.729 22.1556 14.7168 22.0788 14.7203H19.7936C19.7167 14.7168 19.6399 14.729 19.5678 14.756C19.4958 14.783 19.4299 14.8243 19.3743 14.8775C19.3186 14.9307 19.2744 14.9946 19.2441 15.0654C19.2138 15.1361 19.1982 15.2123 19.1982 15.2893C19.1982 15.3662 19.2138 15.4424 19.2441 15.5132C19.2744 15.5839 19.3186 15.6478 19.3743 15.701C19.4299 15.7542 19.4958 15.7955 19.5678 15.8225C19.6399 15.8496 19.7167 15.8617 19.7936 15.8582Z" fill="#033F47"/>
<path d="M37.3506 15.2898C37.3509 15.4407 37.411 15.5853 37.5178 15.6918C37.6246 15.7984 37.7693 15.8582 37.9201 15.8582H40.2053C40.2822 15.8617 40.359 15.8496 40.431 15.8225C40.5031 15.7955 40.5689 15.7542 40.6246 15.701C40.6802 15.6478 40.7245 15.5839 40.7548 15.5132C40.785 15.4424 40.8006 15.3662 40.8006 15.2893C40.8006 15.2123 40.785 15.1361 40.7548 15.0654C40.7245 14.9946 40.6802 14.9307 40.6246 14.8775C40.5689 14.8243 40.5031 14.783 40.431 14.756C40.359 14.729 40.2822 14.7168 40.2053 14.7203H37.9201C37.7691 14.7203 37.6242 14.7803 37.5174 14.8871C37.4106 14.9939 37.3506 15.1388 37.3506 15.2898Z" fill="#033F47"/>
<path d="M27.574 20.7088V23.1698C27.574 24.1799 28.2959 25.0014 29.1842 25.0014H30.8201C31.7072 25.0014 32.4291 24.1811 32.4291 23.1698V20.7088C33.4566 20.1669 34.273 19.2965 34.7481 18.2365C35.2232 17.1765 35.3297 15.9879 35.0506 14.8603C34.7714 13.7327 34.1227 12.731 33.2079 12.0151C32.2931 11.2991 31.165 10.9102 30.0033 10.9102C28.8417 10.9102 27.7135 11.2991 26.7987 12.0151C25.8839 12.731 25.2352 13.7327 24.9561 14.8603C24.6769 15.9879 24.7834 17.1765 25.2585 18.2365C25.7337 19.2965 26.5501 20.1669 27.5775 20.7088H27.574ZM29.9998 12.051C30.9324 12.0506 31.8366 12.3713 32.5606 12.9592C33.2845 13.547 33.7839 14.3662 33.9749 15.279C34.1659 16.1918 34.0368 17.1425 33.6093 17.9713C33.1818 18.8001 32.482 19.4564 31.6275 19.8299C31.5265 19.8746 31.4406 19.9477 31.3803 20.0403C31.3199 20.1328 31.2878 20.2409 31.2877 20.3514V23.1639C31.2877 23.5331 31.0674 23.8565 30.8189 23.8565H29.1795C28.9287 23.8565 28.7107 23.5331 28.7107 23.1639V20.3514C28.7107 20.2408 28.6784 20.1325 28.6179 20.0399C28.5573 19.9473 28.4711 19.8743 28.3697 19.8299C27.5151 19.4563 26.8151 18.7998 26.3877 17.9708C25.9602 17.1417 25.8313 16.1908 26.0226 15.2778C26.2139 14.3649 26.7137 13.5457 27.4381 12.958C28.1624 12.3704 29.0671 12.0501 29.9998 12.051Z" fill="#033F47"/>
</svg>
