<svg width="60" height="60" viewBox="0 0 60 60" fill="none" xmlns="http://www.w3.org/2000/svg">
<path d="M18.8998 21.1917C19.6348 21.5172 20.4299 21.6849 21.2338 21.6837C22.2897 21.685 23.3263 21.4009 24.234 20.8612C25.1416 20.3216 25.8864 19.5466 26.3896 18.6183C26.8928 17.69 27.1356 16.6428 27.0924 15.5878C27.0491 14.5328 26.7214 13.509 26.1439 12.625C25.5664 11.741 24.7607 11.0296 23.8119 10.5661C22.8631 10.1025 21.8067 9.90417 20.7544 9.99196C19.7022 10.0797 18.6932 10.4504 17.8344 11.0647C16.9755 11.6791 16.2988 12.5142 15.8758 13.4817C15.5657 14.1848 15.3973 14.9422 15.3803 15.7104C15.3633 16.4787 15.498 17.2427 15.7767 17.9589C16.0553 18.675 16.4725 19.3292 17.0043 19.8839C17.5361 20.4386 18.172 20.883 18.8758 21.1917H18.8998ZM16.9738 13.9917C17.3374 13.1611 17.935 12.4544 18.6936 11.9579C19.4523 11.4613 20.3391 11.1965 21.2458 11.1957C21.9427 11.1878 22.6325 11.3365 23.2643 11.6308C23.8961 11.925 24.4538 12.3574 24.8962 12.8959C25.3386 13.4345 25.6544 14.0655 25.8204 14.7424C25.9864 15.4193 25.9984 16.1249 25.8553 16.807C25.7123 17.4891 25.4179 18.1304 24.9939 18.6836C24.57 19.2368 24.0272 19.6878 23.4057 20.0032C22.7842 20.3187 22.0998 20.4905 21.403 20.5062C20.7062 20.5219 20.0148 20.3809 19.3798 20.0937C18.2494 19.5976 17.3619 18.6734 16.912 17.5239C16.4621 16.3743 16.4865 15.0933 16.9798 13.9617L16.9738 13.9917Z" fill="#033F47"/>
<path d="M47.4837 36.0003L45.8997 35.7003C45.7558 35.2665 45.5814 34.8435 45.3777 34.4343L46.2657 33.0843C46.3435 32.97 46.3794 32.8323 46.3674 32.6946C46.3554 32.5568 46.2962 32.4274 46.1997 32.3283L43.4037 29.5263C43.3061 29.4281 43.1774 29.3666 43.0396 29.3524C42.9018 29.3382 42.7634 29.3721 42.6477 29.4483L41.2977 30.3363C40.8886 30.1327 40.4655 29.9582 40.0317 29.8143L39.7077 28.2303C39.6797 28.0928 39.6043 27.9694 39.4946 27.8817C39.385 27.794 39.2481 27.7475 39.1077 27.7503H35.7477C35.5813 26.1338 35.1769 24.5507 34.5477 23.0523C33.8229 21.3101 32.7394 19.7401 31.3677 18.4443L31.5837 18.4023C31.7213 18.3743 31.8447 18.2989 31.9324 18.1892C32.0201 18.0796 32.0665 17.9427 32.0637 17.8023V13.8423C32.0665 13.702 32.0201 13.5651 31.9324 13.4554C31.8447 13.3458 31.7213 13.2704 31.5837 13.2423L29.9997 12.9423C29.8558 12.5085 29.6814 12.0855 29.4777 11.6763L30.3657 10.3263C30.4367 10.2155 30.4693 10.0844 30.4585 9.95319C30.4477 9.82199 30.394 9.69801 30.3057 9.60034L27.5097 6.79834C27.4121 6.70006 27.2834 6.63859 27.1456 6.62437C27.0078 6.61016 26.8694 6.64406 26.7537 6.72034L25.4037 7.60834C24.9979 7.40024 24.5767 7.22372 24.1437 7.08034L23.8197 5.47234C23.7917 5.33477 23.7163 5.2114 23.6066 5.12369C23.497 5.03599 23.3601 4.98951 23.2197 4.99234H19.2597C19.1202 4.98923 18.9839 5.03486 18.8744 5.12138C18.7649 5.20789 18.689 5.32988 18.6597 5.46634L18.3357 7.05034C17.9019 7.19424 17.4789 7.36868 17.0697 7.57234L15.7197 6.68434C15.6047 6.6073 15.4667 6.57239 15.3289 6.58551C15.1911 6.59863 15.0621 6.65898 14.9637 6.75634L12.1617 9.55834C12.0649 9.65558 12.0044 9.78307 11.9902 9.91955C11.976 10.056 12.009 10.1932 12.0837 10.3083L12.9717 11.6583C12.7691 12.068 12.5947 12.4909 12.4497 12.9243L10.8657 13.2483C10.7281 13.2764 10.6048 13.3518 10.5171 13.4614C10.4294 13.5711 10.3829 13.708 10.3857 13.8483V17.8083C10.3829 17.9487 10.4294 18.0856 10.5171 18.1953C10.6048 18.3049 10.7281 18.3803 10.8657 18.4083L11.8077 18.6003C10.2251 19.8612 9.05506 21.5661 8.44771 23.4963L6.28771 29.7423L2.68771 34.3383C2.54623 34.5204 2.45421 34.736 2.42057 34.9641C2.38693 35.1922 2.41281 35.4252 2.49571 35.6403C2.57779 35.8565 2.71521 36.0473 2.89422 36.1937C3.07323 36.3401 3.28754 36.4368 3.51571 36.4743L6.22771 36.9243V46.0023C6.22823 46.1012 6.25314 46.1983 6.30024 46.2852C6.34734 46.3721 6.41518 46.446 6.49771 46.5003C6.59371 46.5663 8.81371 48.0063 12.6177 46.8423V55.5843C12.6177 55.7435 12.6809 55.8961 12.7935 56.0086C12.906 56.1211 13.0586 56.1843 13.2177 56.1843H27.7437C27.9028 56.1843 28.0555 56.1211 28.168 56.0086C28.2805 55.8961 28.3437 55.7435 28.3437 55.5843L28.5657 46.9263C28.8237 46.6503 29.0757 46.3743 29.3277 46.0923L30.8577 47.6223C30.955 47.7191 31.0825 47.7797 31.2189 47.7939C31.3554 47.8081 31.4926 47.775 31.6077 47.7003L32.9637 46.8003C33.369 47.0095 33.7904 47.186 34.2237 47.3283L34.5477 48.9123C34.5758 49.0499 34.6512 49.1733 34.7608 49.261C34.8704 49.3487 35.0073 49.3952 35.1477 49.3923H39.1077C39.2481 49.3952 39.385 49.3487 39.4946 49.261C39.6043 49.1733 39.6797 49.0499 39.7077 48.9123L40.0317 47.3343C40.4655 47.1904 40.8886 47.016 41.2977 46.8123L42.5997 47.7243C42.7154 47.8006 42.8538 47.8345 42.9916 47.8203C43.1294 47.8061 43.2581 47.7446 43.3557 47.6463L46.1997 44.8503C46.2965 44.7531 46.3571 44.6256 46.3713 44.4891C46.3854 44.3526 46.3524 44.2154 46.2777 44.1003L45.3897 42.7443C45.5934 42.3372 45.7678 41.9162 45.9117 41.4843L47.4957 41.1603C47.6333 41.1323 47.7567 41.0569 47.8444 40.9473C47.9321 40.8376 47.9785 40.7007 47.9757 40.5603V36.6003C47.978 36.4583 47.9299 36.32 47.8398 36.2101C47.7497 36.1002 47.6235 36.0259 47.4837 36.0003ZM11.6037 17.2803V14.2803L13.0557 13.9803C13.1628 13.9585 13.2618 13.9078 13.3422 13.8338C13.4225 13.7598 13.4811 13.6652 13.5117 13.5603C13.6789 12.9728 13.9145 12.4069 14.2137 11.8743C14.2664 11.7831 14.2941 11.6797 14.2941 11.5743C14.2941 11.469 14.2664 11.3655 14.2137 11.2743L13.3797 10.0623L15.4917 7.95634L16.7277 8.77234C16.8189 8.825 16.9224 8.85272 17.0277 8.85272C17.133 8.85272 17.2365 8.825 17.3277 8.77234C17.8594 8.47271 18.4255 8.23899 19.0137 8.07634C19.1186 8.04577 19.2132 7.98714 19.2872 7.90678C19.3612 7.82642 19.4119 7.72738 19.4337 7.62034L19.7337 6.16834H22.7337L23.0337 7.62034C23.0556 7.72738 23.1062 7.82642 23.1803 7.90678C23.2543 7.98714 23.3488 8.04577 23.4537 8.07634C24.0408 8.24479 24.6065 8.48035 25.1397 8.77834C25.2309 8.831 25.3344 8.85872 25.4397 8.85872C25.545 8.85872 25.6485 8.831 25.7397 8.77834L26.9997 7.96234L29.1057 10.0743L28.2897 11.3103C28.2371 11.4015 28.2093 11.505 28.2093 11.6103C28.2093 11.7157 28.2371 11.8191 28.2897 11.9103C28.5833 12.4449 28.8167 13.0104 28.9857 13.5963C29.0153 13.7023 29.0735 13.7981 29.154 13.8733C29.2344 13.9484 29.3339 14 29.4417 14.0223L30.8937 14.3223V17.3223L29.3997 17.6223C29.2927 17.6442 29.1936 17.6949 29.1133 17.7689C29.0329 17.8429 28.9743 17.9374 28.9437 18.0423C28.7748 18.6293 28.5393 19.195 28.2417 19.7283C28.1891 19.8195 28.1613 19.923 28.1613 20.0283C28.1613 20.1337 28.1891 20.2371 28.2417 20.3283L29.0997 21.6003L26.9997 23.7003L25.7577 22.8783C25.6665 22.8257 25.563 22.798 25.4577 22.798C25.3524 22.798 25.2489 22.8257 25.1577 22.8783C24.6251 23.1759 24.0591 23.4095 23.4717 23.5743C23.3657 23.604 23.2699 23.6622 23.1948 23.7426C23.1196 23.823 23.0681 23.9226 23.0457 24.0303L22.7457 25.4823H19.7457L19.4457 24.0003C19.4234 23.8926 19.3718 23.793 19.2967 23.7126C19.2215 23.6322 19.1257 23.574 19.0197 23.5443C18.4326 23.3759 17.8669 23.1403 17.3337 22.8423C17.2425 22.7897 17.139 22.7619 17.0337 22.7619C16.9284 22.7619 16.8249 22.7897 16.7337 22.8423L15.4917 23.6583L13.3677 21.6003L14.1837 20.3643C14.241 20.2758 14.2739 20.1737 14.2792 20.0684C14.2845 19.963 14.2619 19.8582 14.2137 19.7643C13.9145 19.2318 13.6789 18.6659 13.5117 18.0783C13.4821 17.9723 13.4239 17.8765 13.3435 17.8014C13.263 17.7263 13.1635 17.6747 13.0557 17.6523L11.6037 17.2803ZM27.9837 44.0583C27.909 44.1734 27.876 44.3106 27.8902 44.4471C27.9044 44.5836 27.9649 44.7111 28.0617 44.8083L28.4757 45.2283C28.1697 45.5703 27.8757 45.9123 27.5337 46.2543C27.4315 46.3635 27.3737 46.5068 27.3717 46.6563L27.1617 54.9603H13.7997V45.9603C13.7999 45.862 13.7759 45.7652 13.7298 45.6784C13.6838 45.5916 13.6171 45.5174 13.5357 45.4623C13.4559 45.4076 13.3639 45.373 13.2678 45.3615C13.1717 45.3501 13.0742 45.362 12.9837 45.3963C10.0137 46.5423 8.08771 45.9123 7.40971 45.6003V36.4203C7.41179 36.2774 7.36277 36.1384 7.27147 36.0284C7.18017 35.9184 7.05259 35.8446 6.91171 35.8203L3.70171 35.2863C3.67928 35.2837 3.65798 35.275 3.64003 35.2613C3.62209 35.2476 3.60816 35.2293 3.59971 35.2083C3.58751 35.1885 3.58105 35.1656 3.58105 35.1423C3.58105 35.119 3.58751 35.0962 3.59971 35.0763L7.26571 30.4023C7.30716 30.3501 7.33961 30.2913 7.36171 30.2283L9.59971 23.8383V23.7723C10.1466 22.014 11.2394 20.4756 12.7197 19.3803C12.8037 19.5843 12.8937 19.7843 12.9897 19.9803L12.1017 21.3303C12.0262 21.4448 11.9922 21.5816 12.0053 21.718C12.0184 21.8545 12.0778 21.9824 12.1737 22.0803L14.9997 24.8823C15.0974 24.9806 15.226 25.0421 15.3638 25.0563C15.5016 25.0705 15.6401 25.0366 15.7557 24.9603L17.1057 24.0723C17.5144 24.277 17.9375 24.4515 18.3717 24.5943L18.6957 26.1783C18.7238 26.3159 18.7992 26.4393 18.9088 26.527C19.0184 26.6147 19.1553 26.6612 19.2957 26.6583H23.2617C23.4012 26.6614 23.5375 26.6158 23.647 26.5293C23.7565 26.4428 23.8324 26.3208 23.8617 26.1843L24.1257 24.6003C24.5591 24.4554 24.9821 24.281 25.3917 24.0783L26.7357 24.9663C26.8507 25.0434 26.9888 25.0783 27.1266 25.0652C27.2643 25.052 27.3933 24.9917 27.4917 24.8943L30.2937 22.0983C30.392 22.0007 30.4535 21.8721 30.4677 21.7343C30.4819 21.5965 30.448 21.458 30.3717 21.3423L29.4837 19.9923C29.6845 19.6177 29.857 19.2287 29.9997 18.8283C31.5332 20.0787 32.7313 21.6912 33.4857 23.5203C34.1028 24.9982 34.4874 26.5628 34.6257 28.1583C34.6235 28.1803 34.6235 28.2024 34.6257 28.2243L34.3017 29.8083C33.8679 29.9522 33.4449 30.1267 33.0357 30.3303L31.6857 29.4423C31.5713 29.3669 31.4345 29.3328 31.298 29.3459C31.1615 29.359 31.0337 29.4185 30.9357 29.5143L28.1337 32.3103C28.0354 32.408 27.974 32.5366 27.9598 32.6744C27.9455 32.8122 27.9794 32.9507 28.0557 33.0663L28.9437 34.4163C28.7356 34.8242 28.5591 35.2475 28.4157 35.6823L26.7717 36.0003C26.6341 36.0284 26.5108 36.1038 26.4231 36.2134C26.3354 36.323 26.2889 36.46 26.2917 36.6003V40.5543C26.2889 40.6947 26.3354 40.8316 26.4231 40.9412C26.5108 41.0509 26.6341 41.1263 26.7717 41.1543L28.3497 41.4783C28.4936 41.9121 28.6681 42.3352 28.8717 42.7443L27.9837 44.0583ZM46.7577 40.0803L45.3057 40.3803C45.1987 40.4022 45.0996 40.4529 45.0193 40.5269C44.9389 40.6009 44.8803 40.6954 44.8497 40.8003C44.6813 41.3874 44.4457 41.9532 44.1477 42.4863C44.0951 42.5775 44.0673 42.681 44.0673 42.7863C44.0673 42.8917 44.0951 42.9951 44.1477 43.0863L44.9997 44.3463L42.8877 46.4523L41.6397 45.6363C41.5485 45.5837 41.445 45.5559 41.3397 45.5559C41.2344 45.5559 41.1309 45.5837 41.0397 45.6363C40.5076 45.9349 39.9415 46.1686 39.3537 46.3323C39.2477 46.362 39.1519 46.4202 39.0768 46.5006C39.0016 46.581 38.9501 46.6806 38.9277 46.7883L38.6277 48.2403H35.6277L35.3277 46.7883C35.3059 46.6813 35.2552 46.5822 35.1812 46.5019C35.1072 46.4215 35.0126 46.3629 34.9077 46.3323C34.3199 46.1528 33.7543 45.9072 33.2217 45.6003C33.1305 45.5477 33.027 45.5199 32.9217 45.5199C32.8164 45.5199 32.7129 45.5477 32.6217 45.6003L31.3617 46.4403L29.2557 44.3343L30.0717 43.0983C30.1244 43.0071 30.1521 42.9037 30.1521 42.7983C30.1521 42.693 30.1244 42.5895 30.0717 42.4983C29.7806 41.9613 29.5549 41.3912 29.3997 40.8003C29.3701 40.6943 29.3119 40.5985 29.2315 40.5234C29.151 40.4483 29.0515 40.3967 28.9437 40.3743L27.4917 40.0743V37.0743L28.9437 36.7803C29.0508 36.7585 29.1498 36.7078 29.2302 36.6338C29.3105 36.5598 29.3691 36.4652 29.3997 36.3603C29.5708 35.7742 29.8062 35.2087 30.1017 34.6743C30.1544 34.5831 30.1821 34.4797 30.1821 34.3743C30.1821 34.269 30.1544 34.1655 30.1017 34.0743L29.2917 32.8323L31.3977 30.7263L32.6337 31.5483C32.7249 31.601 32.8284 31.6287 32.9337 31.6287C33.039 31.6287 33.1425 31.601 33.2337 31.5483C33.7669 31.2503 34.3326 31.0148 34.9197 30.8463C35.0257 30.8167 35.1215 30.7585 35.1967 30.6781C35.2718 30.5976 35.3234 30.4981 35.3457 30.3903L35.6457 28.9443H38.6457L38.9397 30.3963C38.9621 30.5041 39.0136 30.6036 39.0888 30.6841C39.1639 30.7645 39.2597 30.8227 39.3657 30.8523C39.9524 31.0219 40.518 31.2574 41.0517 31.5543C41.1429 31.607 41.2464 31.6347 41.3517 31.6347C41.457 31.6347 41.5605 31.607 41.6517 31.5543L42.8937 30.7383L44.9997 32.8323L44.1777 34.0683C44.1251 34.1595 44.0973 34.263 44.0973 34.3683C44.0973 34.4737 44.1251 34.5771 44.1777 34.6683C44.4757 35.2015 44.7113 35.7672 44.8797 36.3543C44.9103 36.4592 44.9689 36.5538 45.0493 36.6278C45.1296 36.7018 45.2287 36.7525 45.3357 36.7743L46.7817 37.0743L46.7577 40.0803Z" fill="#033F47"/>
<path d="M39.468 33.2157C38.4078 32.7481 37.2327 32.6056 36.0915 32.8062C34.9502 33.0067 33.8941 33.5413 33.0569 34.3423C32.2196 35.1433 31.6388 36.1747 31.3879 37.306C31.1371 38.4372 31.2274 39.6174 31.6476 40.6973C32.0678 41.7771 32.7989 42.7081 33.7483 43.3723C34.6978 44.0364 35.823 44.404 36.9814 44.4285C38.1399 44.4529 39.2796 44.1332 40.2562 43.5096C41.2329 42.8861 42.0026 41.9868 42.468 40.9257C43.0909 39.5053 43.1249 37.8957 42.5624 36.4503C42 35.0048 40.8871 33.8415 39.468 33.2157ZM41.394 40.4157C40.8707 41.4964 39.9502 42.3332 38.8247 42.7513C37.6991 43.1694 36.4555 43.1366 35.3536 42.6596C34.2517 42.1826 33.3767 41.2983 32.9113 40.1915C32.4459 39.0846 32.4261 37.8408 32.856 36.7197C33.096 36.1602 33.4443 35.6537 33.8809 35.2294C34.3176 34.8052 34.8338 34.4715 35.4 34.2477C35.9428 34.0342 36.5207 33.9243 37.104 33.9237C37.7444 33.9221 38.3781 34.055 38.964 34.3137C40.0997 34.8043 40.9943 35.7257 41.451 36.8755C41.9078 38.0253 41.8894 39.3094 41.4 40.4457L41.394 40.4157Z" fill="#033F47"/>
<path d="M57.3177 16.1216L55.9497 15.2636C55.9667 14.807 55.9507 14.3498 55.9017 13.8956L57.2097 12.9416C57.3209 12.8601 57.4007 12.7429 57.4357 12.6096C57.4707 12.4763 57.4587 12.3351 57.4017 12.2096L55.7577 8.60955C55.7005 8.48421 55.6019 8.38239 55.4784 8.3212C55.3549 8.26001 55.2142 8.24319 55.0797 8.27355L53.5017 8.63355C53.1928 8.29757 52.8578 7.9866 52.4997 7.70355L52.7517 6.10755C52.7728 5.971 52.7461 5.83134 52.6762 5.71219C52.6062 5.59303 52.4973 5.50168 52.3677 5.45355L48.6597 4.06155C48.5305 4.01245 48.3882 4.00952 48.257 4.05325C48.1258 4.09698 48.0137 4.1847 47.9397 4.30155L47.0817 5.66955C46.6252 5.65267 46.168 5.66871 45.7137 5.71755L44.7657 4.41555C44.6875 4.29882 44.5708 4.21326 44.4359 4.17379C44.301 4.13432 44.1566 4.14343 44.0277 4.19955L40.4277 5.83755C40.3012 5.895 40.1985 5.99461 40.1372 6.11936C40.0759 6.24411 40.0599 6.38627 40.0917 6.52155L40.4517 8.09355C40.1168 8.40538 39.8041 8.74019 39.5157 9.09555L37.9197 8.84355C37.7832 8.82247 37.6435 8.84916 37.5244 8.91912C37.4052 8.98908 37.3139 9.09803 37.2657 9.22755L35.8797 12.9596C35.8312 13.0895 35.8292 13.2323 35.874 13.3635C35.9189 13.4948 36.0078 13.6065 36.1257 13.6796L37.4937 14.5376C37.4738 14.9941 37.4898 15.4515 37.5417 15.9056L36.2337 16.8596C36.1225 16.941 36.0428 17.0582 36.0078 17.1915C35.9728 17.3248 35.9848 17.466 36.0417 17.5916L37.6857 21.1916C37.744 21.3158 37.8431 21.4163 37.9664 21.4764C38.0898 21.5364 38.23 21.5524 38.3637 21.5216L39.9417 21.1616C40.2485 21.4994 40.5815 21.8124 40.9377 22.0976L40.6917 23.6936C40.6707 23.8301 40.6973 23.9698 40.7673 24.0889C40.8373 24.2081 40.9462 24.2994 41.0757 24.3476L44.7837 25.7336C44.8498 25.7716 44.9237 25.7942 44.9997 25.7996C45.1007 25.7987 45.1998 25.7725 45.2879 25.7232C45.376 25.6739 45.4502 25.6032 45.5037 25.5176L46.3617 24.1496C46.8183 24.1666 47.2755 24.1506 47.7297 24.1016L48.6837 25.4036C48.7651 25.5148 48.8824 25.5945 49.0157 25.6295C49.149 25.6645 49.2902 25.6525 49.4157 25.5956L53.0157 23.9576C53.1423 23.9001 53.245 23.8005 53.3063 23.6757C53.3676 23.551 53.3836 23.4088 53.3517 23.2736L52.9917 21.7015C53.3263 21.3912 53.6371 21.0563 53.9217 20.6996L55.5237 20.9515C55.6603 20.9726 55.7999 20.9459 55.9191 20.876C56.0383 20.806 56.1296 20.6971 56.1777 20.5676L57.5637 16.8596C57.6171 16.7274 57.6216 16.5805 57.5765 16.4453C57.5315 16.3101 57.4397 16.1953 57.3177 16.1216ZM55.1997 19.6676L53.7597 19.4396C53.6473 19.4181 53.531 19.4293 53.4247 19.4719C53.3184 19.5144 53.2264 19.5865 53.1597 19.6796C52.8031 20.1645 52.3925 20.6074 51.9357 20.9996C51.8513 21.0719 51.7886 21.1664 51.7547 21.2723C51.7208 21.3783 51.717 21.4916 51.7437 21.5996L52.0737 23.0396L49.3617 24.2756L48.4857 23.0756C48.4191 22.9825 48.3271 22.9104 48.2208 22.8679C48.1145 22.8253 47.9982 22.8141 47.8857 22.8356C47.2901 22.9246 46.6863 22.9467 46.0857 22.9016C45.9774 22.8932 45.8688 22.9145 45.7715 22.9631C45.6743 23.0117 45.5921 23.0859 45.5337 23.1776L44.7417 24.4316L41.9517 23.3996L42.1797 21.9356C42.2018 21.8236 42.1915 21.7078 42.1501 21.6015C42.1086 21.4952 42.0377 21.403 41.9457 21.3356C41.4522 20.976 41.003 20.559 40.6077 20.0936C40.536 20.008 40.4419 19.9442 40.3359 19.9092C40.2299 19.8742 40.1163 19.8695 40.0077 19.8956L38.5617 20.2256L37.3257 17.5136L38.5257 16.6436C38.6188 16.5769 38.6909 16.4849 38.7334 16.3786C38.7759 16.2723 38.7872 16.156 38.7657 16.0436C38.6787 15.4477 38.6586 14.8439 38.7057 14.2436C38.7146 14.1336 38.6929 14.0234 38.6432 13.9249C38.5934 13.8265 38.5175 13.7437 38.4237 13.6856L37.1997 12.9236L38.2437 10.1336L39.7077 10.3616C39.8202 10.383 39.9365 10.3718 40.0428 10.3292C40.1491 10.2867 40.2411 10.2146 40.3077 10.1216C40.6707 9.63257 41.0873 9.18578 41.5497 8.78955C41.6353 8.71786 41.6991 8.62372 41.7341 8.51773C41.7691 8.41173 41.7738 8.29808 41.7477 8.18955L41.3997 6.74955L44.1117 5.51355L44.9877 6.71355C45.052 6.80154 45.139 6.87037 45.2394 6.91265C45.3399 6.95493 45.4499 6.96907 45.5577 6.95355C46.1534 6.8646 46.7572 6.84246 47.3577 6.88755C47.4671 6.89699 47.577 6.87625 47.6753 6.82758C47.7737 6.77892 47.8569 6.7042 47.9157 6.61155L48.7077 5.35755L51.4977 6.40155L51.2697 7.86555C51.2477 7.97746 51.258 8.09334 51.2994 8.19961C51.3409 8.30588 51.4117 8.39813 51.5037 8.46555C51.9947 8.82832 52.4435 9.24491 52.8417 9.70755C52.9134 9.7931 53.0076 9.85695 53.1136 9.89193C53.2196 9.92691 53.3332 9.93162 53.4417 9.90555L54.8877 9.57555L56.1237 12.2876L54.9237 13.1576C54.8307 13.2242 54.7586 13.3162 54.7161 13.4225C54.6735 13.5288 54.6623 13.6451 54.6837 13.7576C54.7757 14.3529 54.7978 14.957 54.7497 15.5576C54.7409 15.6675 54.7626 15.7777 54.8123 15.8762C54.8621 15.9746 54.938 16.0574 55.0317 16.1156L56.2857 16.9016L55.1997 19.6676Z" fill="#033F47"/>
<path d="M46.722 9.04199H46.62C45.0979 9.10157 43.6587 9.75133 42.6074 10.8537C41.556 11.956 40.975 13.4243 40.9875 14.9475C41 16.4708 41.6049 17.9294 42.6742 19.0143C43.7435 20.0993 45.1931 20.7254 46.716 20.76H46.8C47.5691 20.7537 48.3293 20.596 49.0374 20.2959C49.7454 19.9957 50.3875 19.5591 50.9268 19.0109C51.4661 18.4626 51.8922 17.8135 52.1806 17.1006C52.4691 16.3877 52.6143 15.625 52.608 14.856C52.6017 14.087 52.444 13.3267 52.1439 12.6187C51.8438 11.9106 51.4072 11.2686 50.8589 10.7292C50.3107 10.1899 49.6616 9.76385 48.9487 9.47539C48.2358 9.18692 47.4731 9.04169 46.704 9.04799L46.722 9.04199ZM50.07 18.138C49.6455 18.5788 49.1381 18.9313 48.577 19.1753C48.0158 19.4194 47.4119 19.5501 46.8 19.56H46.722C45.5142 19.528 44.3659 19.0282 43.5193 18.1661C42.6727 17.304 42.1939 16.1469 42.1838 14.9387C42.1737 13.7304 42.6331 12.5654 43.4651 11.6893C44.2972 10.8131 45.4369 10.2942 46.644 10.242C47.2555 10.2277 47.8636 10.3361 48.4324 10.5608C49.0013 10.7854 49.5193 11.1218 49.956 11.55C50.3983 11.9751 50.7521 12.4833 50.9973 13.0456C51.2425 13.6078 51.3742 14.213 51.3848 14.8263C51.3954 15.4396 51.2847 16.0489 51.059 16.6193C50.8334 17.1897 50.4973 17.7099 50.07 18.15V18.138Z" fill="#033F47"/>
</svg>
