<svg width="60" height="60" viewBox="0 0 60 60" fill="none" xmlns="http://www.w3.org/2000/svg">
<path d="M47.8661 46.1604C46.3005 44.1506 43.7423 41.9076 39.6489 40.4838C39.6085 40.446 39.5627 40.4144 39.513 40.39C39.4234 40.3482 39.3242 40.3312 39.2259 40.3408C37.6855 39.8469 36.1025 39.4977 34.4973 39.2979C37.4741 38.1113 39.8706 35.8103 41.177 32.8842C44.6364 32.6205 45.7473 31.0479 46.0989 30.1127C46.6848 28.5389 46.0145 26.91 45.1368 26.0627C44.9231 25.8555 44.6827 25.6778 44.4219 25.5342V20.3908C44.4219 18.4974 44.049 16.6225 43.3244 14.8732C42.5998 13.1239 41.5378 11.5345 40.199 10.1956C38.8601 8.85679 37.2707 7.79475 35.5214 7.07017C33.7721 6.34559 31.8972 5.97266 30.0038 5.97266C28.1104 5.97266 26.2355 6.34559 24.4862 7.07017C22.7369 7.79475 21.1474 8.85679 19.8086 10.1956C18.4697 11.5345 17.4077 13.1239 16.6831 14.8732C15.9586 16.6225 15.5856 18.4974 15.5856 20.3908V25.5342C15.3255 25.6791 15.0856 25.8576 14.8719 26.065C13.9942 26.9123 13.318 28.5412 13.9098 30.115C14.2614 31.0525 15.3665 32.6217 18.8247 32.8865C20.1379 35.8264 22.5511 38.1345 25.5466 39.3154C23.9304 39.5217 22.3368 39.8775 20.7864 40.3783C20.7062 40.3687 20.6249 40.3772 20.5485 40.4032C20.472 40.4291 20.4024 40.4719 20.3446 40.5283C16.243 41.965 13.6907 44.2045 12.1262 46.2072C9.35124 49.7592 9.01608 53.2713 9.00319 53.4189C8.99343 53.566 9.04161 53.7109 9.13742 53.8229C9.23323 53.9348 9.36905 54.0047 9.51581 54.0178C9.66256 54.0308 9.80858 53.9858 9.9226 53.8925C10.0366 53.7992 10.1096 53.665 10.1258 53.5186C10.1258 53.4846 10.4575 50.1447 13.0555 46.8529C14.8743 44.5443 17.3751 42.8088 20.4618 41.6838L26.1184 53.7084C26.164 53.8048 26.236 53.8864 26.326 53.9436C26.416 54.0009 26.5204 54.0314 26.627 54.0318H26.6798C26.7951 54.0209 26.9043 53.9748 26.9925 53.8998C27.0808 53.8248 27.1438 53.7244 27.1731 53.6123L29.6059 44.2854H30.8786L32.8122 53.583C32.8362 53.6986 32.896 53.8037 32.9831 53.8834C33.0701 53.9631 33.1801 54.0134 33.2973 54.0271C33.3196 54.0289 33.3419 54.0289 33.3641 54.0271C33.471 54.0268 33.5755 53.9961 33.6655 53.9386C33.7556 53.8811 33.8274 53.7993 33.8727 53.7025L39.5469 41.6322C42.6266 42.749 45.1239 44.4822 46.9415 46.7967C49.5395 50.1037 49.8712 53.4764 49.8712 53.508C49.8835 53.6484 49.9479 53.7791 50.0518 53.8743C50.1557 53.9696 50.2915 54.0224 50.4325 54.0225H50.4817C50.6306 54.0094 50.7681 53.9377 50.8642 53.8232C50.9602 53.7087 51.0068 53.5608 50.9938 53.4119C50.9856 53.2701 50.6458 49.7275 47.8661 46.1604ZM30.9841 43.1568H29.5028L27.9536 40.2189C28.618 40.1791 29.2977 40.1568 29.9926 40.1557H30.1169C30.9196 40.1557 31.7024 40.1838 32.4606 40.2342L30.9841 43.1568ZM45.0466 29.7166C44.6481 30.7713 43.4505 31.4744 41.6376 31.7088C42.036 30.4874 42.2385 29.2107 42.2376 27.926V26.2291C42.7579 26.1787 43.6696 26.2092 44.3575 26.8736C44.9926 27.4924 45.4356 28.6678 45.0407 29.7166H45.0466ZM16.7071 20.3908C16.7071 16.8654 18.1076 13.4844 20.6004 10.9915C23.0932 8.49871 26.4743 7.09824 29.9997 7.09824C33.5251 7.09824 36.9061 8.49871 39.399 10.9915C41.8918 13.4844 43.2923 16.8654 43.2923 20.3908V25.1475C42.7396 25.0559 42.1747 25.0694 41.627 25.1873C35.7805 24.7385 34.7856 19.7697 34.7458 19.5623C34.7259 19.4535 34.6744 19.3529 34.5978 19.2731C34.5211 19.1933 34.4227 19.1378 34.3148 19.1136C34.2068 19.0893 34.0941 19.0974 33.9907 19.1368C33.8873 19.1761 33.7978 19.2451 33.7333 19.335C31.5665 22.3654 28.3426 24.2791 24.152 25.0232C22.2653 25.3605 20.3405 25.43 18.4344 25.2295V25.2131C17.8679 25.0718 17.2782 25.049 16.7024 25.1463L16.7071 20.3908ZM14.9587 29.7189C14.5637 28.6643 15.0067 27.4924 15.6477 26.876C15.8269 26.7027 16.0331 26.5598 16.2583 26.4529C16.3298 26.4378 16.3978 26.4092 16.4587 26.3686C16.8777 26.2222 17.3247 26.1741 17.7653 26.2279V27.9248C17.7644 29.2095 17.9669 30.4863 18.3653 31.7076C16.5548 31.4686 15.3571 30.7771 14.9587 29.7166V29.7189ZM18.8926 27.9248V26.4014C19.2782 26.4318 19.8208 26.4611 20.4817 26.4611C21.7657 26.4624 23.0475 26.3526 24.3126 26.133C28.3426 25.4299 31.6579 23.6111 33.9688 20.8596C34.243 21.5725 34.6077 22.2472 35.054 22.867C36.0419 24.2311 37.8829 25.8904 41.1044 26.2654V27.9213C41.1044 30.8667 39.9343 33.6916 37.8515 35.7743C35.7688 37.8571 32.944 39.0271 29.9985 39.0271C27.0531 39.0271 24.2282 37.8571 22.1455 35.7743C20.0627 33.6916 18.8926 30.8667 18.8926 27.9213V27.9248ZM26.4688 51.8205L21.5305 41.324C23.2262 40.8155 24.9685 40.4779 26.7313 40.3162L28.563 43.7896L26.4688 51.8205ZM33.5704 51.7033L31.9216 43.799L33.6794 40.3373C35.3044 40.5013 36.9104 40.8183 38.4759 41.2842L33.5704 51.7033Z" fill="#033F47"/>
<path d="M44.8097 50.6051H39.2339C39.1578 50.6016 39.0818 50.6136 39.0104 50.6403C38.9391 50.6671 38.8739 50.708 38.8188 50.7606C38.7637 50.8132 38.7199 50.8765 38.6899 50.9465C38.66 51.0166 38.6445 51.092 38.6445 51.1682C38.6445 51.2444 38.66 51.3197 38.6899 51.3898C38.7199 51.4598 38.7637 51.5231 38.8188 51.5757C38.8739 51.6284 38.9391 51.6693 39.0104 51.696C39.0818 51.7227 39.1578 51.7347 39.2339 51.7313H44.8097C44.8858 51.7347 44.9618 51.7227 45.0331 51.696C45.1045 51.6693 45.1697 51.6284 45.2248 51.5757C45.2798 51.5231 45.3237 51.4598 45.3536 51.3898C45.3836 51.3197 45.399 51.2444 45.399 51.1682C45.399 51.092 45.3836 51.0166 45.3536 50.9465C45.3237 50.8765 45.2798 50.8132 45.2248 50.7606C45.1697 50.708 45.1045 50.6671 45.0331 50.6403C44.9618 50.6136 44.8858 50.6016 44.8097 50.6051Z" fill="#033F47"/>
</svg>
