<svg width="60" height="60" viewBox="0 0 60 60" fill="none" xmlns="http://www.w3.org/2000/svg">
<path d="M57.0004 9.76239H52.7164V8.03439C52.7164 7.87526 52.6532 7.72265 52.5407 7.61013C52.4281 7.4976 52.2755 7.43439 52.1164 7.43439H46.7164V6.00039C46.7164 5.04561 46.3371 4.12994 45.662 3.45481C44.9868 2.77968 44.0712 2.40039 43.1164 2.40039C42.1616 2.40039 41.2459 2.77968 40.5708 3.45481C39.8957 4.12994 39.5164 5.04561 39.5164 6.00039V7.43439H34.0264C33.8673 7.43439 33.7146 7.4976 33.6021 7.61013C33.4896 7.72265 33.4264 7.87526 33.4264 8.03439V9.76239H29.2264C29.0673 9.76239 28.9146 9.8256 28.8021 9.93813C28.6896 10.0506 28.6264 10.2033 28.6264 10.3624V28.0864H4.52439C3.96211 28.0864 3.42277 28.3093 3.02461 28.7064C2.62646 29.1034 2.40198 29.6421 2.40039 30.2044V36.5464C2.40393 37.0862 2.56779 37.6129 2.87118 38.0594C3.17457 38.5059 3.60381 38.8522 4.10439 39.0544V55.5784C4.10598 56.2489 4.37344 56.8914 4.84811 57.3649C5.32278 57.8385 5.9659 58.1044 6.63639 58.1044H37.0924C37.7587 58.0981 38.3957 57.8293 38.8652 57.3565C39.3347 56.8836 39.5988 56.2447 39.6004 55.5784V51.6004H57.0004C57.1595 51.6004 57.3121 51.5372 57.4247 51.4247C57.5372 51.3121 57.6004 51.1595 57.6004 51.0004V10.3624C57.6004 10.2033 57.5372 10.0506 57.4247 9.93813C57.3121 9.8256 57.1595 9.76239 57.0004 9.76239ZM40.7164 6.00039C40.7164 5.36387 40.9692 4.75342 41.4193 4.30333C41.8694 3.85325 42.4799 3.60039 43.1164 3.60039C43.7529 3.60039 44.3634 3.85325 44.8134 4.30333C45.2635 4.75342 45.5164 5.36387 45.5164 6.00039V7.43439H40.7164V6.00039ZM34.6264 8.63439H51.5164V12.0844H34.6264V8.63439ZM38.4004 55.5784C38.4004 55.9301 38.2607 56.2673 38.012 56.516C37.7633 56.7647 37.4261 56.9044 37.0744 56.9044H6.64239C6.29016 56.9044 5.95227 56.7649 5.70264 56.5164C5.45301 56.2679 5.31198 55.9306 5.31039 55.5784V39.4324L18.1204 43.2664V45.9604C18.1204 46.0645 18.1475 46.1668 18.1991 46.2573C18.2506 46.3478 18.3248 46.4233 18.4144 46.4764L21.5584 48.3604C21.6504 48.4174 21.7561 48.4485 21.8644 48.4504C21.9828 48.4542 22.0997 48.4229 22.2004 48.3604L25.3444 46.4764C25.4328 46.4225 25.5059 46.3467 25.5563 46.2563C25.6068 46.1659 25.633 46.0639 25.6324 45.9604V43.2664L38.4004 39.4324V55.5784ZM19.3204 45.6004V40.2784H24.4084V45.6004L21.8644 47.1244L19.3204 45.6004ZM39.0484 37.9924L25.6084 42.0004V39.6784C25.6084 39.5193 25.5452 39.3666 25.4327 39.2541C25.3201 39.1416 25.1675 39.0784 25.0084 39.0784H18.7204C18.5613 39.0784 18.4086 39.1416 18.2961 39.2541C18.1836 39.3666 18.1204 39.5193 18.1204 39.6784V42.0004L4.68039 37.9924C4.36983 37.8978 4.09759 37.7066 3.90332 37.4465C3.70906 37.1864 3.60293 36.871 3.60039 36.5464V30.2044C3.60196 29.9614 3.69919 29.7288 3.871 29.557C4.04282 29.3852 4.27541 29.288 4.51839 29.2864H39.1984C39.4424 29.2864 39.6765 29.3829 39.8496 29.5549C40.0228 29.7269 40.1208 29.9604 40.1224 30.2044V36.5464C40.1203 36.8703 40.015 37.185 39.8219 37.445C39.6288 37.705 39.3578 37.8968 39.0484 37.9924ZM56.4004 50.4004H39.6004V45.2344H43.0564C43.2155 45.2344 43.3681 45.1712 43.4807 45.0587C43.5932 44.9461 43.6564 44.7935 43.6564 44.6344C43.6564 44.4753 43.5932 44.3226 43.4807 44.2101C43.3681 44.0976 43.2155 44.0344 43.0564 44.0344H39.6004V39.0544C40.1016 38.8525 40.5317 38.5064 40.8361 38.06C41.1405 37.6135 41.3056 37.0867 41.3104 36.5464V35.5744H43.1104C43.2695 35.5744 43.4221 35.5112 43.5347 35.3987C43.6472 35.2861 43.7104 35.1335 43.7104 34.9744C43.7104 34.8153 43.6472 34.6626 43.5347 34.5501C43.4221 34.4376 43.2695 34.3744 43.1104 34.3744H41.3104V30.2044C41.3088 29.6421 41.0843 29.1034 40.6862 28.7064C40.288 28.3093 39.7487 28.0864 39.1864 28.0864H29.8264V10.9624H33.4264V12.6844C33.4264 12.8435 33.4896 12.9961 33.6021 13.1087C33.7146 13.2212 33.8673 13.2844 34.0264 13.2844H52.1164C52.2755 13.2844 52.4281 13.2212 52.5407 13.1087C52.6532 12.9961 52.7164 12.8435 52.7164 12.6844V10.9624H56.4004V50.4004Z" fill="#033F47"/>
<path d="M47.2803 18.8881V24.0001C47.2803 24.1592 47.3435 24.3118 47.456 24.4244C47.5685 24.5369 47.7211 24.6001 47.8803 24.6001H52.9923C53.1514 24.6001 53.304 24.5369 53.4165 24.4244C53.5291 24.3118 53.5923 24.1592 53.5923 24.0001V18.8881C53.5923 18.729 53.5291 18.5763 53.4165 18.4638C53.304 18.3513 53.1514 18.2881 52.9923 18.2881H47.8803C47.7211 18.2881 47.5685 18.3513 47.456 18.4638C47.3435 18.5763 47.2803 18.729 47.2803 18.8881ZM48.4803 19.4881H52.3923V23.4001H48.4803V19.4881Z" fill="#033F47"/>
<path d="M52.9923 28.6084H47.8803C47.7211 28.6084 47.5685 28.6716 47.456 28.7841C47.3435 28.8967 47.2803 29.0493 47.2803 29.2084V34.3204C47.2803 34.4795 47.3435 34.6321 47.456 34.7447C47.5685 34.8572 47.7211 34.9204 47.8803 34.9204H52.9923C53.1514 34.9204 53.304 34.8572 53.4165 34.7447C53.5291 34.6321 53.5923 34.4795 53.5923 34.3204V29.2084C53.5923 29.0493 53.5291 28.8967 53.4165 28.7841C53.304 28.6716 53.1514 28.6084 52.9923 28.6084ZM52.3923 33.7204H48.4803V29.8084H52.3923V33.7204Z" fill="#033F47"/>
<path d="M52.9923 38.9277H47.8803C47.7211 38.9277 47.5685 38.9909 47.456 39.1035C47.3435 39.216 47.2803 39.3686 47.2803 39.5277V44.6337C47.2803 44.7929 47.3435 44.9455 47.456 45.058C47.5685 45.1705 47.7211 45.2337 47.8803 45.2337H52.9923C53.1514 45.2337 53.304 45.1705 53.4165 45.058C53.5291 44.9455 53.5923 44.7929 53.5923 44.6337V39.5277C53.5923 39.3686 53.5291 39.216 53.4165 39.1035C53.304 38.9909 53.1514 38.9277 52.9923 38.9277ZM52.3923 44.0337H48.4803V40.1277H52.3923V44.0337Z" fill="#033F47"/>
<path d="M43.1158 23.4004H34.0258C33.8667 23.4004 33.714 23.4636 33.6015 23.5761C33.489 23.6886 33.4258 23.8413 33.4258 24.0004C33.4258 24.1595 33.489 24.3121 33.6015 24.4247C33.714 24.5372 33.8667 24.6004 34.0258 24.6004H43.1158C43.2749 24.6004 43.4275 24.5372 43.54 24.4247C43.6526 24.3121 43.7158 24.1595 43.7158 24.0004C43.7158 23.8413 43.6526 23.6886 43.54 23.5761C43.4275 23.4636 43.2749 23.4004 43.1158 23.4004Z" fill="#033F47"/>
</svg>
