<svg width="60" height="60" viewBox="0 0 60 60" fill="none" xmlns="http://www.w3.org/2000/svg">
<path d="M54.6 43.025C55.4001 42.5537 56.0564 41.873 56.4982 41.0563C56.94 40.2395 57.1505 39.3177 57.1071 38.3902C57.0637 37.4626 56.768 36.5645 56.2519 35.7926C55.7357 35.0207 55.0187 34.4043 54.1781 34.0097C54.136 33.3418 53.6672 27.6816 50.0649 26.2754C51.0296 25.7065 51.7806 24.8362 52.202 23.7986C52.6235 22.761 52.6921 21.6135 52.3973 20.5331C52.1024 19.4526 51.4605 18.499 50.5705 17.8193C49.6804 17.1395 48.5915 16.7713 47.4715 16.7713C46.3515 16.7713 45.2626 17.1395 44.3725 17.8193C43.4824 18.499 42.8405 19.4526 42.5457 20.5331C42.2509 21.6135 42.3195 22.761 42.741 23.7986C43.1624 24.8362 43.9134 25.7065 44.8781 26.2754C42.7031 27.1285 41.6695 29.5308 41.1844 31.441L39.1606 23.941C39.1279 23.8201 39.0564 23.7133 38.9571 23.6371C38.8578 23.5609 38.7362 23.5194 38.611 23.5191H36.6633C36.4922 21.9523 35.7317 17.5004 32.5934 16.2746C33.5581 15.7057 34.3091 14.8355 34.7305 13.7978C35.152 12.7602 35.2206 11.6127 34.9258 10.5323C34.631 9.45182 33.9891 8.49826 33.099 7.8185C32.2089 7.13875 31.12 6.77051 30 6.77051C28.88 6.77051 27.7911 7.13875 26.9011 7.8185C26.011 8.49826 25.3691 9.45182 25.0742 10.5323C24.7794 11.6127 24.848 12.7602 25.2695 13.7978C25.691 14.8355 26.4419 15.7057 27.4067 16.2746C24.2684 17.5004 23.5078 21.9523 23.3367 23.5191H21.3902C21.2649 23.5193 21.1431 23.5608 21.0436 23.637C20.9441 23.7132 20.8723 23.82 20.8395 23.941L18.8156 31.441C18.3305 29.5261 17.2922 27.1285 15.1219 26.2777C16.0866 25.7089 16.8376 24.8386 17.259 23.8009C17.6805 22.7633 17.7491 21.6159 17.4543 20.5354C17.1595 19.4549 16.5176 18.5014 15.6275 17.8216C14.7374 17.1419 13.6485 16.7736 12.5285 16.7736C11.4086 16.7736 10.3197 17.1419 9.42957 17.8216C8.53948 18.5014 7.89758 19.4549 7.60276 20.5354C7.30793 21.6159 7.37654 22.7633 7.79801 23.8009C8.21948 24.8386 8.97042 25.7089 9.93517 26.2777C6.33283 27.684 5.86408 33.3418 5.82189 34.0121C4.9813 34.4066 4.2643 35.023 3.74817 35.7949C3.23203 36.5668 2.93633 37.465 2.89293 38.3925C2.84952 39.3201 3.06006 40.2419 3.50185 41.0586C3.94364 41.8753 4.59994 42.556 5.40001 43.0273C1.66173 44.4863 1.29845 50.5273 1.28204 50.8121C1.27809 50.8868 1.28891 50.9616 1.31386 51.0321C1.33882 51.1026 1.37743 51.1676 1.42749 51.2232C1.47755 51.2788 1.53808 51.324 1.60562 51.3562C1.67316 51.3884 1.74638 51.407 1.82111 51.4109H1.85158C1.99729 51.4108 2.13742 51.3549 2.24315 51.2546C2.34887 51.1543 2.41214 51.0173 2.41993 50.8718C2.41993 50.8015 2.83712 43.8488 7.14845 43.8488H8.83595C13.1391 43.8488 13.5621 50.8015 13.5656 50.8718V50.8824L13.125 52.4996C13.105 52.5721 13.0995 52.648 13.1088 52.7227C13.1182 52.7973 13.1423 52.8694 13.1796 52.9348C13.217 53.0002 13.2669 53.0575 13.3265 53.1035C13.3861 53.1494 13.4543 53.1832 13.527 53.2027C13.5755 53.2157 13.6255 53.2224 13.6758 53.2226C13.801 53.2223 13.9226 53.1809 14.0219 53.1046C14.1213 53.0284 14.1928 52.9216 14.2254 52.8008L21.8227 24.6664H38.175L45.7711 52.8008C45.8038 52.9216 45.8752 53.0284 45.9746 53.1046C46.0739 53.1809 46.1955 53.2223 46.3207 53.2226C46.371 53.2224 46.421 53.2157 46.4695 53.2027C46.5422 53.1832 46.6104 53.1494 46.67 53.1035C46.7296 53.0575 46.7795 53.0002 46.8169 52.9348C46.8542 52.8694 46.8783 52.7973 46.8877 52.7227C46.897 52.648 46.8915 52.5721 46.8715 52.4996L46.4332 50.8777C46.4332 50.8777 46.4332 50.8707 46.4332 50.8672C46.4332 50.7968 46.8504 43.8441 51.1629 43.8441H52.8516C57.1547 43.8441 57.5766 50.7968 57.5801 50.8672C57.588 51.0181 57.6556 51.1596 57.7679 51.2607C57.8235 51.3108 57.8884 51.3494 57.9589 51.3743C58.0294 51.3993 58.1042 51.4101 58.1789 51.4062C58.2536 51.4023 58.3268 51.3837 58.3944 51.3515C58.4619 51.3193 58.5224 51.2741 58.5725 51.2185C58.6225 51.1628 58.6611 51.0979 58.6861 51.0274C58.7111 50.9569 58.7219 50.8821 58.718 50.8074C58.7027 50.5191 58.3383 44.484 54.6 43.025ZM8.56173 21.882C8.56173 21.0974 8.79438 20.3305 9.23026 19.6782C9.66613 19.0258 10.2857 18.5174 11.0105 18.2172C11.7353 17.9169 12.5329 17.8384 13.3024 17.9914C14.0719 18.1445 14.7787 18.5223 15.3335 19.0771C15.8882 19.6318 16.266 20.3386 16.4191 21.1081C16.5722 21.8776 16.4936 22.6752 16.1934 23.4C15.8931 24.1249 15.3847 24.7444 14.7324 25.1803C14.08 25.6162 13.3131 25.8488 12.5285 25.8488C11.4769 25.8476 10.4686 25.4292 9.72495 24.6856C8.9813 23.9419 8.56297 22.9337 8.56173 21.882ZM4.02658 38.6293C4.02658 37.8447 4.25925 37.0777 4.69518 36.4253C5.13111 35.773 5.75071 35.2645 6.47562 34.9643C7.20052 34.6641 7.99817 34.5856 8.76769 34.7388C9.5372 34.8919 10.244 35.2699 10.7987 35.8247C11.3535 36.3796 11.7312 37.0865 11.8841 37.8561C12.037 38.6257 11.9583 39.4233 11.6579 40.1481C11.3575 40.8729 10.8488 41.4924 10.1964 41.9281C9.54386 42.3638 8.77681 42.5963 7.9922 42.5961C6.94063 42.5948 5.9325 42.1765 5.18904 41.4328C4.44557 40.6891 4.02751 39.6808 4.02658 38.6293ZM10.5891 43.025C11.629 42.4136 12.4188 41.4537 12.8183 40.3154C13.2178 39.1772 13.2012 37.9342 12.7714 36.807C12.3416 35.6799 11.5264 34.7414 10.4704 34.1581C9.41452 33.5748 8.1861 33.3844 7.00314 33.6207C7.19298 32.0129 8.0672 27.1004 11.6848 27.1004H13.3723C17.5336 27.1004 18.0656 33.6043 18.0996 34.0941L14.2863 48.2152C13.8035 46.2957 12.7735 43.8781 10.5856 43.025H10.5891ZM26.0332 11.8847C26.0332 11.1002 26.2659 10.3332 26.7017 9.6809C27.1376 9.02857 27.7571 8.52013 28.482 8.21989C29.2068 7.91966 30.0044 7.8411 30.7739 7.99416C31.5434 8.14722 32.2502 8.52502 32.805 9.07979C33.3597 9.63456 33.7375 10.3414 33.8906 11.1109C34.0436 11.8803 33.9651 12.6779 33.6649 13.4028C33.3646 14.1276 32.8562 14.7471 32.2038 15.183C31.5515 15.6189 30.7846 15.8515 30 15.8515C28.9483 15.8503 27.9401 15.432 27.1964 14.6883C26.4528 13.9447 26.0345 12.9364 26.0332 11.8847ZM29.1563 17.1019H30.8438C34.391 17.1019 35.2969 21.8269 35.5137 23.525H24.4852C24.6961 21.8269 25.6008 17.1019 29.1563 17.1019ZM55.9734 38.6293C55.9734 39.4139 55.7408 40.1809 55.3048 40.8332C54.8689 41.4856 54.2493 41.994 53.5244 42.2942C52.7995 42.5944 52.0019 42.6729 51.2323 42.5198C50.4628 42.3666 49.756 41.9887 49.2013 41.4338C48.6466 40.8789 48.2689 40.172 48.1159 39.4024C47.963 38.6329 48.0417 37.8352 48.3421 37.1104C48.6426 36.3856 49.1512 35.7662 49.8037 35.3304C50.4562 34.8947 51.2232 34.6622 52.0078 34.6625C53.0593 34.664 54.0672 35.0825 54.8106 35.8261C55.554 36.5697 55.9722 37.5778 55.9734 38.6293ZM43.5047 21.882C43.5047 21.0974 43.7374 20.3305 44.1732 19.6782C44.6091 19.0258 45.2286 18.5174 45.9535 18.2172C46.6783 17.9169 47.4759 17.8384 48.2454 17.9914C49.0149 18.1445 49.7217 18.5223 50.2764 19.0771C50.8312 19.6318 51.209 20.3386 51.3621 21.1081C51.5151 21.8776 51.4366 22.6752 51.1363 23.4C50.8361 24.1249 50.3277 24.7444 49.6753 25.1803C49.023 25.6162 48.2561 25.8488 47.4715 25.8488C46.4197 25.8479 45.4113 25.4296 44.6676 24.6859C43.9239 23.9422 43.5056 22.9338 43.5047 21.882ZM45.7137 48.214L41.9004 34.0929C41.9344 33.5996 42.4676 27.1004 46.6277 27.1004H48.3152C51.9328 27.1004 52.807 32.0129 52.9969 33.6207C51.8149 33.3876 50.5885 33.58 49.5347 34.164C48.481 34.748 47.6677 35.6859 47.2388 36.8117C46.81 37.9376 46.7931 39.1788 47.1913 40.3159C47.5894 41.453 48.3769 42.4126 49.4145 43.025C47.2266 43.8781 46.1965 46.2957 45.7137 48.214Z" fill="#033F47"/>
</svg>
