<svg width="60" height="60" viewBox="0 0 60 60" fill="none" xmlns="http://www.w3.org/2000/svg">
<path d="M48.5283 45.1204C49.4621 43.2952 49.8548 41.2411 49.6602 39.2002C49.4657 37.1592 48.692 35.2164 47.4303 33.6004V15.0004C47.4303 14.8413 47.3671 14.6886 47.2546 14.5761C47.1421 14.4636 46.9895 14.4004 46.8303 14.4004H37.5423C37.3832 14.4004 37.2306 14.4636 37.1181 14.5761C37.0056 14.6886 36.9423 14.8413 36.9423 15.0004V29.6824C35.3589 29.991 33.8657 30.6535 32.5743 31.6204V25.0744C32.5743 24.9153 32.5111 24.7626 32.3986 24.6501C32.2861 24.5376 32.1335 24.4744 31.9743 24.4744H22.6863C22.5272 24.4744 22.3746 24.5376 22.2621 24.6501C22.1496 24.7626 22.0863 24.9153 22.0863 25.0744V42.0604H17.7183V33.2704C17.7183 33.1113 17.6551 32.9586 17.5426 32.8461C17.4301 32.7336 17.2775 32.6704 17.1183 32.6704H7.83034C7.67121 32.6704 7.5186 32.7336 7.40608 32.8461C7.29356 32.9586 7.23034 33.1113 7.23034 33.2704V42.0604H4.75234C4.59321 42.0604 4.4406 42.1236 4.32808 42.2361C4.21556 42.3486 4.15234 42.5013 4.15234 42.6604V47.3284C4.15234 47.4875 4.21556 47.6401 4.32808 47.7527C4.4406 47.8652 4.59321 47.9284 4.75234 47.9284H31.5003C33.1084 49.4919 35.1654 50.513 37.3829 50.8487C39.6005 51.1844 41.8676 50.8179 43.8663 49.8004L50.5143 56.4004C51.1294 57.0218 51.9661 57.3734 52.8404 57.3779C53.7147 57.3824 54.5549 57.0394 55.1763 56.4244C55.7977 55.8094 56.1494 54.9727 56.1539 54.0984C56.1584 53.2241 55.8154 52.3838 55.2003 51.7624L48.5283 45.1204ZM38.1423 15.6004H46.2303V32.3284C45.1468 31.3314 43.8694 30.5685 42.4777 30.0875C41.0861 29.6064 39.6103 29.4174 38.1423 29.5324V15.6004ZM23.2863 25.6744H31.3743V32.6404C30.1601 33.8518 29.254 35.3366 28.732 36.9704C28.21 38.6042 28.0873 40.3394 28.3743 42.0304H23.2863V25.6744ZM8.43034 33.8704H16.5183V42.0304H8.43034V33.8704ZM5.35234 46.7284V43.2604H28.6743C29.0534 44.5183 29.6638 45.6944 30.4743 46.7284H5.35234ZM32.2263 46.9684C30.8925 45.6341 29.9842 43.9342 29.6164 42.0837C29.2486 40.2332 29.4377 38.3152 30.1599 36.5722C30.882 34.8292 32.1048 33.3395 33.6736 32.2913C35.2423 31.2432 37.0867 30.6838 38.9733 30.6838C40.86 30.6838 42.7044 31.2432 44.2731 32.2913C45.8419 33.3395 47.0647 34.8292 47.7868 36.5722C48.509 38.3152 48.6981 40.2332 48.3303 42.0837C47.9625 43.9342 47.0542 45.6341 45.7203 46.9684C43.9304 48.7568 41.5036 49.7613 38.9733 49.7613C36.4431 49.7613 34.0163 48.7568 32.2263 46.9684ZM54.3243 55.5724C54.1303 55.7679 53.8994 55.9232 53.645 56.0291C53.3907 56.135 53.1179 56.1895 52.8423 56.1895C52.5668 56.1895 52.294 56.135 52.0397 56.0291C51.7853 55.9232 51.5544 55.7679 51.3603 55.5724L44.9403 49.1524C46.1135 48.3756 47.1192 47.3719 47.8983 46.2004L54.3243 52.6144C54.716 53.007 54.936 53.5388 54.936 54.0934C54.936 54.6479 54.716 55.1798 54.3243 55.5724Z" fill="#033F47"/>
<path d="M44.1298 35.0705C42.9355 33.8758 41.3637 33.1325 39.6826 32.9675C38.0014 32.8025 36.3151 33.226 34.9113 34.1656C33.5076 35.1053 32.4734 36.5029 31.9852 38.1201C31.497 39.7372 31.585 41.4737 32.2344 43.0331C32.8837 44.5926 34.054 45.8784 35.5456 46.6712C37.0373 47.464 38.7578 47.7146 40.4136 47.3803C42.0694 47.0461 43.558 46.1476 44.6252 44.8382C45.6925 43.5288 46.2723 41.8897 46.2658 40.2005C46.2577 38.2758 45.49 36.4321 44.1298 35.0705ZM43.2778 44.5325C42.2787 45.5232 40.9672 46.137 39.5664 46.2694C38.1657 46.4019 36.7624 46.0447 35.5953 45.2588C34.4283 44.4729 33.5698 43.3068 33.1659 41.959C32.762 40.6112 32.8377 39.1651 33.3801 37.8669C33.9225 36.5687 34.8982 35.4986 36.1409 34.8388C37.3836 34.1791 38.8165 33.9704 40.1958 34.2484C41.575 34.5264 42.8153 35.2738 43.7055 36.3634C44.5956 37.453 45.0806 38.8175 45.0778 40.2245C45.0759 41.0256 44.9159 41.8186 44.607 42.5578C44.2981 43.2971 43.8464 43.9681 43.2778 44.5325Z" fill="#033F47"/>
<path d="M15.6002 24.5998C17.8549 24.5998 20.059 23.9312 21.9337 22.6786C23.8084 21.4259 25.2696 19.6455 26.1324 17.5624C26.9953 15.4793 27.221 13.1872 26.7811 10.9758C26.3413 8.7644 25.2555 6.73311 23.6612 5.13879C22.0669 3.54447 20.0356 2.45873 17.8242 2.01886C15.6128 1.57899 13.3207 1.80474 11.2376 2.66758C9.15453 3.53042 7.37409 4.99159 6.12144 6.86631C4.86879 8.74103 4.2002 10.9451 4.2002 13.1998C4.2002 16.2233 5.40126 19.1229 7.53918 21.2608C9.67709 23.3987 12.5767 24.5998 15.6002 24.5998ZM15.6002 3.02981C17.6176 3.02981 19.5896 3.62803 21.267 4.74882C22.9444 5.86961 24.2518 7.46263 25.0238 9.32644C25.7958 11.1902 25.9978 13.2411 25.6042 15.2197C25.2106 17.1983 24.2392 19.0158 22.8127 20.4423C21.3862 21.8688 19.5687 22.8403 17.5901 23.2338C15.6115 23.6274 13.5606 23.4254 11.6968 22.6534C9.83302 21.8814 8.24 20.574 7.11921 18.8966C5.99842 17.2192 5.4002 15.2472 5.4002 13.2298C5.4002 10.5246 6.47484 7.93019 8.38771 6.01732C10.3006 4.10445 12.895 3.02981 15.6002 3.02981Z" fill="#033F47"/>
<path d="M13.4165 16.0141C13.4165 15.8549 13.3533 15.7023 13.2407 15.5898C13.1282 15.4773 12.9756 15.4141 12.8165 15.4141C12.6573 15.4141 12.5047 15.4773 12.3922 15.5898C12.2797 15.7023 12.2165 15.8549 12.2165 16.0141C12.2187 16.8075 12.4981 17.5752 13.0065 18.1844C13.5149 18.7936 14.2202 19.2059 15.0005 19.3501V20.1661C15.0005 20.3252 15.0637 20.4778 15.1762 20.5903C15.2887 20.7029 15.4413 20.7661 15.6005 20.7661C15.7596 20.7661 15.9122 20.7029 16.0247 20.5903C16.1373 20.4778 16.2005 20.3252 16.2005 20.1661V19.3501C16.986 19.2123 17.6977 18.8019 18.2106 18.1912C18.7235 17.5805 19.0047 16.8086 19.0047 16.0111C19.0047 15.2136 18.7235 14.4416 18.2106 13.8309C17.6977 13.2202 16.986 12.8099 16.2005 12.6721V8.31606C16.659 8.44631 17.0628 8.72223 17.3507 9.10215C17.6386 9.48207 17.7951 9.94537 17.7965 10.4221C17.7965 10.5812 17.8597 10.7338 17.9722 10.8463C18.0847 10.9588 18.2373 11.0221 18.3965 11.0221C18.5556 11.0221 18.7082 10.9588 18.8207 10.8463C18.9333 10.7338 18.9965 10.5812 18.9965 10.4221C18.9963 9.62555 18.7162 8.85443 18.2051 8.24352C17.694 7.63261 16.9845 7.22079 16.2005 7.08006V6.26406C16.2005 6.10493 16.1373 5.95232 16.0247 5.8398C15.9122 5.72728 15.7596 5.66406 15.6005 5.66406C15.4413 5.66406 15.2887 5.72728 15.1762 5.8398C15.0637 5.95232 15.0005 6.10493 15.0005 6.26406V7.08006C14.215 7.21788 13.5032 7.62821 12.9903 8.2389C12.4774 8.8496 12.1963 9.62157 12.1963 10.4191C12.1963 11.2166 12.4774 11.9885 12.9903 12.5992C13.5032 13.2099 14.215 13.6203 15.0005 13.7581V18.1141C14.5446 17.9828 14.1437 17.7071 13.8581 17.3284C13.5724 16.9497 13.4174 16.4884 13.4165 16.0141ZM16.2005 13.9081C16.6568 14.0384 17.0583 14.3139 17.3442 14.6928C17.63 15.0717 17.7846 15.5334 17.7846 16.0081C17.7846 16.4827 17.63 16.9444 17.3442 17.3233C17.0583 17.7022 16.6568 17.9777 16.2005 18.1081V13.9081ZM13.4045 10.4221C13.4059 9.94537 13.5623 9.48207 13.8503 9.10215C14.1382 8.72223 14.5419 8.44631 15.0005 8.31606V12.5161C14.5461 12.3842 14.1465 12.1092 13.8611 11.7319C13.5756 11.3546 13.4197 10.8952 13.4165 10.4221H13.4045Z" fill="#033F47"/>
</svg>
