<svg width="34" height="34" viewBox="0 0 34 34" fill="none" xmlns="http://www.w3.org/2000/svg">
<path d="M22.4824 0.439647C20.3014 0.426893 18.1631 1.04373 16.324 2.21613C14.485 3.38853 13.0233 5.0667 12.1143 7.04925C5.72795 7.67925 4.48595 11.9272 4.39955 12.3196L2.95955 16.3984L0.619548 19.3972C0.530138 19.5112 0.471895 19.6464 0.450537 19.7897C0.429179 19.9329 0.445441 20.0793 0.497726 20.2143C0.55001 20.3494 0.63652 20.4686 0.748763 20.5601C0.861006 20.6516 0.995123 20.7124 1.13795 20.7364L2.93795 21.0352V26.9644C2.93786 27.0234 2.95226 27.0815 2.97988 27.1336C3.0075 27.1857 3.04749 27.2302 3.09635 27.2632C3.16115 27.3064 4.61195 28.246 7.09595 27.472V33.1996C7.09595 33.2951 7.13388 33.3867 7.20139 33.4542C7.2689 33.5217 7.36047 33.5596 7.45595 33.5596H16.8988C16.9942 33.5596 17.0858 33.5217 17.1533 33.4542C17.2208 33.3867 17.2588 33.2951 17.2588 33.1996L17.4028 27.5548C18.8789 26.0182 20.0699 24.2312 20.92 22.2772C21.4379 22.3464 21.9598 22.3812 22.4824 22.3816C28.7104 22.3816 33.7792 17.4604 33.7792 11.4088C33.7792 5.35725 28.7104 0.439647 22.4824 0.439647ZM16.7871 27.166C16.7245 27.231 16.6885 27.3171 16.6863 27.4072L16.5496 32.8396H7.80515V26.9644C7.80465 26.9061 7.78997 26.8487 7.76238 26.7973C7.73479 26.7459 7.6951 26.7019 7.64675 26.6692C7.59883 26.6364 7.54369 26.6157 7.48601 26.6088C7.42834 26.6019 7.36985 26.609 7.31555 26.6296C5.34635 27.3856 4.07555 26.9536 3.64715 26.752V20.7292C3.6484 20.6435 3.61898 20.5601 3.5642 20.4941C3.50942 20.4281 3.43287 20.3838 3.34835 20.3692L1.25675 20.0092C1.23699 20.0056 1.21844 19.9971 1.20274 19.9845C1.18705 19.9719 1.17468 19.9557 1.16675 19.9372C1.15959 19.9181 1.15749 19.8975 1.16064 19.8773C1.1638 19.8571 1.1721 19.8381 1.18475 19.822L3.57155 16.78C3.59556 16.7481 3.61495 16.713 3.62915 16.6756L5.06915 12.5176V12.478C5.10875 12.298 6.02315 8.49645 11.7975 7.79805C11.3792 8.95222 11.1648 10.1704 11.1639 11.398C11.1699 12.858 11.4705 14.3018 12.0476 15.6429C12.6247 16.984 13.4666 18.1948 14.5227 19.2028L12.4095 22.4428C12.3747 22.4972 12.3551 22.5599 12.3528 22.6245C12.3505 22.689 12.3656 22.7529 12.3965 22.8096C12.4274 22.8663 12.473 22.9137 12.5285 22.9467C12.584 22.9797 12.6474 22.9971 12.7119 22.9972C12.7466 23.0023 12.7817 23.0023 12.8163 22.9972L17.896 21.4456C18.6292 21.7656 19.3943 22.0069 20.1784 22.1656C19.3483 24.0175 18.2006 25.7098 16.7871 27.166ZM22.4824 21.6796C20.9652 21.6815 19.4648 21.3625 18.0795 20.7436C17.9983 20.7133 17.9088 20.7133 17.8276 20.7436L13.5688 22.0396L15.3075 19.372C15.3535 19.3004 15.3725 19.2148 15.3613 19.1304C15.3501 19.0461 15.3094 18.9684 15.2464 18.9112C14.1983 17.9661 13.3592 16.8124 12.7827 15.5243C12.2061 14.2361 11.9049 12.8417 11.8984 11.4304C11.8984 5.76045 16.6396 1.15965 22.4824 1.15965C28.3252 1.15965 33.0592 5.76045 33.0592 11.4196C33.0592 17.0788 28.3144 21.6796 22.4824 21.6796Z" fill="#033F47"/>
</svg>
