<svg width="32" height="32" viewBox="0 0 32 32" fill="none" xmlns="http://www.w3.org/2000/svg">
<path d="M13.1875 2.64453C7.49219 2.64453 2.85156 7.28094 2.85156 12.9762C2.85156 18.6716 7.49219 23.3122 13.1875 23.3122C18.8828 23.3122 23.5234 18.6765 23.5234 12.9762C23.5234 7.27602 18.8863 2.64453 13.1875 2.64453ZM13.1875 22.6091C7.8768 22.6091 3.55469 18.2884 3.55469 12.9762C3.55469 7.66414 7.87469 3.34344 13.1875 3.34344C18.5003 3.34344 22.8203 7.66766 22.8203 12.9762C22.8203 18.2848 18.4982 22.6091 13.1875 22.6091Z" fill="#033F47"/>
<path d="M30.9586 27.2697L23.9196 20.2308C25.5512 17.8359 26.3237 14.959 26.1112 12.0689C25.669 5.62052 20.4708 0.453958 14.0175 0.0496609C11.9859 -0.0821857 9.95186 0.266591 8.08026 1.06771C6.20866 1.86883 4.55219 3.09974 3.24518 4.66063C1.93816 6.22153 1.01739 8.06847 0.557519 10.0517C0.0976463 12.0349 0.11162 14.0986 0.598308 16.0754C1.08499 18.0523 2.0307 19.8866 3.35873 21.4296C4.68676 22.9727 6.35974 24.181 8.24202 24.9567C10.1243 25.7324 12.1629 26.0536 14.1925 25.8943C16.2221 25.7349 18.1856 25.0995 19.9237 24.0396L27.0541 31.1693C27.5737 31.6745 28.2712 31.9548 28.9959 31.9497C29.7205 31.9447 30.4141 31.6545 30.9265 31.1421C31.4389 30.6297 31.729 29.9362 31.7341 29.2115C31.7392 28.4868 31.4588 27.7893 30.9537 27.2697H30.9586ZM30.4608 30.6722C30.0753 31.0568 29.553 31.2729 29.0085 31.2729C28.4639 31.2729 27.9416 31.0568 27.5562 30.6722L20.2282 23.3442C20.1715 23.2873 20.0971 23.2516 20.0173 23.2429C19.9374 23.2342 19.857 23.253 19.7894 23.2964C18.1586 24.3398 16.3037 24.9818 14.3769 25.1698C12.45 25.3578 10.506 25.0865 8.70424 24.378C6.90249 23.6695 5.29431 22.5441 4.01155 21.094C2.72879 19.6439 1.80798 17.9105 1.32461 16.0358C0.841241 14.161 0.809078 12.1985 1.23076 10.3089C1.65244 8.41936 2.51596 6.65665 3.75051 5.16532C4.98507 3.67398 6.5555 2.49647 8.33307 1.72935C10.1106 0.962219 12.0447 0.627311 13.9767 0.752083C20.0763 1.13318 24.9919 6.01919 25.4095 12.1167C25.6179 14.9468 24.8277 17.7605 23.1764 20.0683C23.1283 20.136 23.1057 20.2186 23.1127 20.3013C23.1196 20.3841 23.1557 20.4617 23.2144 20.5204L30.4608 27.7668C30.6516 27.9576 30.803 28.184 30.9063 28.4333C31.0095 28.6825 31.0627 28.9497 31.0627 29.2195C31.0627 29.4893 31.0095 29.7565 30.9063 30.0057C30.803 30.255 30.6516 30.4814 30.4608 30.6722Z" fill="#033F47"/>
</svg>
