<svg width="28" height="28" viewBox="0 0 28 28" fill="none" xmlns="http://www.w3.org/2000/svg">
<path d="M0.49929 16.2452L7.48695 9.25752C7.54903 9.19564 7.63274 9.16034 7.72039 9.15908L11.6227 9.0951L17.8102 2.9076C20.0335 0.687129 24.3437 -0.370371 26.3623 1.649C28.381 3.66838 27.3235 7.97713 25.1016 10.2004L18.9141 16.3879L18.8502 20.2903C18.8489 20.3779 18.8136 20.4616 18.7517 20.5237L11.7641 27.5113C11.7141 27.5608 11.6501 27.5935 11.5807 27.6048C11.5114 27.6162 11.4402 27.6057 11.3772 27.5748C11.3141 27.5439 11.2622 27.494 11.2287 27.4323C11.1952 27.3705 11.1818 27.2998 11.1903 27.2301L11.776 22.9122C10.99 22.6236 10.2377 22.2504 9.53234 21.7992L6.63335 24.6981C6.58013 24.7529 6.50993 24.788 6.43419 24.7977C6.35846 24.8074 6.28168 24.7911 6.21638 24.7515C6.1511 24.7119 6.10116 24.6514 6.07472 24.5797C6.04829 24.5081 6.04693 24.4296 6.07085 24.3571L7.20781 20.8049L3.66335 21.9363C3.5908 21.9605 3.51217 21.9593 3.44035 21.933C3.36853 21.9067 3.30779 21.8567 3.26807 21.7914C3.22836 21.726 3.21203 21.6491 3.22176 21.5732C3.23149 21.4973 3.26671 21.427 3.32164 21.3738L6.18406 18.5121C5.72725 17.8022 5.36312 17.0369 5.10054 16.2346L0.786869 16.8189C0.771969 16.8211 0.756933 16.8223 0.741871 16.8224C0.674999 16.8226 0.609585 16.8029 0.553932 16.7658C0.498278 16.7288 0.454889 16.676 0.429277 16.6142C0.403664 16.5524 0.396978 16.4844 0.41007 16.4189C0.423162 16.3533 0.455439 16.2931 0.502806 16.2459L0.49929 16.2452ZM25.8821 2.12643C24.3852 0.629473 21.2021 1.19549 19.0976 2.70299C19.7171 4.83697 20.9602 6.5315 22.7989 7.74369C23.5717 8.25619 24.4165 8.65075 25.3055 8.91439C26.8152 6.81275 27.3826 3.62408 25.8821 2.12643ZM18.1794 20.1398L18.23 17.0721L12.4693 22.8321L11.9961 26.3231L18.1794 20.1398ZM7.62546 19.9612C7.6841 19.9431 7.74656 19.9414 7.8061 19.9562C7.86565 19.971 7.92004 20.0017 7.96343 20.0451C8.00682 20.0885 8.03755 20.1429 8.05234 20.2024C8.06712 20.262 8.0654 20.3244 8.04734 20.3831L7.1389 23.2286L9.24828 21.1192L13.846 16.5208L14.1912 13.8152L11.4849 14.1597L4.7771 20.8682L7.62546 19.9612ZM6.67132 18.0241L11.0926 13.6021C11.1456 13.5493 11.2145 13.5155 11.2887 13.5058L14.5421 13.091C14.5932 13.0844 14.6452 13.0897 14.694 13.1063C14.7428 13.123 14.7871 13.1506 14.8236 13.1871C14.86 13.2235 14.8876 13.2679 14.9043 13.3166C14.921 13.3654 14.9262 13.4174 14.9197 13.4685L14.5048 16.7226C14.4955 16.7969 14.4616 16.866 14.4085 16.9188L10.0245 21.3028C10.6665 21.7006 11.3483 22.0305 12.0587 22.2871L18.3362 16.0096L18.3516 15.9942L24.6242 9.72158C24.7011 9.64517 24.7763 9.56525 24.8499 9.48182C24.0027 9.20267 23.196 8.81281 22.4509 8.32236C20.5849 7.10738 19.1997 5.28102 18.533 3.1565C18.4487 3.2315 18.3671 3.30814 18.2884 3.38643L5.71999 15.9534C5.95061 16.6802 6.27014 17.3757 6.67132 18.0241ZM5.17929 15.5413L10.9393 9.78135L7.87156 9.83197L1.68828 16.0146L5.17929 15.5413Z" fill="#033F47"/>
</svg>
