<svg width="117" height="55" viewBox="0 0 117 55" fill="none" xmlns="http://www.w3.org/2000/svg">
<path d="M16.8013 13H0V16.3951H16.8013V13ZM33.6388 19.827H10.088V23.2221H33.6388V19.827ZM37.0136 26.6541H10.1243V30.0491H37.0136V26.6541ZM33.6388 33.4811H10.088V36.8762H33.6388V33.4811ZM26.8893 40.345H10.088V43.7401H26.8893V40.345Z" fill="white"/>
<path d="M49.5076 25.4543V13.7815H47.6758V13H52.3433V13.7815H50.5114V25.4543H52.3433V26.2359H47.6758V25.4543H49.5076ZM53.0961 26.2359V25.4543H54.5766V17.4876H53.0961V16.7061H55.5553V18.1935H55.5804C56.0823 17.0338 57.0107 16.4287 58.3658 16.4287C59.3696 16.4287 60.0722 16.706 60.5239 17.2859C60.9756 17.8658 61.2014 18.7482 61.2014 19.9583V25.4543H62.5565V26.2359H58.6418V25.4543H60.2228V19.9583C60.2228 18.1179 59.495 17.2103 58.0647 17.2103C57.3119 17.2103 56.7096 17.538 56.2579 18.1683C55.8062 18.8238 55.5804 19.681 55.5804 20.7903V25.4543H57.0609V26.2359H53.0961ZM70.5364 18.3196V13.8068H68.9555V13H71.5401V25.4543H72.8199V26.2359H70.5615V24.5972H70.5113C70.1349 25.2779 69.7083 25.7821 69.2315 26.0594C68.7547 26.3367 68.1525 26.488 67.3996 26.488C66.973 26.488 66.5464 26.4124 66.17 26.2611C65.7685 26.1098 65.367 25.8577 64.9655 25.5048C64.564 25.1518 64.2378 24.6476 64.0119 23.9417C63.761 23.2358 63.6606 22.429 63.6606 21.4458C63.6606 19.9331 63.9869 18.7229 64.6644 17.8153C65.3168 16.8825 66.2453 16.4287 67.4247 16.4287C68.8802 16.4287 69.909 17.059 70.5364 18.2944V18.3196ZM65.4423 18.4204C64.9153 19.2272 64.6393 20.2356 64.6393 21.471C64.6393 22.7063 64.9153 23.7148 65.4423 24.5215C65.9693 25.3283 66.7221 25.7317 67.7008 25.7317C68.2277 25.7317 68.6794 25.6056 69.0809 25.3535C69.4824 25.1014 69.7836 24.7736 70.0094 24.345C70.2352 23.9165 70.3858 23.4374 70.4862 22.9332C70.5866 22.429 70.6368 21.8996 70.6368 21.3197C70.6368 20.5634 70.5364 19.9079 70.3607 19.3532C70.1851 18.7986 69.9341 18.37 69.633 18.0675C69.3319 17.7901 69.0307 17.5632 68.7045 17.4372C68.3783 17.3111 68.0521 17.2355 67.7008 17.2355C66.7221 17.2103 65.9693 17.6137 65.4423 18.4204ZM81.7785 21.6474H74.8776C74.9027 22.908 75.1788 23.8912 75.7057 24.6224C76.2327 25.3535 76.9855 25.7065 77.9391 25.7065C79.52 25.7065 80.4485 24.9249 80.7245 23.387H81.6028C81.4272 24.4207 81.0256 25.177 80.3983 25.7065C79.771 26.2359 78.9429 26.488 77.9642 26.488C76.6342 26.488 75.6054 26.0342 74.9278 25.1266C74.2503 24.219 73.899 23.0089 73.899 21.471C73.899 19.9331 74.2503 18.7229 74.9278 17.8153C75.6054 16.9077 76.6342 16.4539 77.9642 16.4539C78.8425 16.4539 79.5953 16.7061 80.1976 17.2103C80.7998 17.7145 81.2264 18.3448 81.4522 19.1011C81.653 19.8575 81.7785 20.7146 81.7785 21.6474ZM74.8525 20.8659H80.7747C80.7496 19.7062 80.4736 18.7986 79.9717 18.1683C79.4447 17.538 78.7421 17.2103 77.8136 17.2103C76.9855 17.2103 76.3331 17.538 75.8061 18.2187C75.2791 18.8994 74.9529 19.7818 74.8525 20.8659ZM82.6568 26.2359V25.4543H83.4849L86.5212 21.3197L83.7358 17.4876H82.9328V16.7061H86.1699V17.4876H84.8399L87.1486 20.6642L89.4823 17.4876H88.3029V16.7061H91.54V17.4876H90.5864L87.7257 21.3197L90.7621 25.4543H91.5902V26.2359H88.3531V25.4543H89.658L87.1235 21.9752L84.589 25.4543H85.8939V26.2359H82.6568Z" fill="white"/>
<path d="M47.3633 31.3259V30.5654H51.5775V31.3259H49.6209L53.5091 42.3659H53.5342L57.4223 31.3259H55.4657V30.5654H59.7051V31.3259H58.5512L54.1362 43.4453H52.9321L48.5172 31.3259H47.3633ZM67.2305 38.9803H60.3322C60.3573 40.2069 60.6332 41.1637 61.16 41.8752C61.6868 42.5867 62.4393 42.9301 63.3925 42.9301C64.9729 42.9301 65.901 42.1696 66.177 40.6731H67.0549C66.8794 41.6789 66.478 42.4149 65.8509 42.9301C65.2237 43.4453 64.3959 43.6907 63.4176 43.6907C62.0881 43.6907 61.0597 43.2491 60.3824 42.3659C59.7051 41.4827 59.3539 40.3051 59.3539 38.8086C59.3539 37.312 59.7051 36.1344 60.3824 35.2512C61.0597 34.368 62.0881 33.9264 63.4176 33.9264C64.2956 33.9264 65.0481 34.1718 65.6502 34.6624C66.2522 35.1531 66.6787 35.7664 66.9044 36.5024C67.1051 37.2384 67.2305 38.0726 67.2305 38.9803ZM60.3322 38.2198H66.2522C66.2271 37.0912 65.9512 36.208 65.4495 35.5947C64.9227 34.9814 64.2203 34.6624 63.2922 34.6624C62.4644 34.6624 61.8122 34.9814 61.2854 35.6438C60.7335 36.3062 60.4325 37.1648 60.3322 38.2198ZM68.1838 43.4453V42.6848H69.6638V34.9323H68.1838V34.1718H70.6421V35.6192H70.6672C71.1689 34.4907 72.097 33.9019 73.4516 33.9019C74.455 33.9019 75.1574 34.1718 75.6089 34.736C76.0604 35.3003 76.2862 36.159 76.2862 37.3366V42.6848H77.6408V43.4453H73.7024V42.6848H75.2828V37.3366C75.2828 35.5456 74.5553 34.6624 73.1255 34.6624C72.373 34.6624 71.7709 34.9814 71.3194 35.5947C70.8679 36.2326 70.6421 37.0667 70.6421 38.1462V42.6848H72.1221V43.4453H68.1838ZM79.8733 34.1718V32.1846L80.8767 31.8166V34.1472H83.4354V34.9078H80.8767V41.3845C80.8767 41.9243 80.9771 42.2923 81.1527 42.5376C81.3283 42.7829 81.554 42.9056 81.83 42.9056C82.5825 42.9056 82.9588 42.3168 82.9588 41.1147V40.9184H83.7364V41.2619C83.7364 41.9733 83.5608 42.5621 83.2096 43.0037C82.8584 43.4453 82.3567 43.6661 81.7296 43.6661C80.5005 43.6661 79.8984 42.9792 79.8984 41.6053V34.9078H78.2177V34.1472H79.8733V34.1718ZM84.5391 34.9323V34.1718H86.8971V40.256C86.8971 42.0469 87.6246 42.9301 89.0544 42.9301C89.7819 42.9301 90.3839 42.6357 90.8355 42.0224C91.287 41.4091 91.5378 40.5995 91.5378 39.5691V34.9323H90.0578V34.1718H92.5161V42.6848H93.9962V43.4453H91.5378V41.9243H91.5127C91.2619 42.4885 90.9107 42.9301 90.409 43.2245C89.9324 43.5189 89.3554 43.6907 88.7283 43.6907C87.7249 43.6907 87.0225 43.4208 86.571 42.8565C86.1195 42.2923 85.8937 41.4336 85.8937 40.256V34.9078H84.5391V34.9323ZM94.7487 43.4453V42.6848H96.2287V34.9323H94.7487V34.1718H97.207V35.8155H97.2321C97.4077 35.2022 97.7338 34.736 98.1853 34.3926C98.6369 34.0736 99.1386 33.9019 99.7155 33.9019C99.9413 33.9019 100.117 33.9264 100.242 33.951V34.8096C100.167 34.7851 100.017 34.7606 99.7908 34.7606C98.9379 34.7606 98.3108 35.0795 97.8592 35.6928C97.4077 36.3062 97.207 37.1158 97.207 38.1462V42.6848H99.0131V43.4453H94.7487ZM109.097 38.9803H102.199C102.224 40.2069 102.5 41.1637 103.027 41.8752C103.554 42.5867 104.306 42.9301 105.259 42.9301C106.84 42.9301 107.768 42.1696 108.044 40.6731H108.922C108.746 41.6789 108.345 42.4149 107.718 42.9301C107.09 43.4453 106.263 43.6907 105.284 43.6907C103.955 43.6907 102.926 43.2491 102.249 42.3659C101.572 41.4827 101.221 40.3051 101.221 38.8086C101.221 37.312 101.572 36.1344 102.249 35.2512C102.926 34.368 103.955 33.9264 105.284 33.9264C106.162 33.9264 106.915 34.1718 107.517 34.6624C108.119 35.1531 108.545 35.7664 108.771 36.5024C108.972 37.2384 109.097 38.0726 109.097 38.9803ZM102.199 38.2198H108.094C108.069 37.0912 107.793 36.208 107.291 35.5947C106.764 34.9814 106.062 34.6624 105.134 34.6624C104.306 34.6624 103.654 34.9814 103.127 35.6438C102.6 36.3062 102.299 37.1648 102.199 38.2198ZM110.452 43.4453V40.1824H111.229C111.255 41.0901 111.505 41.7525 111.982 42.2432C112.434 42.7093 113.036 42.9547 113.763 42.9547C114.465 42.9547 115.042 42.7829 115.444 42.4149C115.87 42.0715 116.071 41.5563 116.071 40.9429C116.071 40.4032 115.92 39.9861 115.619 39.7653C115.318 39.52 114.792 39.3483 114.014 39.2256L112.81 39.0539C111.28 38.784 110.502 38.048 110.502 36.8459C110.502 35.9382 110.803 35.2512 111.405 34.736C112.007 34.2208 112.709 33.951 113.562 33.951C114.817 33.951 115.644 34.3926 116.071 35.3003H116.096V34.1963H116.874V37.3856H116.096V36.8704C116.096 36.1835 115.87 35.6438 115.419 35.2758C114.967 34.8832 114.39 34.7115 113.688 34.7115C113.011 34.7115 112.484 34.9078 112.082 35.2758C111.681 35.6438 111.48 36.1344 111.48 36.7232C111.48 37.5574 112.032 38.048 113.161 38.2198L114.541 38.4406C115.419 38.5632 116.046 38.8331 116.422 39.2256C116.823 39.6181 116.999 40.1824 116.999 40.8693C116.999 41.8016 116.723 42.5131 116.146 43.0037C115.569 43.4944 114.766 43.7397 113.738 43.7397C112.459 43.7397 111.606 43.2491 111.179 42.2432V43.4944H110.452V43.4453Z" fill="white"/>
</svg>
