<svg width="21" height="24" viewBox="0 0 21 24" fill="none" xmlns="http://www.w3.org/2000/svg">
<g clip-path="url(#clip0_1136_9993)">
<path d="M4.70063 21.0005H0.346875V6.9802H4.70063V21.0005ZM2.52141 5.0677C1.12922 5.0677 0 3.91457 0 2.52238C9.96468e-09 1.85366 0.265647 1.21233 0.738503 0.739479C1.21136 0.266624 1.85269 0.000976562 2.52141 0.000976562C3.19012 0.000976562 3.83145 0.266624 4.30431 0.739479C4.77717 1.21233 5.04281 1.85366 5.04281 2.52238C5.04281 3.91457 3.91313 5.0677 2.52141 5.0677ZM20.9953 21.0005H16.6509V14.1755C16.6509 12.5489 16.6181 10.463 14.3873 10.463C12.1238 10.463 11.7769 12.2302 11.7769 14.0583V21.0005H7.42781V6.9802H11.6034V8.8927H11.6644C12.2456 7.79113 13.6655 6.62863 15.7838 6.62863C20.19 6.62863 21 9.5302 21 13.2989V21.0005H20.9953Z" fill="#080F10"/>
</g>
<defs>
<clipPath id="clip0_1136_9993">
<rect width="21" height="24" fill="white"/>
</clipPath>
</defs>
</svg>
