<svg width="18" height="24" viewBox="0 0 18 24" fill="none" xmlns="http://www.w3.org/2000/svg">
<g clip-path="url(#clip0_1136_9997)">
<path d="M9.5625 0.304688C4.75313 0.304688 0 3.51094 0 8.7C0 12 1.85625 13.875 2.98125 13.875C3.44531 13.875 3.7125 12.5813 3.7125 12.2156C3.7125 11.7797 2.60156 10.8516 2.60156 9.0375C2.60156 5.26875 5.47031 2.59688 9.18281 2.59688C12.375 2.59688 14.7375 4.41094 14.7375 7.74375C14.7375 10.2328 13.7391 14.9016 10.5047 14.9016C9.3375 14.9016 8.33906 14.0578 8.33906 12.8484C8.33906 11.0766 9.57656 9.36094 9.57656 7.53281C9.57656 4.42969 5.175 4.99219 5.175 8.74219C5.175 9.52969 5.27344 10.4016 5.625 11.1188C4.97813 13.9031 3.65625 18.0516 3.65625 20.9203C3.65625 21.8063 3.78281 22.6781 3.86719 23.5641C4.02656 23.7422 3.94688 23.7234 4.19063 23.6344C6.55313 20.4 6.46875 19.7672 7.5375 15.5344C8.11406 16.6313 9.60469 17.2219 10.7859 17.2219C15.7641 17.2219 18 12.3703 18 7.99688C18 3.34219 13.9781 0.304688 9.5625 0.304688Z" fill="#080F10"/>
</g>
<defs>
<clipPath id="clip0_1136_9997">
<rect width="18" height="24" fill="white"/>
</clipPath>
</defs>
</svg>
