<svg width="155" height="155" viewBox="0 0 155 155" fill="none" xmlns="http://www.w3.org/2000/svg">
<g filter="url(#filter0_b_18_35321)">
<circle cx="77.5" cy="77.5" r="77.5" fill="#E0F780" fill-opacity="0.7"/>
</g>
<g filter="url(#filter1_b_18_35321)">
<circle cx="77.5" cy="77.5" r="34" stroke="#033F47"/>
</g>
<path d="M29.3582 54.7717C29.0377 55.5047 28.6087 56.1264 28.0711 56.6367C27.5239 57.1428 26.9081 57.526 26.2238 57.7862C25.5439 58.0366 24.8305 58.1504 24.0839 58.1273C23.3372 58.1043 22.6021 57.9351 21.8785 57.6196C21.1452 57.2999 20.5163 56.8744 19.9919 56.3432C19.4675 55.812 19.071 55.2144 18.8026 54.5504C18.5286 53.8724 18.3943 53.168 18.3995 52.4372C18.3993 51.6924 18.5594 50.9535 18.8799 50.2205C19.2304 49.4191 19.675 48.7751 20.2137 48.2886C20.7525 47.802 21.3591 47.4265 22.0336 47.162L22.5702 48.5306C22.0674 48.6953 21.6108 48.9675 21.2003 49.3471C20.7941 49.7169 20.4606 50.1999 20.1999 50.796C19.9649 51.3335 19.8468 51.8697 19.8458 52.4045C19.8349 52.9351 19.9329 53.4433 20.1396 53.929C20.3463 54.4148 20.6486 54.8549 21.0465 55.2495C21.4486 55.6343 21.9333 55.9504 22.5004 56.1976C23.0675 56.4449 23.6291 56.585 24.1851 56.618C24.7454 56.6412 25.2742 56.5634 25.7715 56.3846C26.2688 56.2058 26.7135 55.9343 27.1057 55.57C27.4881 55.2014 27.7968 54.7484 28.0318 54.2108C28.3096 53.5756 28.4484 52.9787 28.4483 52.42C28.4383 51.8571 28.3229 51.3356 28.1022 50.8553L29.4576 50.3117C29.7413 50.994 29.8812 51.7124 29.8771 52.467C29.8774 53.2119 29.7044 53.9801 29.3582 54.7717Z" fill="#033F47"/>
<path d="M38.2891 41.2666C37.7508 41.8439 37.1434 42.2841 36.4669 42.5873C35.7825 42.8831 35.0744 43.0404 34.3424 43.0589C33.6027 43.0702 32.8807 42.9451 32.1765 42.6836C31.4796 42.4143 30.8421 42.0109 30.264 41.4734C29.6782 40.9287 29.2298 40.3225 28.919 39.6548C28.6077 38.9721 28.4316 38.2694 28.3907 37.5469C28.3571 36.8165 28.464 36.1076 28.7114 35.42C28.9661 34.7246 29.3626 34.0883 29.901 33.511C30.4393 32.9338 31.0431 32.4975 31.7123 32.2021C32.3888 31.899 33.093 31.7381 33.825 31.7196C34.557 31.701 35.275 31.8225 35.9792 32.084C36.6834 32.3455 37.3284 32.7486 37.9143 33.2933C38.4924 33.8308 38.9371 34.4409 39.2484 35.1237C39.5598 35.8064 39.7322 36.5129 39.7658 37.2433C39.8067 37.9658 39.7037 38.6784 39.4568 39.3811C39.2094 40.0686 38.8202 40.6971 38.2891 41.2666ZM37.2127 40.3095C37.7583 39.7244 38.102 39.09 38.2438 38.4062C38.3851 37.7073 38.3414 37.0112 38.1127 36.318C37.8763 35.6175 37.4534 34.984 36.8441 34.4175C36.391 33.9962 35.9079 33.6854 35.3947 33.4849C34.8737 33.2773 34.3489 33.1753 33.8204 33.1791C33.2918 33.1828 32.786 33.2951 32.3029 33.5159C31.8121 33.7295 31.3629 34.0547 30.9555 34.4916C30.4172 35.0689 30.0735 35.7033 29.9244 36.3949C29.7826 37.0787 29.8261 37.7672 30.0547 38.4605C30.2906 39.1459 30.7132 39.7719 31.3225 40.3384C31.7756 40.7597 32.2629 41.0817 32.7844 41.3044C33.3054 41.5121 33.8266 41.618 34.3479 41.622C34.8686 41.611 35.3744 41.4987 35.8653 41.2851C36.3635 41.0637 36.8126 40.7385 37.2127 40.3095Z" fill="#033F47"/>
<path d="M47.4177 33.1018L42.2551 23.271L43.1906 22.7811L44.3983 24.1174L48.7501 32.4042L47.4177 33.1018ZM54.2215 29.5394L43.9504 24.6409L43.1906 22.7811L53.4685 27.6581L54.2215 29.5394ZM54.2215 29.5394L53.0584 28.2882L48.662 19.9164L49.9944 19.2187L55.157 29.0496L54.2215 29.5394Z" fill="#033F47"/>
<path d="M65.5238 26.2618C64.6638 26.4212 63.9004 26.3999 63.2336 26.1981C62.5668 25.9962 61.9419 25.6401 61.3588 25.1298L62.1785 23.9365C62.6143 24.3547 63.081 24.6479 63.5788 24.816C64.0746 24.9736 64.6529 24.9912 65.3137 24.8688C65.9639 24.7482 66.4568 24.5104 66.7922 24.1554C67.1381 23.7984 67.2653 23.3734 67.1736 22.8805C67.0976 22.4715 66.9418 22.1587 66.7062 21.942C66.4707 21.7253 66.1757 21.5684 65.8213 21.4714C65.4755 21.3619 65.1021 21.2792 64.7011 21.2233C64.2982 21.157 63.8943 21.0854 63.4895 21.0086C63.0827 20.9212 62.7015 20.7966 62.3459 20.6347C61.9884 20.4623 61.6758 20.211 61.4083 19.8809C61.1513 19.5489 60.9712 19.1049 60.8678 18.5491C60.7528 17.9304 60.8022 17.3788 61.0159 16.8944C61.2382 16.3976 61.5849 15.9862 62.0559 15.6602C62.5355 15.3218 63.1004 15.0924 63.7506 14.9719C64.4638 14.8397 65.1299 14.8627 65.7489 15.0409C66.3659 15.2086 66.8947 15.4849 67.3351 15.8697L66.5154 17.0631C66.1201 16.7458 65.7161 16.5278 65.3034 16.409C64.9013 16.2882 64.4589 16.2726 63.9765 16.362C63.3892 16.4709 62.9468 16.6884 62.6494 17.0148C62.3501 17.3306 62.2433 17.7192 62.3291 18.1807C62.3973 18.5477 62.5473 18.8291 62.779 19.0248C63.0192 19.2081 63.3112 19.3493 63.6551 19.4482C63.999 19.5472 64.3724 19.6299 64.7753 19.6963C65.1868 19.7502 65.5959 19.8208 66.0027 19.9081C66.4095 19.9955 66.7927 20.1306 67.1521 20.3135C67.5116 20.4963 67.8218 20.7643 68.0827 21.1173C68.3522 21.4579 68.5405 21.9166 68.6477 22.4934C68.8271 23.4582 68.6318 24.2755 68.0619 24.9452C67.5026 25.613 66.6565 26.0519 65.5238 26.2618Z" fill="#033F47"/>
<path d="M74.9587 24.95L80.7564 14.446L81.8371 14.5718L85.0505 26.125L83.4295 25.9363L80.8127 16.1761L81.3689 16.2409L76.5479 25.135L74.9587 24.95ZM77.3947 22.7047L77.5464 21.4015L83.3472 22.0769L83.1955 23.3801L77.3947 22.7047Z" fill="#033F47"/>
<path d="M91.8265 28.1883L96.3126 18.0308L97.689 18.6369L93.203 28.7944L91.8265 28.1883ZM92.7637 28.601L93.3196 27.3423L98.7669 29.7409L98.211 30.9996L92.7637 28.601Z" fill="#033F47"/>
<path d="M105.978 36.306L112.893 28.0315L114.049 28.9943L107.133 37.2688L105.978 36.306ZM109.315 26.4244L110.198 25.3686L117.143 31.1558L116.26 32.2116L109.315 26.4244Z" fill="#033F47"/>
<path d="M114.059 44.5393L123.011 37.9691L123.902 39.1804L114.95 45.7505L114.059 44.5393Z" fill="#033F47"/>
<path d="M123.619 51.7993L124.832 51.2982L125.989 54.0918C126.149 54.4761 126.368 54.7834 126.649 55.0139C126.933 55.2541 127.253 55.399 127.608 55.4484C127.968 55.5076 128.344 55.4557 128.739 55.2928C129.133 55.1298 129.436 54.9006 129.649 54.6051C129.865 54.3194 129.989 53.9913 130.02 53.6206C130.055 53.2598 129.993 52.8873 129.834 52.503L128.676 49.7094L129.889 49.2084L131.083 52.0906C131.345 52.7213 131.449 53.3359 131.397 53.9345C131.349 54.543 131.148 55.0878 130.793 55.5691C130.452 56.0562 129.962 56.4322 129.321 56.697C128.69 56.9577 128.076 57.038 127.481 56.9379C126.899 56.8436 126.371 56.6002 125.896 56.2076C125.436 55.8209 125.075 55.3122 124.814 54.6815L123.619 51.7993ZM119.241 52.5179L129.503 48.2772L130.079 49.6666L119.816 53.9073L119.241 52.5179Z" fill="#033F47"/>
<path d="M119.989 100.228C120.31 99.4953 120.739 98.8736 121.277 98.3633C121.824 97.8572 122.44 97.474 123.124 97.2138C123.804 96.9634 124.517 96.8496 125.264 96.8727C126.01 96.8957 126.746 97.0649 127.469 97.3804C128.202 97.7001 128.831 98.1256 129.356 98.6568C129.88 99.188 130.277 99.7856 130.545 100.45C130.819 101.128 130.953 101.832 130.948 102.563C130.948 103.308 130.788 104.047 130.468 104.78C130.117 105.581 129.673 106.225 129.134 106.711C128.595 107.198 127.989 107.574 127.314 107.838L126.777 106.469C127.28 106.305 127.737 106.032 128.147 105.653C128.554 105.283 128.887 104.8 129.148 104.204C129.383 103.666 129.501 103.13 129.502 102.595C129.513 102.065 129.415 101.557 129.208 101.071C129.001 100.585 128.699 100.145 128.301 99.7505C127.899 99.3657 127.414 99.0496 126.847 98.8024C126.28 98.5551 125.719 98.415 125.163 98.382C124.602 98.3588 124.073 98.4366 123.576 98.6154C123.079 98.7942 122.634 99.0657 122.242 99.43C121.86 99.7986 121.551 100.252 121.316 100.789C121.038 101.424 120.899 102.021 120.899 102.58C120.909 103.143 121.025 103.664 121.245 104.145L119.89 104.688C119.606 104.006 119.467 103.288 119.471 102.533C119.47 101.788 119.643 101.02 119.989 100.228Z" fill="#033F47"/>
<path d="M111.059 113.733C111.597 113.156 112.204 112.716 112.881 112.413C113.565 112.117 114.273 111.96 115.005 111.941C115.745 111.93 116.467 112.055 117.171 112.316C117.868 112.586 118.506 112.989 119.084 113.527C119.669 114.071 120.118 114.678 120.429 115.345C120.74 116.028 120.916 116.731 120.957 117.453C120.991 118.183 120.884 118.892 120.636 119.58C120.382 120.275 119.985 120.912 119.447 121.489C118.908 122.066 118.305 122.503 117.635 122.798C116.959 123.101 116.255 123.262 115.523 123.28C114.791 123.299 114.073 123.178 113.368 122.916C112.664 122.655 112.019 122.251 111.433 121.707C110.855 121.169 110.411 120.559 110.099 119.876C109.788 119.194 109.615 118.487 109.582 117.757C109.541 117.034 109.644 116.322 109.891 115.619C110.138 114.931 110.527 114.303 111.059 113.733ZM112.135 114.691C111.589 115.276 111.246 115.91 111.104 116.594C110.963 117.293 111.006 117.989 111.235 118.682C111.471 119.382 111.894 120.016 112.504 120.583C112.957 121.004 113.44 121.315 113.953 121.515C114.474 121.723 114.999 121.825 115.527 121.821C116.056 121.817 116.562 121.705 117.045 121.484C117.536 121.27 117.985 120.945 118.392 120.508C118.93 119.931 119.274 119.297 119.423 118.605C119.565 117.921 119.522 117.233 119.293 116.54C119.057 115.854 118.634 115.228 118.025 114.662C117.572 114.24 117.085 113.918 116.563 113.696C116.042 113.488 115.521 113.382 115 113.378C114.479 113.389 113.973 113.501 113.482 113.715C112.984 113.936 112.535 114.261 112.135 114.691Z" fill="#033F47"/>
<path d="M101.93 121.898L107.093 131.729L106.157 132.219L104.949 130.883L100.598 122.596L101.93 121.898ZM95.1262 125.461L105.397 130.359L106.157 132.219L95.8792 127.342L95.1262 125.461ZM95.1262 125.461L96.2893 126.712L100.686 135.084L99.3533 135.781L94.1906 125.95L95.1262 125.461Z" fill="#033F47"/>
<path d="M83.8239 128.738C84.6839 128.579 85.4473 128.6 86.1141 128.802C86.7809 129.004 87.4058 129.36 87.9889 129.87L87.1692 131.064C86.7334 130.645 86.2666 130.352 85.7688 130.184C85.273 130.026 84.6947 130.009 84.034 130.131C83.3837 130.252 82.8909 130.49 82.5555 130.845C82.2095 131.202 82.0824 131.627 82.174 132.119C82.25 132.528 82.4058 132.841 82.6414 133.058C82.877 133.275 83.172 133.432 83.5263 133.529C83.8722 133.638 84.2456 133.721 84.6465 133.777C85.0494 133.843 85.4533 133.915 85.8582 133.991C86.265 134.079 86.6462 134.203 87.0018 134.365C87.3593 134.538 87.6718 134.789 87.9393 135.119C88.1963 135.451 88.3765 135.895 88.4798 136.451C88.5948 137.07 88.5455 137.621 88.3317 138.106C88.1094 138.602 87.7628 139.014 87.2918 139.34C86.8122 139.678 86.2473 139.908 85.597 140.028C84.8838 140.16 84.2177 140.137 83.5988 139.959C82.9817 139.791 82.453 139.515 82.0126 139.13L82.8323 137.937C83.2276 138.254 83.6316 138.472 84.0442 138.591C84.4464 138.712 84.8887 138.727 85.3712 138.638C85.9585 138.529 86.4008 138.312 86.6982 137.985C86.9975 137.669 87.1043 137.281 87.0185 136.819C86.9503 136.452 86.8004 136.171 86.5687 135.975C86.3285 135.792 86.0364 135.651 85.6925 135.552C85.3487 135.453 84.9753 135.37 84.5724 135.304C84.1609 135.25 83.7518 135.179 83.345 135.092C82.9381 135.005 82.555 134.869 82.1955 134.687C81.836 134.504 81.5259 134.236 81.2649 133.883C80.9955 133.542 80.8072 133.083 80.6999 132.507C80.5206 131.542 80.7159 130.725 81.2857 130.055C81.8451 129.387 82.6911 128.948 83.8239 128.738Z" fill="#033F47"/>
<path d="M74.389 130.05L68.5913 140.554L67.5106 140.428L64.2971 128.875L65.9182 129.064L68.535 138.824L67.9788 138.759L72.7997 129.865L74.389 130.05ZM71.953 132.295L71.8012 133.599L66.0004 132.923L66.1521 131.62L71.953 132.295Z" fill="#033F47"/>
<path d="M57.5211 126.812L53.0351 136.969L51.6586 136.363L56.1447 126.206L57.5211 126.812ZM56.5839 126.399L56.028 127.658L50.5808 125.259L51.1367 124L56.5839 126.399Z" fill="#033F47"/>
<path d="M43.37 118.694L36.4543 126.969L35.2989 126.006L42.2146 117.731L43.37 118.694ZM40.0324 128.576L39.1499 129.631L32.2051 123.844L33.0876 122.788L40.0324 128.576Z" fill="#033F47"/>
<path d="M35.2888 110.461L26.3371 117.031L25.4455 115.82L34.3972 109.249L35.2888 110.461Z" fill="#033F47"/>
<path d="M25.7306 103.201L24.518 103.702L23.3602 100.908C23.2009 100.524 22.9812 100.217 22.7009 99.9861C22.4166 99.7459 22.0968 99.601 21.7414 99.5516C21.382 99.4924 21.0052 99.5443 20.6109 99.7072C20.2165 99.8702 19.9132 100.099 19.7008 100.395C19.4843 100.681 19.3606 101.009 19.3294 101.379C19.2942 101.74 19.3563 102.113 19.5155 102.497L20.6734 105.291L19.4608 105.792L18.2662 102.909C18.0049 102.279 17.9002 101.664 17.9523 101.066C18.0004 100.457 18.2017 99.9122 18.5565 99.4309C18.8973 98.9438 19.3881 98.5678 20.0289 98.303C20.6598 98.0423 21.2731 97.962 21.8688 98.0621C22.4506 98.1564 22.9787 98.3998 23.4532 98.7924C23.9137 99.1791 24.2746 99.6878 24.536 100.318L25.7306 103.201ZM30.1091 102.482L19.8468 106.723L19.2709 105.333L29.5332 101.093L30.1091 102.482Z" fill="#033F47"/>
<g clip-path="url(#clip0_18_35321)">
<path d="M134.25 72.2188C134.25 71.4952 134.838 70.9082 135.563 70.9082H136.438C137.163 70.9082 137.75 71.4952 137.75 72.2188V74.8699L140.05 73.543C140.679 73.1798 141.48 73.3955 141.844 74.0235L142.281 74.7798C142.645 75.4078 142.429 76.2078 141.8 76.5709L139.5 77.8978L141.8 79.2248C142.429 79.5879 142.642 80.3879 142.281 81.0159L141.844 81.7722C141.48 82.4001 140.679 82.6131 140.05 82.2527L137.75 80.9258V83.5769C137.75 84.3005 137.163 84.8875 136.438 84.8875H135.563C134.838 84.8875 134.25 84.3005 134.25 83.5769V80.9258L131.951 82.2527C131.322 82.6158 130.521 82.4001 130.157 81.7722L129.72 81.0159C129.356 80.3879 129.572 79.5879 130.201 79.2248L132.5 77.8978L130.201 76.5709C129.572 76.2078 129.359 75.4078 129.72 74.7798L130.157 74.0235C130.521 73.3955 131.322 73.1826 131.951 73.543L134.25 74.8699V72.2188ZM135.563 71.7819C135.322 71.7819 135.125 71.9785 135.125 72.2188V75.6289C135.125 75.7846 135.043 75.9293 134.907 76.0085C134.77 76.0876 134.606 76.0876 134.469 76.0085L131.513 74.302C131.303 74.1819 131.038 74.2529 130.915 74.4631L130.477 75.2194C130.357 75.4296 130.428 75.6945 130.638 75.8173L133.594 77.5183C133.731 77.5975 133.813 77.7395 133.813 77.8978C133.813 78.0562 133.731 78.1982 133.594 78.2774L130.638 79.9811C130.428 80.1012 130.357 80.3688 130.477 80.579L130.915 81.3353C131.035 81.5456 131.303 81.6165 131.513 81.4964L134.469 79.79C134.606 79.7108 134.77 79.7108 134.907 79.79C135.043 79.8691 135.125 80.0111 135.125 80.1695V83.5769C135.125 83.8172 135.322 84.0138 135.563 84.0138H136.438C136.679 84.0138 136.875 83.8172 136.875 83.5769V80.1667C136.875 80.0111 136.958 79.8664 137.094 79.7872C137.231 79.708 137.395 79.708 137.532 79.7872L140.488 81.491C140.698 81.6111 140.963 81.5401 141.086 81.3299L141.524 80.5736C141.644 80.3633 141.573 80.0985 141.363 79.9756L138.407 78.2774C138.27 78.1982 138.188 78.0562 138.188 77.8978C138.188 77.7395 138.27 77.5975 138.407 77.5183L141.363 75.8146C141.573 75.6945 141.644 75.4269 141.524 75.2167L141.086 74.4604C140.966 74.2501 140.698 74.1791 140.488 74.2993L137.532 76.0057C137.395 76.0849 137.231 76.0849 137.094 76.0057C136.958 75.9265 136.875 75.7846 136.875 75.6262V72.2188C136.875 71.9785 136.679 71.7819 136.438 71.7819H135.563Z" fill="#033F47"/>
</g>
<g clip-path="url(#clip1_18_35321)">
<path d="M17.2505 71.2207C17.2505 70.4972 17.8384 69.9102 18.563 69.9102H19.438C20.1626 69.9102 20.7505 70.4972 20.7505 71.2207V73.8719L23.0501 72.5449C23.679 72.1818 24.4802 72.3975 24.8438 73.0255L25.2813 73.7818C25.645 74.4097 25.429 75.2097 24.8001 75.5729L22.5005 76.8998L24.8001 78.2267C25.429 78.5899 25.6423 79.3899 25.2813 80.0178L24.8438 80.7741C24.4802 81.4021 23.679 81.6151 23.0501 81.2547L20.7505 79.9277V82.5789C20.7505 83.3024 20.1626 83.8894 19.438 83.8894H18.563C17.8384 83.8894 17.2505 83.3024 17.2505 82.5789V79.9277L14.9509 81.2547C14.322 81.6178 13.5208 81.4021 13.1571 80.7741L12.7196 80.0178C12.3559 79.3899 12.572 78.5899 13.2009 78.2267L15.5005 76.8998L13.2009 75.5729C12.572 75.2097 12.3587 74.4097 12.7196 73.7818L13.1571 73.0255C13.5208 72.3975 14.322 72.1845 14.9509 72.5449L17.2505 73.8719V71.2207ZM18.563 70.7839C18.3224 70.7839 18.1255 70.9804 18.1255 71.2207V74.6309C18.1255 74.7865 18.0434 74.9312 17.9067 75.0104C17.77 75.0896 17.6059 75.0896 17.4692 75.0104L14.5134 73.304C14.3028 73.1838 14.0376 73.2548 13.9145 73.465L13.477 74.2213C13.3567 74.4316 13.4278 74.6964 13.6384 74.8193L16.5942 76.5203C16.7309 76.5995 16.813 76.7414 16.813 76.8998C16.813 77.0582 16.7309 77.2001 16.5942 77.2793L13.6384 78.983C13.4278 79.1032 13.3567 79.3707 13.477 79.581L13.9145 80.3373C14.0348 80.5475 14.3028 80.6185 14.5134 80.4984L17.4692 78.7919C17.6059 78.7127 17.77 78.7127 17.9067 78.7919C18.0434 78.8711 18.1255 79.0131 18.1255 79.1714V82.5789C18.1255 82.8191 18.3224 83.0157 18.563 83.0157H19.438C19.6786 83.0157 19.8755 82.8191 19.8755 82.5789V79.1687C19.8755 79.0131 19.9575 78.8684 20.0942 78.7892C20.2309 78.71 20.395 78.71 20.5317 78.7892L23.4876 80.4929C23.6981 80.613 23.9634 80.542 24.0864 80.3318L24.5239 79.5755C24.6442 79.3653 24.5731 79.1004 24.3626 78.9776L21.4067 77.2793C21.27 77.2001 21.188 77.0582 21.188 76.8998C21.188 76.7414 21.27 76.5995 21.4067 76.5203L24.3626 74.8166C24.5731 74.6964 24.6442 74.4288 24.5239 74.2186L24.0864 73.4623C23.9661 73.2521 23.6981 73.1811 23.4876 73.3012L20.5317 75.0077C20.395 75.0869 20.2309 75.0869 20.0942 75.0077C19.9575 74.9285 19.8755 74.7865 19.8755 74.6282V71.2207C19.8755 70.9804 19.6786 70.7839 19.438 70.7839H18.563Z" fill="#033F47"/>
</g>
<path d="M71.4219 67.8289C70.7281 67.4023 69.8563 67.3883 69.1484 67.7867C68.4406 68.1851 68 68.9351 68 69.7508V86.2508C68 87.0664 68.4406 87.8164 69.1484 88.2148C69.8563 88.6133 70.7281 88.5945 71.4219 88.1726L84.9219 79.9226C85.5922 79.5148 86 78.7883 86 78.0008C86 77.2133 85.5922 76.4914 84.9219 76.0789L71.4219 67.8289Z" fill="#033F47"/>
<defs>
<filter id="filter0_b_18_35321" x="-30" y="-30" width="215" height="215" filterUnits="userSpaceOnUse" color-interpolation-filters="sRGB">
<feFlood flood-opacity="0" result="BackgroundImageFix"/>
<feGaussianBlur in="BackgroundImageFix" stdDeviation="15"/>
<feComposite in2="SourceAlpha" operator="in" result="effect1_backgroundBlur_18_35321"/>
<feBlend mode="normal" in="SourceGraphic" in2="effect1_backgroundBlur_18_35321" result="shape"/>
</filter>
<filter id="filter1_b_18_35321" x="13" y="13" width="129" height="129" filterUnits="userSpaceOnUse" color-interpolation-filters="sRGB">
<feFlood flood-opacity="0" result="BackgroundImageFix"/>
<feGaussianBlur in="BackgroundImageFix" stdDeviation="15"/>
<feComposite in2="SourceAlpha" operator="in" result="effect1_backgroundBlur_18_35321"/>
<feBlend mode="normal" in="SourceGraphic" in2="effect1_backgroundBlur_18_35321" result="shape"/>
</filter>
<clipPath id="clip0_18_35321">
<rect width="14" height="13.9793" fill="white" transform="translate(129 70.9082)"/>
</clipPath>
<clipPath id="clip1_18_35321">
<rect width="14" height="13.9793" fill="white" transform="translate(12 69.9102)"/>
</clipPath>
</defs>
</svg>
