<svg width="60" height="60" viewBox="0 0 60 60" fill="none" xmlns="http://www.w3.org/2000/svg">
<circle cx="30" cy="30" r="19.5" fill="#E0F780"/>
<path d="M52.266 17.5908H39.8055V15.1709C39.8055 11.6682 36.2371 8.09863 32.7344 8.09863H27.2664C23.7637 8.09863 20.1953 11.6682 20.1953 15.1709V17.5908H7.73477C7.21841 17.5914 6.72337 17.7968 6.35825 18.162C5.99313 18.5271 5.78773 19.0221 5.78711 19.5385V49.9533C5.78773 50.4697 5.99313 50.9647 6.35825 51.3298C6.72337 51.695 7.21841 51.9004 7.73477 51.901H52.266C52.7825 51.9004 53.2776 51.695 53.6429 51.3299C54.0083 50.9648 54.2139 50.4698 54.2148 49.9533V19.5385C54.2139 19.022 54.0083 18.527 53.6429 18.1619C53.2776 17.7968 52.7825 17.5914 52.266 17.5908ZM21.3215 15.1709C21.3215 12.2811 24.3777 9.2248 27.2664 9.2248H32.7344C35.623 9.2248 38.6793 12.2811 38.6793 15.1709V17.5908H36.1305V15.9865C36.1292 14.7185 35.625 13.5028 34.7284 12.6062C33.8318 11.7096 32.616 11.2053 31.348 11.2041H28.6527C27.3847 11.2053 26.169 11.7096 25.2724 12.6062C24.3758 13.5028 23.8716 14.7185 23.8703 15.9865V17.5908H21.3215V15.1709ZM35.0031 17.5908H24.9977V15.9865C24.9986 15.0173 25.3839 14.0881 26.0692 13.4026C26.7544 12.7172 27.6835 12.3315 28.6527 12.3303H31.348C32.3173 12.3315 33.2464 12.7172 33.9316 13.4026C34.6168 14.0881 35.0022 15.0173 35.0031 15.9865V17.5908ZM7.73477 18.717H52.266C52.4836 18.717 52.6922 18.8034 52.8461 18.9573C52.9999 19.1111 53.0863 19.3197 53.0863 19.5373V26.3588L33.3988 34.0697V34.0111C33.3982 33.4948 33.1928 32.9997 32.8277 32.6346C32.4626 32.2695 31.9675 32.0641 31.4512 32.0635H28.5332C28.0168 32.0641 27.5218 32.2695 27.1567 32.6346C26.7916 32.9997 26.5862 33.4948 26.5855 34.0111V34.0697L6.91445 26.36V19.5385C6.9143 19.4307 6.9354 19.3239 6.97656 19.2242C7.01771 19.1245 7.07811 19.034 7.1543 18.9577C7.23049 18.8814 7.32097 18.8208 7.42057 18.7795C7.52018 18.7382 7.62694 18.717 7.73477 18.717ZM32.2809 34.0123V39.3244C32.2809 39.542 32.1944 39.7506 32.0406 39.9045C31.8868 40.0583 31.6781 40.1447 31.4605 40.1447H28.5426C28.325 40.1447 28.1164 40.0583 27.9625 39.9045C27.8087 39.7506 27.7223 39.542 27.7223 39.3244V34.0123C27.7223 33.7947 27.8087 33.5861 27.9625 33.4323C28.1164 33.2784 28.325 33.192 28.5426 33.192H31.4605C31.6781 33.192 31.8868 33.2784 32.0406 33.4323C32.1944 33.5861 32.2809 33.7947 32.2809 34.0123ZM52.266 50.7748H7.73477C7.51721 50.7748 7.30856 50.6884 7.15472 50.5345C7.00088 50.3807 6.91445 50.1721 6.91445 49.9545V27.5717L26.602 35.2826V39.3268C26.6026 39.8431 26.808 40.3382 27.1731 40.7033C27.5382 41.0684 28.0332 41.2738 28.5496 41.2744H31.4676C31.9839 41.2738 32.479 41.0684 32.8441 40.7033C33.2092 40.3382 33.4146 39.8431 33.4152 39.3268V35.2803L53.1027 27.5693V49.9522C53.1031 50.0615 53.0816 50.1697 53.0394 50.2706C52.9973 50.3715 52.9355 50.463 52.8575 50.5396C52.7796 50.6162 52.6871 50.6765 52.5855 50.7169C52.4839 50.7573 52.3753 50.777 52.266 50.7748Z" fill="#033F47"/>
</svg>
