<svg width="60" height="60" viewBox="0 0 60 60" fill="none" xmlns="http://www.w3.org/2000/svg">
<circle cx="30" cy="30" r="19.5" fill="#E0F780"/>
<path d="M25.0441 20.8077L24.2161 22.0617C24.1444 22.1756 24.1132 22.3104 24.1273 22.4442C24.1415 22.5781 24.2002 22.7033 24.2941 22.7997L26.9281 25.4337C27.0253 25.5305 27.1528 25.5911 27.2893 25.6053C27.4258 25.6194 27.563 25.5864 27.6781 25.5117L28.9321 24.6837C29.3055 24.8742 29.6926 25.0366 30.0901 25.1697L30.3901 26.6337C30.4181 26.7713 30.4936 26.8947 30.6032 26.9824C30.7128 27.0701 30.8497 27.1165 30.9901 27.1137H34.7161C34.8565 27.1165 34.9934 27.0701 35.103 26.9824C35.2126 26.8947 35.288 26.7713 35.3161 26.6337L35.6161 25.1697C36.0129 25.0372 36.3999 24.8768 36.7741 24.6897L38.0281 25.5177C38.1432 25.5924 38.2804 25.6254 38.4169 25.6112C38.5534 25.5971 38.6808 25.5365 38.7781 25.4397L41.4001 22.8297C41.4969 22.7325 41.5574 22.605 41.5716 22.4685C41.5858 22.332 41.5528 22.1948 41.4781 22.0797L40.6501 20.8257C40.8412 20.4533 41.0017 20.0661 41.1301 19.6677L42.6001 19.3677C42.7377 19.3397 42.861 19.2643 42.9487 19.1546C43.0364 19.045 43.0829 18.9081 43.0801 18.7677V15.0537C43.0829 14.9133 43.0364 14.7764 42.9487 14.6668C42.861 14.5572 42.7377 14.4818 42.6001 14.4537L41.1301 14.1537C40.9996 13.757 40.8412 13.37 40.6561 12.9957L41.4781 11.7417C41.5498 11.6278 41.581 11.4931 41.5669 11.3592C41.5527 11.2254 41.494 11.1002 41.4001 11.0037L38.7661 8.36372C38.6688 8.26692 38.5414 8.20637 38.4049 8.19218C38.2684 8.17798 38.1312 8.211 38.0161 8.28572L36.7621 9.11372C36.3886 8.9251 36.0015 8.76465 35.6041 8.63372L35.3041 7.16372C35.276 7.02615 35.2006 6.90278 35.091 6.81507C34.9814 6.72737 34.8445 6.68089 34.7041 6.68372H30.9961C30.8557 6.68089 30.7188 6.72737 30.6092 6.81507C30.4996 6.90278 30.4241 7.02615 30.3961 7.16372L30.0961 8.63372C29.6994 8.76418 29.3124 8.92257 28.9381 9.10772L27.6961 8.27972C27.5811 8.20268 27.443 8.16777 27.3053 8.18089C27.1675 8.19401 27.0385 8.25436 26.9401 8.35172L24.3061 10.9857C24.2078 11.0834 24.1464 11.212 24.1321 11.3498C24.1179 11.4876 24.1518 11.6261 24.2281 11.7417L25.0501 12.9897C24.8641 13.3644 24.7037 13.7513 24.5701 14.1477L23.1061 14.4477C22.9685 14.4758 22.8452 14.5512 22.7575 14.6608C22.6698 14.7704 22.6233 14.9073 22.6261 15.0477V18.7737C22.6233 18.9141 22.6698 19.051 22.7575 19.1606C22.8452 19.2703 22.9685 19.3457 23.1061 19.3737L24.5761 19.6737C24.7032 20.063 24.8596 20.4421 25.0441 20.8077ZM23.8441 15.5277L25.1821 15.2517C25.2902 15.2309 25.3905 15.1806 25.472 15.1065C25.5535 15.0325 25.6131 14.9374 25.6441 14.8317C25.7991 14.2818 26.0186 13.7521 26.2981 13.2537C26.3508 13.1625 26.3785 13.059 26.3785 12.9537C26.3785 12.8484 26.3508 12.7449 26.2981 12.6537L25.5481 11.5137L27.4921 9.56972L28.6321 10.3257C28.7233 10.3784 28.8268 10.4061 28.9321 10.4061C29.0374 10.4061 29.1409 10.3784 29.2321 10.3257C29.7342 10.0497 30.2655 9.83037 30.8161 9.67172C30.9221 9.64209 31.0179 9.58388 31.093 9.50345C31.1682 9.42303 31.2197 9.32348 31.2421 9.21572L31.5181 7.87772H34.2601L34.5361 9.21572C34.558 9.32276 34.6086 9.4218 34.6826 9.50216C34.7567 9.58252 34.8512 9.64115 34.9561 9.67172C35.5055 9.82826 36.035 10.0477 36.5341 10.3257C36.6253 10.3784 36.7288 10.4061 36.8341 10.4061C36.9394 10.4061 37.0429 10.3784 37.1341 10.3257L38.2741 9.57572L40.2001 11.5017L39.4441 12.6417C39.3914 12.7329 39.3637 12.8364 39.3637 12.9417C39.3637 13.047 39.3914 13.1505 39.4441 13.2417C39.7211 13.7413 39.9405 14.2707 40.0981 14.8197C40.1277 14.9257 40.1859 15.0215 40.2664 15.0967C40.3468 15.1718 40.4463 15.2234 40.5541 15.2457L41.8921 15.5217V18.2637L40.5541 18.5397C40.4471 18.5616 40.348 18.6122 40.2677 18.6863C40.1873 18.7603 40.1287 18.8548 40.0981 18.9597C39.9405 19.5107 39.7211 20.0421 39.4441 20.5437C39.3914 20.6349 39.3637 20.7384 39.3637 20.8437C39.3637 20.949 39.3914 21.0525 39.4441 21.1437L40.2001 22.3257L38.2561 24.2697L37.1161 23.5137C37.0249 23.4611 36.9214 23.4333 36.8161 23.4333C36.7108 23.4333 36.6073 23.4611 36.5161 23.5137C36.0177 23.7932 35.4881 24.0127 34.9381 24.1677C34.8321 24.1973 34.7363 24.2556 34.6612 24.336C34.586 24.4164 34.5345 24.5159 34.5121 24.6237L34.2001 25.9377H31.4701L31.2001 24.5997C31.1792 24.4916 31.129 24.3913 31.0549 24.3098C30.9808 24.2283 30.8858 24.1688 30.7801 24.1377C30.2286 23.9817 29.6971 23.7622 29.1961 23.4837C29.1049 23.4311 29.0014 23.4033 28.8961 23.4033C28.7908 23.4033 28.6873 23.4311 28.5961 23.4837L27.4561 24.2337L25.5121 22.2897L26.2681 21.1497C26.3208 21.0585 26.3485 20.955 26.3485 20.8497C26.3485 20.7444 26.3208 20.6409 26.2681 20.5497C25.9896 20.0488 25.7702 19.5172 25.6141 18.9657C25.5835 18.8608 25.5249 18.7663 25.4445 18.6923C25.3642 18.6182 25.2651 18.5676 25.1581 18.5457L23.8201 18.2697L23.8441 15.5277Z" fill="#033F47"/>
<path d="M30.6301 21.9903C31.3276 22.2974 32.0819 22.4548 32.8441 22.4523C34.216 22.4527 35.5394 21.9444 36.5583 21.0257C37.5772 20.1069 38.2193 18.843 38.3604 17.4784C38.5014 16.1137 38.1315 14.7452 37.3221 13.6374C36.5127 12.5297 35.3213 11.7614 33.9782 11.4812C32.6352 11.2009 31.236 11.4286 30.0511 12.1202C28.8662 12.8118 27.9798 13.9181 27.5634 15.2253C27.1469 16.5325 27.2299 17.9477 27.7964 19.1973C28.3628 20.4468 29.3725 21.442 30.6301 21.9903ZM28.8661 15.1683C29.268 14.2457 29.9774 13.491 30.8734 13.0328C31.7693 12.5745 32.7965 12.4412 33.7797 12.6553C34.763 12.8694 35.6417 13.4179 36.2659 14.2072C36.8902 14.9965 37.2215 15.9779 37.2034 16.984C37.1852 17.9902 36.8188 18.959 36.1665 19.7253C35.5142 20.4916 34.6164 21.008 33.626 21.1866C32.6357 21.3652 31.614 21.1949 30.7351 20.7047C29.8563 20.2145 29.1745 19.4347 28.8061 18.4983C28.3842 17.4241 28.4058 16.2265 28.8661 15.1683Z" fill="#033F47"/>
<path d="M55.8544 32.0944C54.2284 31.3144 51.5824 32.5324 48.6004 34.3624V5.93439C48.6004 4.99712 48.2281 4.09823 47.5653 3.43548C46.9025 2.77272 46.0037 2.40039 45.0664 2.40039H20.9344C19.9971 2.40039 19.0982 2.77272 18.4355 3.43548C17.7727 4.09823 17.4004 4.99712 17.4004 5.93439V33.6004C15.1444 33.9724 12.4084 36.6424 10.3324 39.0724L9.31238 38.1784C9.19221 38.0742 9.0356 38.022 8.87696 38.0333C8.71833 38.0445 8.57065 38.1183 8.46638 38.2384L2.55038 45.0004C2.44531 45.1189 2.39139 45.2742 2.40038 45.4324C2.40537 45.5114 2.42597 45.5887 2.46098 45.6598C2.496 45.7308 2.54473 45.7943 2.60438 45.8464L15.8344 57.3844C15.9446 57.4787 16.0853 57.5298 16.2304 57.5284H16.2724C16.4299 57.5168 16.5765 57.4435 16.6804 57.3244L22.6024 50.5504C22.7065 50.4302 22.7587 50.2736 22.7475 50.115C22.7362 49.9563 22.6625 49.8087 22.5424 49.7044L21.3844 48.6904C21.7518 48.3982 22.1551 48.1542 22.5844 47.9644C23.6404 47.5324 28.9324 47.6104 33.1804 47.6764C37.4284 47.7424 41.1904 47.7964 42.4984 47.4844C45.8104 46.6924 54.2404 39.1324 54.6004 38.8144C56.8504 36.7924 57.7684 35.3284 57.6004 34.0624C57.5029 33.612 57.2911 33.1943 56.9853 32.8496C56.6794 32.5049 56.29 32.2448 55.8544 32.0944ZM18.6004 5.93439C18.602 5.31586 18.8484 4.72312 19.2857 4.28575C19.7231 3.84839 20.3159 3.60197 20.9344 3.60039H45.0664C45.6849 3.60197 46.2777 3.84839 46.715 4.28575C47.1524 4.72312 47.3988 5.31586 47.4004 5.93439V35.1184C46.8964 35.4424 46.3864 35.7784 45.8704 36.1204C45.2068 36.5968 44.5156 37.0336 43.8004 37.4284C42.9364 37.7884 37.3804 37.7044 32.9404 37.5304C38.2924 34.8244 41.3404 33.1924 41.5204 31.4764C41.5422 31.1886 41.4869 30.9002 41.3604 30.6408C41.2339 30.3814 41.0406 30.1604 40.8004 30.0004C39.0004 28.5004 35.3224 29.8924 32.4004 31.0084C31.53 31.3655 30.6383 31.668 29.7304 31.9144C28.4704 32.1784 26.1304 32.4484 23.7304 32.7364C21.9904 32.9464 20.2024 33.1564 18.6064 33.3844L18.6004 5.93439ZM16.2004 56.0824L3.84638 45.3184L9.00038 39.4504L21.3004 50.2144L16.2004 56.0824ZM53.7904 37.9204C50.3704 41.0044 44.4544 45.7864 42.2104 46.3204C41.0464 46.5964 37.0504 46.5364 33.2104 46.4764C27.3004 46.3864 23.3344 46.3684 22.1404 46.8544C21.546 47.1233 20.9925 47.4747 20.4964 47.8984L11.2384 39.8344C13.2664 37.4344 15.7564 35.0344 17.5984 34.7524C19.4404 34.4704 21.6844 34.1944 23.8684 33.9364C26.3344 33.6484 28.6684 33.3724 29.9884 33.0964C30.9569 32.8406 31.907 32.5199 32.8324 32.1364C35.3404 31.1824 38.7724 29.8744 40.0324 30.9364C40.2964 31.1584 40.2784 31.2964 40.2724 31.3444C40.1404 32.5444 35.8864 34.6804 32.1304 36.5764C31.5304 36.8764 30.9304 37.1764 30.3304 37.5004C30.2126 37.5602 30.1179 37.6573 30.061 37.7765C30.004 37.8956 29.9879 38.0303 30.0153 38.1595C30.0426 38.2887 30.1119 38.4053 30.2122 38.4911C30.3126 38.577 30.4385 38.6274 30.5704 38.6344C32.5744 38.7364 42.6604 39.1984 44.2324 38.5444C45.0352 38.1292 45.8054 37.6538 46.5364 37.1224C49.0264 35.4604 53.6644 32.4004 55.3384 33.1744C56.3044 33.6364 56.3704 34.0864 56.3884 34.2364C56.5024 35.0284 55.6324 36.2644 53.7904 37.9204Z" fill="#033F47"/>
</svg>
