<svg width="60" height="60" viewBox="0 0 60 60" fill="none" xmlns="http://www.w3.org/2000/svg">
<g clip-path="url(#clip0_1204_3382)">
<circle cx="31" cy="12.5" r="13" fill="#E0F780"/>
<path d="M56.9999 9.76239H52.7159V8.03439C52.7159 7.87526 52.6527 7.72265 52.5402 7.61013C52.4276 7.4976 52.275 7.43439 52.1159 7.43439H46.7159V6.00039C46.7159 5.04561 46.3366 4.12994 45.6615 3.45481C44.9864 2.77968 44.0707 2.40039 43.1159 2.40039C42.1611 2.40039 41.2454 2.77968 40.5703 3.45481C39.8952 4.12994 39.5159 5.04561 39.5159 6.00039V7.43439H34.0259C33.8668 7.43439 33.7142 7.4976 33.6016 7.61013C33.4891 7.72265 33.4259 7.87526 33.4259 8.03439V9.76239H29.2259C29.0668 9.76239 28.9142 9.8256 28.8016 9.93813C28.6891 10.0506 28.6259 10.2033 28.6259 10.3624V28.0864H4.5239C3.96162 28.0864 3.42228 28.3093 3.02412 28.7064C2.62597 29.1034 2.40149 29.6421 2.3999 30.2044V36.5464C2.40344 37.0862 2.5673 37.6129 2.87069 38.0594C3.17409 38.5059 3.60332 38.8522 4.1039 39.0544V55.5784C4.10549 56.2489 4.37296 56.8914 4.84763 57.3649C5.3223 57.8385 5.96541 58.1044 6.6359 58.1044H37.0919C37.7582 58.0981 38.3952 57.8293 38.8647 57.3565C39.3342 56.8836 39.5984 56.2447 39.5999 55.5784V51.6004H56.9999C57.159 51.6004 57.3116 51.5372 57.4242 51.4247C57.5367 51.3121 57.5999 51.1595 57.5999 51.0004V10.3624C57.5999 10.2033 57.5367 10.0506 57.4242 9.93813C57.3116 9.8256 57.159 9.76239 56.9999 9.76239ZM40.7159 6.00039C40.7159 5.36387 40.9688 4.75342 41.4188 4.30333C41.8689 3.85325 42.4794 3.60039 43.1159 3.60039C43.7524 3.60039 44.3629 3.85325 44.813 4.30333C45.263 4.75342 45.5159 5.36387 45.5159 6.00039V7.43439H40.7159V6.00039ZM34.6259 8.63439H51.5159V12.0844H34.6259V8.63439ZM38.3999 55.5784C38.3999 55.9301 38.2602 56.2673 38.0115 56.516C37.7629 56.7647 37.4256 56.9044 37.0739 56.9044H6.6419C6.28967 56.9044 5.95178 56.7649 5.70215 56.5164C5.45252 56.2679 5.31149 55.9306 5.3099 55.5784V39.4324L18.1199 43.2664V45.9604C18.1199 46.0645 18.147 46.1668 18.1986 46.2573C18.2501 46.3478 18.3243 46.4233 18.4139 46.4764L21.5579 48.3604C21.6499 48.4174 21.7556 48.4485 21.8639 48.4504C21.9823 48.4542 22.0992 48.4229 22.1999 48.3604L25.3439 46.4764C25.4324 46.4225 25.5054 46.3467 25.5558 46.2563C25.6063 46.1659 25.6325 46.0639 25.6319 45.9604V43.2664L38.3999 39.4324V55.5784ZM19.3199 45.6004V40.2784H24.4079V45.6004L21.8639 47.1244L19.3199 45.6004ZM39.0479 37.9924L25.6079 42.0004V39.6784C25.6079 39.5193 25.5447 39.3666 25.4322 39.2541C25.3196 39.1416 25.167 39.0784 25.0079 39.0784H18.7199C18.5608 39.0784 18.4082 39.1416 18.2956 39.2541C18.1831 39.3666 18.1199 39.5193 18.1199 39.6784V42.0004L4.6799 37.9924C4.36934 37.8978 4.0971 37.7066 3.90283 37.4465C3.70857 37.1864 3.60244 36.871 3.5999 36.5464V30.2044C3.60148 29.9614 3.6987 29.7288 3.87052 29.557C4.04233 29.3852 4.27492 29.288 4.5179 29.2864H39.1979C39.4419 29.2864 39.676 29.3829 39.8492 29.5549C40.0223 29.7269 40.1203 29.9604 40.1219 30.2044V36.5464C40.1198 36.8703 40.0145 37.185 39.8214 37.445C39.6283 37.705 39.3573 37.8968 39.0479 37.9924ZM56.3999 50.4004H39.5999V45.2344H43.0559C43.215 45.2344 43.3676 45.1712 43.4802 45.0587C43.5927 44.9461 43.6559 44.7935 43.6559 44.6344C43.6559 44.4753 43.5927 44.3226 43.4802 44.2101C43.3676 44.0976 43.215 44.0344 43.0559 44.0344H39.5999V39.0544C40.1011 38.8525 40.5312 38.5064 40.8356 38.06C41.14 37.6135 41.3051 37.0867 41.3099 36.5464V35.5744H43.1099C43.269 35.5744 43.4216 35.5112 43.5342 35.3987C43.6467 35.2861 43.7099 35.1335 43.7099 34.9744C43.7099 34.8153 43.6467 34.6626 43.5342 34.5501C43.4216 34.4376 43.269 34.3744 43.1099 34.3744H41.3099V30.2044C41.3083 29.6421 41.0838 29.1034 40.6857 28.7064C40.2875 28.3093 39.7482 28.0864 39.1859 28.0864H29.8259V10.9624H33.4259V12.6844C33.4259 12.8435 33.4891 12.9961 33.6016 13.1087C33.7142 13.2212 33.8668 13.2844 34.0259 13.2844H52.1159C52.275 13.2844 52.4276 13.2212 52.5402 13.1087C52.6527 12.9961 52.7159 12.8435 52.7159 12.6844V10.9624H56.3999V50.4004Z" fill="#033F47"/>
<path d="M47.2798 18.8881V24.0001C47.2798 24.1592 47.343 24.3118 47.4555 24.4244C47.568 24.5369 47.7207 24.6001 47.8798 24.6001H52.9918C53.1509 24.6001 53.3035 24.5369 53.416 24.4244C53.5286 24.3118 53.5918 24.1592 53.5918 24.0001V18.8881C53.5918 18.729 53.5286 18.5763 53.416 18.4638C53.3035 18.3513 53.1509 18.2881 52.9918 18.2881H47.8798C47.7207 18.2881 47.568 18.3513 47.4555 18.4638C47.343 18.5763 47.2798 18.729 47.2798 18.8881ZM48.4798 19.4881H52.3918V23.4001H48.4798V19.4881Z" fill="#033F47"/>
<path d="M52.9918 28.6084H47.8798C47.7207 28.6084 47.568 28.6716 47.4555 28.7841C47.343 28.8967 47.2798 29.0493 47.2798 29.2084V34.3204C47.2798 34.4795 47.343 34.6321 47.4555 34.7447C47.568 34.8572 47.7207 34.9204 47.8798 34.9204H52.9918C53.1509 34.9204 53.3035 34.8572 53.416 34.7447C53.5286 34.6321 53.5918 34.4795 53.5918 34.3204V29.2084C53.5918 29.0493 53.5286 28.8967 53.416 28.7841C53.3035 28.6716 53.1509 28.6084 52.9918 28.6084ZM52.3918 33.7204H48.4798V29.8084H52.3918V33.7204Z" fill="#033F47"/>
<path d="M52.9918 38.9277H47.8798C47.7207 38.9277 47.568 38.9909 47.4555 39.1035C47.343 39.216 47.2798 39.3686 47.2798 39.5277V44.6337C47.2798 44.7929 47.343 44.9455 47.4555 45.058C47.568 45.1705 47.7207 45.2337 47.8798 45.2337H52.9918C53.1509 45.2337 53.3035 45.1705 53.416 45.058C53.5286 44.9455 53.5918 44.7929 53.5918 44.6337V39.5277C53.5918 39.3686 53.5286 39.216 53.416 39.1035C53.3035 38.9909 53.1509 38.9277 52.9918 38.9277ZM52.3918 44.0337H48.4798V40.1277H52.3918V44.0337Z" fill="#033F47"/>
<path d="M43.1158 23.4004H34.0258C33.8667 23.4004 33.714 23.4636 33.6015 23.5761C33.489 23.6886 33.4258 23.8413 33.4258 24.0004C33.4258 24.1595 33.489 24.3121 33.6015 24.4247C33.714 24.5372 33.8667 24.6004 34.0258 24.6004H43.1158C43.2749 24.6004 43.4275 24.5372 43.54 24.4247C43.6526 24.3121 43.7158 24.1595 43.7158 24.0004C43.7158 23.8413 43.6526 23.6886 43.54 23.5761C43.4275 23.4636 43.2749 23.4004 43.1158 23.4004Z" fill="#033F47"/>
</g>
<defs>
<clipPath id="clip0_1204_3382">
<rect width="60" height="60" fill="white"/>
</clipPath>
</defs>
</svg>
