<svg width="22" height="24" viewBox="0 0 22 24" fill="none" xmlns="http://www.w3.org/2000/svg">
<path d="M6.5 0.75C6.5 0.3375 6.1625 0 5.75 0C5.3375 0 5 0.3375 5 0.75V3H3.5C1.84531 3 0.5 4.34531 0.5 6V7.5V9V21C0.5 22.6547 1.84531 24 3.5 24H18.5C20.1547 24 21.5 22.6547 21.5 21V9V7.5V6C21.5 4.34531 20.1547 3 18.5 3H17V0.75C17 0.3375 16.6625 0 16.25 0C15.8375 0 15.5 0.3375 15.5 0.75V3H6.5V0.75ZM2 9H20V21C20 21.8297 19.3297 22.5 18.5 22.5H3.5C2.67031 22.5 2 21.8297 2 21V9ZM3.5 4.5H18.5C19.3297 4.5 20 5.17031 20 6V7.5H2V6C2 5.17031 2.67031 4.5 3.5 4.5ZM14.75 16.5C15.1625 16.5 15.5 16.1625 15.5 15.75C15.5 15.3375 15.1625 15 14.75 15H7.25C6.8375 15 6.5 15.3375 6.5 15.75C6.5 16.1625 6.8375 16.5 7.25 16.5H14.75Z" fill="#080F10"/>
</svg>
